<?xml version="1.0" encoding="UTF-8" standalone="no"?>
<svg
   xmlns:osb="http://www.openswatchbook.org/uri/2009/osb"
   xmlns:dc="http://purl.org/dc/elements/1.1/"
   xmlns:cc="http://creativecommons.org/ns#"
   xmlns:rdf="http://www.w3.org/1999/02/22-rdf-syntax-ns#"
   xmlns:svg="http://www.w3.org/2000/svg"
   xmlns="http://www.w3.org/2000/svg"
   xmlns:xlink="http://www.w3.org/1999/xlink"
   xmlns:sodipodi="http://sodipodi.sourceforge.net/DTD/sodipodi-0.dtd"
   xmlns:inkscape="http://www.inkscape.org/namespaces/inkscape"
   width="64"
   height="64"
   viewBox="0 0 16.933333 16.933334"
   version="1.1"
   id="svg820"
   sodipodi:docname="boom.svg"
   inkscape:version="0.92.4 (5da689c313, 2019-01-14)">
  <defs
     id="defs814">
    <linearGradient
       id="linearGradient5235"
       osb:paint="solid">
      <stop
         style="stop-color:#ffffff;stop-opacity:1;"
         offset="0"
         id="stop5233" />
    </linearGradient>
    <linearGradient
       inkscape:collect="always"
       xlink:href="#linearGradient5235"
       id="linearGradient5237"
       x1="-0.03248929"
       y1="288.57881"
       x2="16.902331"
       y2="288.57881"
       gradientUnits="userSpaceOnUse" />
  </defs>
  <sodipodi:namedview
     id="base"
     pagecolor="#ffffff"
     bordercolor="#666666"
     borderopacity="1.0"
     inkscape:pageopacity="0.0"
     inkscape:pageshadow="2"
     inkscape:zoom="6.713095"
     inkscape:cx="27.71193"
     inkscape:cy="9.6106213"
     inkscape:document-units="mm"
     inkscape:current-layer="g5203"
     showgrid="false"
     inkscape:pagecheckerboard="true"
     units="px"
     inkscape:window-width="1920"
     inkscape:window-height="1017"
     inkscape:window-x="-8"
     inkscape:window-y="-8"
     inkscape:window-maximized="1" />
  <metadata
     id="metadata817">
    <rdf:RDF>
      <cc:Work
         rdf:about="">
        <dc:format>image/svg+xml</dc:format>
        <dc:type
           rdf:resource="http://purl.org/dc/dcmitype/StillImage" />
        <dc:title></dc:title>
      </cc:Work>
    </rdf:RDF>
  </metadata>
  <g
     inkscape:label="Layer 1"
     inkscape:groupmode="layer"
     id="layer1"
     transform="translate(0,-280.06665)">
    <path
       style="fill:#000000;stroke-width:0.26964495"
       d=""
       id="path5163"
       inkscape:connector-curvature="0" />
    <path
       style="fill:#000000;stroke-width:0.26964495"
       d=""
       id="path5161"
       inkscape:connector-curvature="0" />
    <path
       style="fill:#000000;stroke-width:0.26964495"
       d=""
       id="path5121"
       inkscape:connector-curvature="0" />
    <path
       style="fill:#000000;stroke-width:0.26964495"
       d=""
       id="path5119"
       inkscape:connector-curvature="0" />
    <path
       style="fill:#000000;stroke-width:0.26964495"
       d=""
       id="path5111"
       inkscape:connector-curvature="0" />
    <path
       style="fill:#000000;stroke-width:0.26964495"
       d=""
       id="path5109"
       inkscape:connector-curvature="0" />
    <path
       style="fill:#000000;stroke-width:0.26964495"
       d=""
       id="path5107"
       inkscape:connector-curvature="0" />
    <path
       style="fill:#000000;stroke-width:0.26964495"
       d=""
       id="path5105"
       inkscape:connector-curvature="0" />
    <path
       style="fill:#000000;stroke-width:0.26964495"
       d=""
       id="path5103"
       inkscape:connector-curvature="0" />
    <path
       style="fill:#000000;stroke-width:0.26964495"
       d=""
       id="path5101"
       inkscape:connector-curvature="0" />
    <path
       style="fill:#000000;stroke-width:0.26964495"
       d=""
       id="path5099"
       inkscape:connector-curvature="0" />
    <path
       style="fill:#000000;stroke-width:0.26964495"
       d=""
       id="path5089"
       inkscape:connector-curvature="0" />
    <path
       style="fill:#000000;stroke-width:0.26964495"
       d=""
       id="path5087"
       inkscape:connector-curvature="0" />
    <path
       style="fill:#000000;stroke-width:0.26964495"
       d=""
       id="path5085"
       inkscape:connector-curvature="0" />
    <path
       style="fill:#000000;stroke-width:0.26964495"
       d=""
       id="path5083"
       inkscape:connector-curvature="0" />
    <path
       style="fill:#000000;stroke-width:0.26964495"
       d=""
       id="path5081"
       inkscape:connector-curvature="0" />
    <path
       style="fill:#000000;stroke-width:0.26964495"
       d=""
       id="path5079"
       inkscape:connector-curvature="0" />
    <g
       id="g5203"
       style="fill:url(#linearGradient5237);fill-opacity:1"
       transform="translate(0.06681736)">
      <path
         style="fill:#ffffff;fill-opacity:1;stroke:#ffffff;stroke-width:0.00745557"
         d="m 3.7095946,297.03558 c 0,-0.004 0.00491,-0.009 0.010901,-0.0111 0.006,-0.002 0.020362,-0.0259 0.031926,-0.053 0.048207,-0.11295 0.1186524,-0.16798 0.2878286,-0.22486 0.028322,-0.01 0.075019,-0.0265 0.1037705,-0.0378 0.028752,-0.0113 0.1067574,-0.0317 0.1733467,-0.0454 0.5618732,-0.1154 0.9233063,-0.25251 1.1847893,-0.44948 0.195756,-0.14745 0.333079,-0.34618 0.393446,-0.5694 0.0284,-0.105 0.03934,-0.35975 0.03351,-0.78007 -0.0045,-0.32614 -0.01005,-0.44654 -0.03333,-0.72662 -0.02535,-0.30495 -0.04731,-0.6668 -0.06657,-1.09698 -0.02147,-0.47961 -0.0174,-1.14819 0.0085,-1.40385 0.03028,-0.29831 0.141071,-0.58962 0.334043,-0.87833 l 0.06604,-0.0988 0.0101,-0.14812 c 0.01314,-0.19269 0.01308,-0.96217 -1.01e-4,-1.43909 -0.01159,-0.41936 -0.0041,-0.38833 -0.09388,-0.38753 -0.137053,10e-4 -0.318799,0.0965 -0.365949,0.19187 -0.01799,0.0364 -0.0196,0.0622 -0.01027,0.16391 0.0048,0.0525 0.0034,0.0765 -0.0065,0.111 -0.04141,0.14424 -0.167116,0.24679 -0.377617,0.30807 -0.100893,0.0294 -0.182586,0.0403 -0.348482,0.0465 -0.1340601,0.005 -0.1679271,0.009 -0.2268351,0.0242 -0.1319374,0.0348 -0.245666,0.0976 -0.4350342,0.23994 -0.071717,0.0539 -0.1290349,0.0916 -0.1457687,0.0958 -0.098137,0.0245 -0.2754019,0.0261 -0.3979093,0.004 -0.1985413,-0.0366 -0.4548701,-0.14781 -0.6495252,-0.28188 -0.024124,-0.0166 -0.1147758,-0.0739 -0.2014491,-0.12735 -0.5537495,-0.34136 -0.7902643,-0.55111 -0.9564182,-0.84819 -0.035454,-0.0634 -0.1612744,-0.39336 -0.1930499,-0.50629 -0.066259,-0.23547 -0.095112,-0.47762 -0.1151566,-0.96647 -0.01547,-0.37729 -0.03227,-0.56497 -0.067006,-0.74855 -0.032844,-0.17358 -0.031334,-0.17038 -0.1155956,-0.24473 -0.040461,-0.0357 -0.1362294,-0.12709 -0.2128197,-0.2031 -0.2076956,-0.20611 -0.3185885,-0.29217 -0.45434003,-0.35258 -0.062555,-0.0278 -0.075061,-0.0308 -0.1509398,-0.0356 -0.131931,-0.008 -0.219518,-0.0428 -0.316437,-0.12471 -0.149328,-0.12612 -0.2192632,-0.304 -0.1844857,-0.46924 l 0.013075,-0.0621 -0.040064,-0.0627 c -0.1964621,-0.30737 -0.2559069,-0.57081 -0.1942099,-0.86067 0.037465,-0.17601 0.082053,-0.27234 0.1798475,-0.38853 0.143664,-0.1707 0.3934895,-0.3013 0.6520042,-0.34083 0.1078947,-0.0165 0.28061663,-0.0152 0.37986283,0.003 0.04312,0.008 0.1138592,0.0173 0.1571981,0.021 0.1669322,0.0142 0.2901164,0.076 0.3912858,0.19622 0.049103,0.0583 0.1185143,0.17341 0.1581979,0.26226 0.012997,0.0291 0.04324,0.0892 0.067206,0.13348 0.023966,0.0443 0.065397,0.14114 0.09207,0.21517 0.026672,0.074 0.064495,0.17903 0.084051,0.23336 0.069016,0.1917 0.1219219,0.28668 0.2008007,0.36047 0.051795,0.0485 0.1081491,0.0789 0.1699688,0.0917 0.05094,0.0106 0.069189,0.006 0.1393393,-0.0317 0.1209958,-0.0658 0.2382471,-0.16796 0.4379814,-0.38154 0.1503292,-0.16076 0.2542866,-0.25818 0.3391281,-0.31781 0.035734,-0.0251 0.090119,-0.0664 0.1208543,-0.0918 0.098435,-0.0813 0.1777045,-0.12147 0.2922643,-0.14801 0.088929,-0.0206 0.2176576,-0.0255 0.4767032,-0.0181 0.240411,0.007 0.276309,0.005 0.5427225,-0.0274 0.5620041,-0.0683 0.9955171,-0.16246 1.3837891,-0.30061 0.138519,-0.0493 0.407572,-0.16666 0.522428,-0.22792 l 0.0733,-0.0391 0.115803,-0.007 c 0.06369,-0.004 0.207991,-0.0122 0.320666,-0.0183 0.591941,-0.0321 0.905045,-0.0863 1.221045,-0.21131 0.170479,-0.0674 0.174013,-0.0679 0.53212,-0.0603 0.108042,0.002 0.128039,8.4e-4 0.173347,-0.0124 0.106196,-0.0311 0.160243,-0.0733 0.326229,-0.2551 0.186512,-0.20424 0.270262,-0.27247 0.393015,-0.32021 0.05418,-0.0211 0.06173,-0.0221 0.1593073,-0.022 0.138944,1.5e-4 0.255606,0.029 0.359048,0.0889 0.201008,0.11632 0.28745,0.31184 0.236195,0.53424 -0.0084,0.0363 -0.02339,0.0807 -0.03338,0.0988 l -0.01818,0.0328 -0.220623,0.0783 c -0.121343,0.0431 -0.318131,0.11259 -0.4373063,0.15449 -0.277316,0.0975 -0.507393,0.18522 -0.673089,0.25661 l -0.1312,0.0565 -0.09624,0.0833 c -0.554483,0.47987 -1.150118,0.90257 -1.908478,1.35438 -0.125676,0.0749 -0.254594,0.15238 -0.286484,0.17224 -0.03189,0.0198 -0.139638,0.0738 -0.23944,0.12 -0.214931,0.0994 -0.294277,0.14509 -0.358472,0.20653 -0.09992,0.0956 -0.126032,0.20803 -0.07981,0.3435 0.05549,0.16263 0.267568,0.23666 0.523249,0.18265 0.02151,-0.005 0.07457,-0.0235 0.117902,-0.0421 0.0686,-0.0295 0.09465,-0.0465 0.201399,-0.13155 0.205497,-0.16369 0.358075,-0.27093 0.791405,-0.55625 0.460841,-0.30343 0.646835,-0.43876 0.857678,-0.62402 0.142793,-0.12546 0.22756,-0.20963 0.323537,-0.32124 0.121246,-0.141 0.283558,-0.23791 0.658623,-0.39324 0.3128503,-0.12956 0.4377483,-0.19206 0.5303023,-0.26536 0.120736,-0.0956 0.204996,-0.14566 0.497271,-0.29536 0.24679,-0.1264 0.342454,-0.18156 0.436718,-0.25181 0.114323,-0.0852 0.194651,-0.17203 0.261582,-0.28274 0.0609,-0.10075 0.253108,-0.29807 0.451586,-0.46362 0.166617,-0.13898 0.301164,-0.24019 0.666259,-0.5012 l 0.334132,-0.23887 0.252882,-0.0598 c 0.922884,-0.21832 1.355653,-0.37028 1.785425,-0.62692 0.123863,-0.074 0.258558,-0.16711 0.323055,-0.2234 0.0195,-0.017 0.066,-0.0628 0.103336,-0.10178 0.104876,-0.10944 0.297713,-0.25265 0.465482,-0.34571 0.146452,-0.0812 0.325651,-0.14941 0.459443,-0.17481 0.03034,-0.006 0.04984,-0.0112 0.04334,-0.012 -0.0065,-8.5e-4 0.01123,-0.004 0.0394,-0.007 0.05614,-0.006 0.16732,-7.6e-4 0.161299,0.008 -0.0021,0.003 0.01021,0.008 0.02731,0.0102 0.0171,0.003 0.05648,0.0156 0.08752,0.0289 0.111141,0.0477 0.194933,0.14891 0.240179,0.29013 0.02014,0.0629 0.02025,0.0644 0.0075,0.10873 -0.06245,0.21683 -0.222484,0.40829 -0.602578,0.72091 -0.07584,0.0624 -0.169837,0.14103 -0.208883,0.17479 -0.0558,0.0482 -0.07857,0.0631 -0.106372,0.0697 -0.315497,0.0739 -0.652963,0.24424 -1.037424,0.52354 -0.03109,0.0226 -0.08181,0.0526 -0.112728,0.0666 -0.106378,0.0484 -0.166859,0.11082 -0.272499,0.28129 -0.100691,0.16249 -0.136661,0.20469 -0.239199,0.28068 -0.09406,0.0697 -0.312077,0.26266 -0.444073,0.39303 -0.214809,0.21216 -0.398593,0.41644 -0.774292,0.86066 -0.243966,0.28845 -0.387708,0.4544 -0.491919,0.56789 -0.04631,0.0504 -0.127898,0.1425 -0.181297,0.20458 -0.360134,0.41869 -0.73211,0.7733 -1.391202,1.32626 -0.138741,0.1164 -0.3594,0.30148 -0.490353,0.4113 -0.130953,0.10982 -0.238097,0.20121 -0.238097,0.2031 0,0.002 -0.01968,0.0898 -0.04374,0.19539 -0.106009,0.4652 -0.2298373,0.96964 -0.5069263,2.06506 -0.245154,0.96918 -0.356033,1.42362 -0.465571,1.90813 -0.0307,0.1358 -0.06789,0.29135 -0.08265,0.34567 -0.08782,0.32332 -0.137168,0.66777 -0.161696,1.12873 -0.01117,0.20986 -0.03164,0.96747 -0.03164,1.17092 0,0.18464 -0.0097,0.25164 -0.04732,0.32586 -0.04047,0.0799 -0.131911,0.14872 -0.228032,0.17162 -0.08248,0.0197 -0.140075,0.0222 -0.630782,0.0279 -0.407062,0.005 -0.535244,0.008 -0.606713,0.0175 -0.157167,0.02 -0.142283,0.0107 -0.189561,0.11874 -0.205553,0.46979 -0.331262,1.03177 -0.381454,1.70528 -0.0068,0.0912 -0.01811,0.19173 -0.02513,0.22345 -0.01723,0.0777 -0.01075,0.19844 0.01602,0.29859 0.01089,0.0407 0.02906,0.10899 0.04038,0.15167 0.03014,0.11364 0.03516,0.23465 0.01298,0.31318 -0.02739,0.097 -0.06441,0.14046 -0.149321,0.1754 -0.08734,0.036 -0.195835,0.0299 -0.446725,-0.0249 -0.179916,-0.0393 -0.194139,-0.0397 -0.484583,-0.0137 -0.399423,0.0358 -1.0339701,0.0655 -1.4892048,0.0697 -0.1011053,9.3e-4 -0.1231757,0.002 -0.082734,0.006 0.030943,0.003 -0.050341,0.005 -0.1851657,0.006 -0.1321768,7e-4 -0.2748923,0.003 -0.3171456,0.006 -0.051363,0.003 -0.076824,0.002 -0.076824,-0.003 z"
         id="path5205"
         inkscape:connector-curvature="0" />
    </g>
  </g>
</svg>
