<?xml version="1.0" encoding="UTF-8" standalone="no"?>
<svg
   xmlns:dc="http://purl.org/dc/elements/1.1/"
   xmlns:cc="http://creativecommons.org/ns#"
   xmlns:rdf="http://www.w3.org/1999/02/22-rdf-syntax-ns#"
   xmlns:svg="http://www.w3.org/2000/svg"
   xmlns="http://www.w3.org/2000/svg"
   xmlns:sodipodi="http://sodipodi.sourceforge.net/DTD/sodipodi-0.dtd"
   xmlns:inkscape="http://www.inkscape.org/namespaces/inkscape"
   width="64"
   height="65"
   viewBox="0 0 16.933333 17.197917"
   version="1.1"
   id="svg822"
   inkscape:version="0.92.4 (5da689c313, 2019-01-14)"
   sodipodi:docname="afaf.svg">
  <defs
     id="defs816" />
  <sodipodi:namedview
     id="base"
     pagecolor="#ffffff"
     bordercolor="#666666"
     borderopacity="1.0"
     inkscape:pageopacity="0"
     inkscape:pageshadow="2"
     inkscape:zoom="5.6"
     inkscape:cx="35.309578"
     inkscape:cy="41.933105"
     inkscape:document-units="mm"
     inkscape:current-layer="layer1"
     showgrid="false"
     units="px"
     inkscape:pagecheckerboard="true"
     inkscape:window-width="1920"
     inkscape:window-height="1017"
     inkscape:window-x="-8"
     inkscape:window-y="-8"
     inkscape:window-maximized="1" />
  <metadata
     id="metadata819">
    <rdf:RDF>
      <cc:Work
         rdf:about="">
        <dc:format>image/svg+xml</dc:format>
        <dc:type
           rdf:resource="http://purl.org/dc/dcmitype/StillImage" />
        <dc:title></dc:title>
      </cc:Work>
    </rdf:RDF>
  </metadata>
  <g
     inkscape:label="Layer 1"
     inkscape:groupmode="layer"
     id="layer1"
     transform="translate(0,-279.80207)"
     style="display:inline">
    <path
       style="fill:#000000;stroke-width:0.2645863"
       d=""
       id="path1426"
       inkscape:connector-curvature="0" />
    <path
       style="fill:#ffffff;stroke-width:0.03398279;fill-opacity:1"
       d="m 5.2136338,296.88957 c -0.1897536,-0.0918 -0.4074922,-0.29196 -0.509865,-0.4686 l -0.086967,-0.15007 -0.096823,-0.47873 c -0.1134964,-0.56116 -0.163794,-0.68225 -0.3706374,-0.89228 -0.2077488,-0.21094 -0.5183185,-0.39163 -1.1965713,-0.69615 -0.9011352,-0.40459 -1.169202,-0.59259 -1.169202,-0.82001 0,-0.13809 0.1572983,-0.42074 0.3330624,-0.59848 0.2223749,-0.22487 0.5676814,-0.42139 1.0017908,-0.57013 l 0.3717313,-0.12737 0.5678808,-0.0149 0.5678803,-0.0149 0.3276541,0.0407 c 0.4171062,0.0518 0.7422319,0.13457 1.372897,0.34957 l 0.504543,0.172 0.163332,-0.0159 0.163332,-0.0159 0.245512,-0.12269 c 0.615911,-0.30782 1.257111,-0.95153 1.567185,-1.57334 0.163048,-0.32696 0.353704,-0.92124 0.374177,-1.16631 l 0.01722,-0.20607 -0.03495,0.0342 c -0.03065,0.03 -0.683112,1.43229 -0.683112,1.4682 0,0.008 -0.01546,0.055 -0.03435,0.10524 l -0.03435,0.0914 -0.05619,-0.0464 c -0.123149,-0.10176 -0.826407,-1.6831 -0.924895,-2.07971 -0.02567,-0.10338 -0.04678,-0.33404 -0.04691,-0.5126 l -2.37e-4,-0.32464 0.06428,-0.13669 0.06428,-0.13669 0.540732,-0.5389 0.540731,-0.5389 -0.07856,-0.14456 c -0.04321,-0.0795 -0.13231,-0.21376 -0.198003,-0.29834 -0.06569,-0.0846 -0.123555,-0.15951 -0.128584,-0.16653 -0.005,-0.007 -0.25692,0.0307 -0.559759,0.0837 l -0.550617,0.0965 -0.658978,0.002 -0.658979,0.002 -0.1993094,-0.0622 -0.1993101,-0.0622 -0.096385,-0.0975 -0.096386,-0.0975 v -0.12448 c 0,-0.14655 0.031316,-0.2143 0.2069989,-0.44778 0.072016,-0.0957 0.1309387,-0.18949 0.1309387,-0.2084 0,-0.0189 -0.064478,-0.0636 -0.1432835,-0.0994 -0.2296975,-0.10419 -0.6603759,-0.44273 -0.9907629,-0.77881 l -0.3060998,-0.31137 -0.094794,-0.19618 -0.094795,-0.19619 0.021794,-0.11747 c 0.011986,-0.0646 0.047921,-0.14932 0.079854,-0.18824 l 0.05806,-0.0708 0.1833115,-0.0344 c 0.2082898,-0.0391 0.2512704,-0.0629 1.0163667,-0.56164 1.2774639,-0.83276 2.2414349,-1.20322 3.3371329,-1.28249 l 0.413974,-0.0299 0.413973,0.0298 c 0.227686,0.0164 0.5508382,0.0625 0.7181172,0.10242 0.16728,0.04 0.412058,0.0813 0.543951,0.0918 l 0.239808,0.0191 0.233305,-0.0777 c 0.689529,-0.22965 1.33046,-0.69555 1.90127,-1.38206 0.142054,-0.17085 0.27252,-0.318 0.289924,-0.32701 0.01741,-0.009 0.04483,0.0374 0.06094,0.10323 0.07984,0.32601 0.249061,0.79725 0.374273,1.04228 l 0.139704,0.27338 0.29656,0.31091 0.296559,0.31091 0.0012,0.61176 0.0012,0.61176 0.04731,0.25629 c 0.02602,0.14097 0.08392,0.37303 0.12867,0.51571 l 0.08136,0.25941 -0.07797,0.32153 c -0.209086,0.86224 -0.315977,1.57802 -0.38369,2.56933 l -0.03683,0.53915 0.2146,0.28099 c 0.563168,0.73741 0.632822,1.1279 0.357009,2.00146 -0.238284,0.75468 -1.029335,2.61626 -1.141546,2.68639 -0.04709,0.0294 -0.09746,-0.0635 -0.376008,-0.694 -0.13578,-0.30732 -0.268796,-0.56727 -0.295592,-0.57767 l -0.04872,-0.0189 -0.172298,0.20176 c -0.09476,0.11097 -0.379726,0.4175 -0.633249,0.68118 l -0.46095,0.47942 -0.345903,0.71664 c -0.498513,1.0328 -0.713933,1.33113 -1.105073,1.5304 -0.293127,0.14933 -1.0750032,0.31061 -1.7142442,0.35361 l -0.334099,0.0225 0.01306,-0.0371 c 0.0072,-0.0204 0.149923,-0.20254 0.317202,-0.40478 0.454311,-0.54927 0.658978,-0.81121 0.658978,-0.84338 0,-0.0159 -0.02661,-0.0213 -0.05914,-0.0122 -0.03253,0.009 -0.298074,0.0878 -0.590107,0.17473 -0.292032,0.0869 -0.730207,0.20119 -0.973722,0.25389 -0.243515,0.0527 -0.462648,0.11734 -0.486963,0.14367 -0.02431,0.0263 -0.116842,0.24008 -0.205614,0.47502 -0.287003,0.75956 -0.5233,1.16303 -0.877213,1.49781 -0.247337,0.23397 -0.4133409,0.32117 -0.6428326,0.33769 l -0.1689688,0.0122 -0.135175,-0.0654 z m 0.561003,-0.48956 c 0.06318,-0.022 0.157167,-0.0714 0.208861,-0.10973 0.208078,-0.15425 0.468422,-0.69726 0.700057,-1.46013 l 0.137296,-0.45218 -0.09719,-0.1052 c -0.156078,-0.16893 -0.276554,-0.34642 -0.276554,-0.40743 0,-0.0791 0.01398,-0.0739 0.214741,0.0794 0.211381,0.16138 0.414218,0.23996 0.619405,0.23996 0.346838,0 1.44923,-0.29308 2.139704,-0.56887 1.2332142,-0.49256 2.0135782,-1.1381 2.4142642,-1.99712 0.151218,-0.3242 0.214576,-0.57296 0.263249,-1.03358 l 0.03912,-0.37024 -0.0393,-0.46699 -0.0393,-0.467 -0.0868,-0.35882 c -0.04774,-0.19735 -0.147063,-0.54654 -0.220722,-0.77598 -0.07366,-0.22944 -0.133925,-0.42858 -0.133925,-0.44254 0,-0.0758 0.08059,0.0731 1.520395,2.80756 0.227613,0.43229 0.474418,0.89129 0.548454,1.02001 l 0.134611,0.23403 0.02965,-0.03 c 0.03857,-0.039 0.41116,-0.89699 0.561241,-1.2924 0.0642,-0.16915 0.155649,-0.46902 0.203209,-0.66637 l 0.08647,-0.35881 -1.35e-4,-0.27339 -1.35e-4,-0.27338 -0.07095,-0.22212 c -0.142148,-0.44503 -0.374275,-0.76221 -1.326807,-1.81296 -0.588652,-0.64935 -0.786592,-0.89534 -0.53287,-0.66221 0.399843,0.36738 1.041119,0.9433 1.119512,1.00541 l 0.09293,0.0736 v -0.23741 c 0,-0.55498 -0.237717,-1.5569 -0.523095,-2.20471 -0.285447,-0.64798 -0.574007,-1.08832 -1.031187,-1.57358 -0.618483,-0.65645 -1.377657,-1.07754 -2.29823,-1.27475 l -0.2872272,-0.0615 h -0.608287 -0.608288 l -0.287247,0.061 c -0.701758,0.14896 -1.413682,0.43501 -2.098741,0.84329 -0.490978,0.29261 -1.0102841,0.64495 -1.0102841,0.68546 0,0.0156 0.4051675,0.22922 0.9003721,0.47466 1.029671,0.51032 1.612925,0.82089 1.588337,0.84576 -0.0093,0.009 -0.222238,-0.077 -0.473125,-0.19219 -1.012952,-0.46488 -2.1108406,-0.82152 -2.5309389,-0.82214 l -0.1605203,-2.4e-4 v 0.0566 c 0,0.19495 0.7795249,0.90969 1.4455212,1.32537 0.115705,0.0722 0.210373,0.14229 0.210373,0.15571 0,0.0134 -0.04995,0.092 -0.111001,0.17455 -0.06105,0.0826 -0.138011,0.19333 -0.171025,0.2461 l -0.06003,0.0959 0.01051,0.0903 0.01051,0.0903 0.106915,0.0629 c 0.0588,0.0346 0.203271,0.0789 0.321041,0.0984 l 0.214126,0.0356 0.371731,-0.04 c 0.745671,-0.0803 2.129673,-0.38008 2.751661,-0.59608 0.138009,-0.0479 0.264365,-0.0872 0.280793,-0.0872 0.08786,0 -0.05777,0.0952 -0.400518,0.26185 -0.211558,0.10285 -0.384651,0.20044 -0.384651,0.21686 0,0.0516 0.06172,0.0723 0.364529,0.12198 0.5190812,0.0852 0.8669682,0.0534 1.2146112,-0.11123 l 0.176701,-0.0837 0.09871,-0.1211 c 0.05429,-0.0666 0.119022,-0.19251 0.143845,-0.27979 l 0.04513,-0.15869 -0.0062,-0.24553 c -0.0078,-0.30972 -0.09966,-0.70582 -0.318106,-1.37128 -0.246284,-0.75027 -0.193221,-0.7284 0.15699,0.0647 0.219148,0.49631 0.347489,0.85409 0.428037,1.19327 l 0.06898,0.29047 0.0043,0.35881 0.0043,0.35882 -0.08064,0.1662 -0.08064,0.16619 -0.15565,0.10007 c -0.08561,0.055 -0.262101,0.13124 -0.392207,0.16934 -0.397146,0.11632 -0.521741,0.16965 -0.57455,0.24589 l -0.05063,0.0731 -3.04e-4,0.1718 c -1.69e-4,0.0945 0.04807,0.42286 0.107197,0.7297 l 0.107509,0.55789 0.09394,0.14979 c 0.116943,0.18647 0.316229,0.33479 0.583915,0.43459 l 0.20604,0.0768 -0.110533,0.0108 c -0.137096,0.0133 -0.465666,-0.0806 -0.586709,-0.16776 -0.185003,-0.13321 -0.197463,-0.093 -0.197089,0.63542 l 2.7e-4,0.54676 0.06864,0.15378 c 0.08775,0.19657 0.298832,0.41569 0.549291,0.57018 l 0.196996,0.12152 0.02694,-0.0297 c 0.04812,-0.0531 0.164329,-0.43625 0.22727,-0.74928 l 0.06147,-0.30566 v -0.79452 c 0,-0.43699 0.01082,-0.79453 0.02404,-0.79452 0.06219,10e-6 0.183438,0.65174 0.235414,1.26542 l 0.04034,0.47629 -0.03872,0.33376 c -0.06398,0.55146 -0.277393,1.1084 -0.599272,1.56395 -0.136541,0.19324 -0.518618,0.59362 -0.743202,0.7788 -0.20709,0.17075 -0.7025562,0.47752 -1.0054432,0.62252 -0.440015,0.21065 -1.693666,0.66745 -1.826528,0.66556 -0.02227,-3.1e-4 0.225628,-0.14021 0.550893,-0.31088 1.713737,-0.89917 2.4777042,-1.53144 2.9207842,-2.41729 0.105658,-0.21125 0.09751,-0.26317 -0.04628,-0.2951 -0.05715,-0.0127 -0.193973,-0.0839 -0.304038,-0.15822 l -0.20012,-0.13513 -0.10377,-0.15843 c -0.05707,-0.0871 -0.103771,-0.17116 -0.103771,-0.18673 0,-0.0156 -0.01575,-0.0283 -0.03499,-0.0283 -0.0506,0 -0.16374,0.28095 -0.244175,0.60632 l -0.06963,0.28168 0.04104,0.18546 0.04104,0.18545 0.169994,0.24478 c 0.0935,0.13463 0.160931,0.25394 0.149856,0.26514 -0.03749,0.0379 -0.354148,-0.32948 -0.4511002,-0.52336 l -0.09634,-0.19267 -0.215936,0.30229 c -0.267688,0.37475 -0.68189,0.7914 -1.025481,1.03156 -0.401997,0.28099 -1.371109,0.71409 -1.529022,0.68334 l -0.06169,-0.012 0.352003,-0.18714 c 1.513351,-0.80455 2.288888,-1.74904 2.623879,-3.19548 l 0.06331,-0.27338 -2.37e-4,-0.61511 -2.36e-4,-0.61512 -0.04498,-0.25629 c -0.06635,-0.37805 -0.1702442,-0.78226 -0.2459312,-0.95684 -0.101601,-0.23436 -0.42782,-0.54677 -0.570939,-0.54677 h -0.03775 l 0.02366,0.0769 c 0.01301,0.0423 0.07635,0.19222 0.140738,0.33319 0.166604,0.36472 0.33979,0.90377 0.379401,1.18092 0.04301,0.30092 0.04319,1.08163 3.38e-4,1.41621 -0.06583,0.51388 -0.358296,1.23659 -0.72602,1.79408 -0.358638,0.54371 -0.857568,1.00838 -1.357205,1.26401 l -0.242591,0.12412 -0.393619,0.0984 c -0.425723,0.10647 -0.453239,0.12127 -0.596861,0.32119 l -0.09577,0.13327 v -0.0864 c 0,-0.0475 -0.02006,-0.10322 -0.04458,-0.12379 -0.05948,-0.0499 -0.419508,-0.13248 -0.8435084,-0.19344 l -0.345379,-0.0496 -0.5643144,-6.2e-4 -0.5643148,-6.3e-4 -0.3819103,0.0513 c -0.210051,0.0282 -0.4648431,0.0738 -0.5662048,0.10126 -0.1013618,0.0275 -0.1891707,0.045 -0.1951308,0.039 -0.046298,-0.0468 0.3612923,-0.19105 0.78495,-0.27777 0.565457,-0.11574 1.7861556,-0.11638 2.3937535,-0.001 0.319921,0.0606 0.461819,0.0673 0.461819,0.0219 0,-0.0744 -1.0396446,-0.34968 -1.5682593,-0.41528 l -0.3347873,-0.0415 -0.442469,0.0204 -0.4424694,0.0204 -0.2196594,0.056 c -0.1208127,0.0308 -0.361138,0.12454 -0.5340563,0.20828 l -0.3143969,0.15226 -0.1671641,0.16294 -0.1671641,0.16293 v 0.0917 0.0917 l 0.071713,0.0725 c 0.096096,0.0972 0.5252401,0.29622 1.0563317,0.48995 0.4785203,0.17456 0.8081449,0.33288 1.022618,0.49116 l 0.1399342,0.10327 0.090911,0.1879 0.090911,0.1879 0.079704,0.40495 c 0.1003526,0.50987 0.1185681,0.55668 0.2897156,0.74443 0.1506741,0.1653 0.3138186,0.28017 0.4619758,0.32528 0.1268641,0.0386 0.1193443,0.0388 0.2479365,-0.006 z M 5.2772451,295.4705 c 0.1659476,-0.40162 0.9051177,-1.25166 1.0884107,-1.25166 h 0.04766 v 0.0979 c 0,0.12812 -0.0726,0.21687 -0.42467,0.51913 -0.160624,0.1379 -0.3761792,0.3515 -0.4790109,0.47467 -0.1028317,0.12317 -0.2083753,0.23663 -0.2345411,0.25212 l -0.047574,0.0282 z m -0.6887958,-1.47558 c 0,-0.0104 0.096245,-0.0644 0.2138787,-0.12009 0.2758564,-0.13054 0.8263698,-0.27202 1.0937368,-0.28109 l 0.209319,-0.007 0.03679,0.037 c 0.06229,0.0626 0.0016,0.14517 -0.145819,0.19819 l -0.140644,0.0506 -0.4055247,0.0201 c -0.2230388,0.0111 -0.4891646,0.0427 -0.5913907,0.0703 -0.1990993,0.0538 -0.2703501,0.0622 -0.2703501,0.0321 z m 9.0237677,-3.25552 c -0.120353,-0.21955 -0.263568,-0.48833 -0.318254,-0.59728 l -0.09943,-0.19809 0.04996,-0.0505 c 0.02748,-0.0278 0.14677,-0.0663 0.265094,-0.0856 0.118325,-0.0193 0.229275,-0.0439 0.246558,-0.0547 l 0.03142,-0.0196 -0.04363,-0.0273 c -0.024,-0.015 -0.173888,-0.0457 -0.333097,-0.0683 -0.159209,-0.0226 -0.332272,-0.0631 -0.384584,-0.0901 l -0.09511,-0.0491 -0.132994,-0.2781 c -0.07315,-0.15295 -0.132994,-0.29917 -0.132994,-0.32492 v -0.0468 l 0.07604,0.0233 c 0.04182,0.0128 0.25685,0.0911 0.477845,0.17408 0.220995,0.083 0.408566,0.14398 0.416823,0.13563 0.0141,-0.0143 -0.247677,-0.17493 -0.89122,-0.54702 l -0.275351,-0.15921 -0.05553,-0.24677 c -0.03054,-0.13573 -0.06482,-0.31392 -0.07617,-0.39599 l -0.02064,-0.14921 0.08117,0.0431 c 0.04464,0.0237 0.347295,0.22244 0.67256,0.44163 0.671864,0.45275 0.675875,0.45533 0.675875,0.43484 0,-0.008 -0.307946,-0.29885 -0.684324,-0.64565 -0.376378,-0.3468 -0.706112,-0.67194 -0.732744,-0.72252 l -0.04842,-0.092 0.03943,-0.3813 c 0.02168,-0.20971 0.05254,-0.39456 0.06856,-0.41076 l 0.02914,-0.0295 0.444827,0.46579 c 0.591825,0.61971 1.168781,1.28537 1.326294,1.5302 l 0.127882,0.19878 0.0399,0.19421 0.0399,0.19421 -0.0224,0.3004 c -0.01232,0.16523 -0.06048,0.44971 -0.107037,0.6322 -0.112326,0.44033 -0.350775,1.18915 -0.398484,1.2514 l -0.03804,0.0496 z m -1.959749,-4.57464 c -6.18e-4,-0.0223 0.03687,-0.19914 0.08332,-0.39299 l 0.08444,-0.35245 -2.02e-4,-0.20504 c -2.03e-4,-0.2329 -0.08411,-0.61101 -0.234453,-1.05669 -0.05657,-0.16769 -0.09625,-0.31156 -0.08819,-0.31971 0.02367,-0.0239 0.323741,0.46646 0.451305,0.73757 l 0.117472,0.24966 0.01647,0.23273 0.01647,0.23273 -0.05961,0.18398 c -0.104658,0.32301 -0.383415,0.82014 -0.387018,0.69021 z m -5.1039812,-0.2678 c 0.263367,-0.15074 0.353171,-0.23022 0.406085,-0.3594 l 0.03979,-0.0971 -0.03922,-0.12018 -0.03922,-0.12017 -0.18737,-0.17317 c -0.208992,-0.19315 -0.580114,-0.42413 -1.1273514,-0.70166 -0.200965,-0.10192 -0.3750789,-0.20116 -0.3869195,-0.22053 l -0.021529,-0.0352 h 0.047584 c 0.080456,0 0.9581359,0.26774 1.3030469,0.3975 0.757156,0.28485 1.448686,0.68172 1.625576,0.93293 l 0.07584,0.10769 -0.02075,0.0836 -0.02075,0.0836 -0.139546,0.072 c -0.07675,0.0396 -0.285606,0.11003 -0.464123,0.15653 l -0.324578,0.0846 -0.473113,0.0174 -0.473112,0.0174 z m 1.983158,-0.10684 c -0.01248,-0.0126 -0.01432,-0.14734 -0.0041,-0.29938 l 0.01858,-0.27646 -0.04471,-0.0854 -0.04471,-0.0854 -0.279245,-0.16699 c -0.153585,-0.0919 -0.272312,-0.174 -0.263839,-0.18257 0.02705,-0.0274 0.398708,0.0956 0.600905,0.19884 0.22626,0.1155 0.289589,0.19763 0.31885,0.41351 l 0.02112,0.15583 -0.03954,0.12114 c -0.02174,0.0666 -0.05777,0.13587 -0.08005,0.15387 -0.06026,0.0487 -0.177371,0.0793 -0.203259,0.0531 z m 4.1811542,-1.8596 c -0.714985,-0.66713 -1.525204,-1.20314 -1.889402,-1.24996 l -0.135175,-0.0174 -0.523803,0.10436 c -0.5442912,0.10845 -0.9137872,0.15505 -1.5269492,0.19259 l -0.361064,0.0221 -0.06136,0.0458 -0.06136,0.0458 0.04426,0.045 0.04426,0.045 0.783687,-0.003 0.783688,-0.003 -0.304144,0.097 c -0.271836,0.0867 -0.458133,0.11961 -1.313853,0.23233 l -0.232453,0.0306 -0.195389,0.12195 -0.19539,0.12195 -0.201122,0.0213 -0.201123,0.0213 -0.02206,-0.0361 -0.02206,-0.0361 0.06808,-0.0219 c 0.0691,-0.0222 0.09663,-0.11976 0.03379,-0.11976 -0.04857,0 -0.168487,-0.20875 -0.166852,-0.29047 l 0.0014,-0.0683 0.06259,0.11964 c 0.03442,0.0658 0.09579,0.15003 0.136381,0.18717 l 0.0738,0.0675 h 0.132594 0.132594 l 0.103769,-0.10493 0.103768,-0.10493 0.01876,-0.1414 0.01875,-0.1414 -0.04273,-0.10432 c -0.0235,-0.0574 -0.08074,-0.13456 -0.127199,-0.17151 l -0.08447,-0.0672 -0.105273,1.3e-4 c -0.137307,1.7e-4 -0.318195,0.11348 -0.369084,0.23121 l -0.04033,0.0933 -0.07604,0.008 -0.07604,0.008 v -0.068 -0.068 l 0.137257,-0.13469 c 0.07549,-0.0741 0.185744,-0.14978 0.245005,-0.1682 l 0.107747,-0.0335 1.013813,-0.0171 1.013812,-0.0171 0.321041,-0.0522 c 0.3482202,-0.0566 0.5407002,-0.11356 0.5407002,-0.16007 0,-0.0365 -0.175221,-0.0849 -0.5069062,-0.13991 l -0.253454,-0.0421 -0.59139,-0.002 c -0.325265,-0.001 -0.705445,0.009 -0.844844,0.0213 l -0.253453,0.0233 0.168969,-0.0807 c 0.09293,-0.0444 0.286183,-0.10485 0.429445,-0.13439 l 0.260477,-0.0537 h 0.386695 0.386694 l 0.383538,0.0664 c 0.4390922,0.076 0.9928112,0.25957 1.3128672,0.43518 0.523893,0.28746 1.313826,0.93248 1.646923,1.34478 0.223281,0.27638 0.331703,0.44321 0.288039,0.44321 -0.01744,0 -0.19762,-0.1548 -0.400395,-0.34401 z m -5.5137822,-0.51488 -0.04224,-0.0433 v -0.17917 -0.17918 l 0.07511,-0.0532 c 0.100756,-0.0714 0.168766,-0.067 0.27517,0.0176 l 0.08904,0.0708 v 0.13342 0.13342 l -0.0778,0.0516 c -0.04279,0.0284 -0.122629,0.0605 -0.177417,0.0714 l -0.09962,0.0198 z m 2.514277,11.41748 0.4004342,-0.0692 0.202763,-0.097 c 0.257313,-0.12311 0.403273,-0.27365 0.586482,-0.6049 0.167647,-0.30312 0.378964,-0.7749 0.357025,-0.79709 -0.01732,-0.0175 0.0025,-0.0421 -0.450246,0.55752 -0.193371,0.25608 -0.356768,0.46036 -0.363105,0.45395 -0.0063,-0.006 0.03394,-0.14765 0.0895,-0.31387 0.05556,-0.16622 0.09471,-0.3086 0.087,-0.31641 -0.0077,-0.008 -0.144408,0.164 -0.303763,0.38178 -0.159355,0.21778 -0.297634,0.39596 -0.307288,0.39596 -0.0097,0 0.0067,-0.0577 0.03633,-0.12814 0.22244,-0.52906 0.195017,-0.54687 -0.1542812,-0.10018 -0.15608,0.19959 -0.289274,0.35734 -0.295988,0.35056 -0.0067,-0.007 0.03431,-0.11609 0.09116,-0.24288 0.119871,-0.26734 0.122482,-0.27945 0.04672,-0.21672 -0.09353,0.0774 -0.551637,0.71436 -0.551637,0.76696 v 0.0488 h 0.06423 c 0.03533,0 0.244425,-0.0311 0.464664,-0.0692 z m -0.881285,-4.81755 c 0.12446,-0.21614 0.300955,-0.54676 0.392211,-0.73471 l 0.165919,-0.34173 -0.0099,-0.15111 c -0.0055,-0.0831 -0.02514,-0.15521 -0.04373,-0.16022 -0.01859,-0.005 -0.09083,0.0665 -0.160531,0.159 l -0.126737,0.16812 -0.08447,0.0214 c -0.08789,0.0223 -0.108724,0.0632 -0.05068,0.0995 0.01859,0.0116 0.03373,0.0471 0.03365,0.0789 -1.71e-4,0.0689 -0.37004,0.75833 -0.406855,0.75833 -0.06015,0 -0.167495,-0.72567 -0.167495,-1.13234 0,-0.12571 0.0228,-0.34905 0.05066,-0.49631 l 0.05066,-0.26776 0.205718,-0.43344 c 0.113144,-0.2384 0.200599,-0.45789 0.194343,-0.48776 l -0.01137,-0.0543 -0.12387,0.0854 c -0.171402,0.11816 -0.635977,0.68936 -0.756529,0.93015 l -0.09962,0.19898 6.59e-4,0.35881 6.59e-4,0.35882 0.09275,0.26698 c 0.120891,0.348 0.449482,1.07885 0.520961,1.15872 0.03073,0.0343 0.06746,0.0505 0.08161,0.036 0.01416,-0.0145 0.12757,-0.20328 0.252031,-0.41943 z m 5.6851552,-4.67314 c 0.07899,-0.44638 0.14322,-0.82086 0.142725,-0.83217 -4.97e-4,-0.0113 -0.123138,-0.0301 -0.272539,-0.0418 -0.149401,-0.0116 -0.29548,-0.0347 -0.324621,-0.0512 l -0.05298,-0.03 0.20285,-0.0403 c 0.111567,-0.0222 0.253845,-0.075 0.316173,-0.1174 l 0.113323,-0.077 0.01053,-0.0736 c 0.0058,-0.0405 -0.03816,-0.24652 -0.09767,-0.45781 l -0.108204,-0.38415 -0.0206,-0.41922 -0.0206,-0.41922 -0.235969,0.18502 c -0.129782,0.10177 -0.375703,0.25853 -0.546488,0.34836 l -0.310521,0.16334 -0.02801,-0.0302 -0.02801,-0.0301 0.04244,-0.0153 c 0.07772,-0.0281 0.427984,-0.30205 0.639614,-0.50032 l 0.208941,-0.19575 0.07225,-0.15093 0.07225,-0.15092 -0.0287,-0.0519 c -0.01579,-0.0285 -0.07895,-0.0893 -0.140357,-0.13517 -0.220441,-0.16446 -0.412341,-0.51026 -0.594569,-1.0714 -0.05035,-0.15506 -0.103875,-0.28193 -0.118934,-0.28193 -0.01506,0 -0.136454,0.13098 -0.269767,0.29107 -0.471544,0.56625 -0.972273,0.91361 -1.665789,1.15558 -0.03253,0.0113 -0.05914,0.0341 -0.05914,0.0507 0,0.0165 0.155874,0.13475 0.346386,0.26274 0.77921,0.52348 1.179133,0.93242 1.695121,1.73334 0.348994,0.54171 0.632682,1.2203 0.814636,1.94863 0.03169,0.12687 0.06775,0.23067 0.08012,0.23067 0.01237,0 0.08712,-0.36523 0.166117,-0.81161 z m -0.431165,-0.41494 c -0.02227,-0.0544 -0.03552,-0.14279 -0.02944,-0.1965 l 0.01104,-0.0977 0.08046,-0.0115 c 0.103591,-0.0148 0.308166,0.0238 0.308166,0.0581 0,0.0146 -0.04942,0.0485 -0.10983,0.0753 l -0.10983,0.0489 -0.03233,0.11106 c -0.03985,0.13689 -0.06606,0.1396 -0.118233,0.0122 z m -0.170473,-1.01346 c -0.08364,-0.0265 -0.197694,-0.0859 -0.253454,-0.1319 l -0.101381,-0.0837 0.07744,-0.14991 c 0.07968,-0.15425 0.564774,-0.66923 0.598383,-0.63525 0.01035,0.0105 -0.03483,0.13223 -0.100393,0.27057 -0.123758,0.26114 -0.146853,0.41894 -0.07524,0.51407 0.023,0.0306 0.11674,0.1036 0.208304,0.16232 l 0.16648,0.10676 -0.184033,-0.002 c -0.101218,-10e-4 -0.252466,-0.0241 -0.336105,-0.0506 z m -1.233651,-1.30195 -0.05348,-0.0541 0.02293,-0.15838 c 0.02592,-0.17903 0.189747,-0.67015 0.29222,-0.87601 0.113374,-0.22775 0.335141,-0.60412 0.348193,-0.59092 0.0067,0.007 -0.03418,0.15794 -0.09093,0.33583 l -0.103185,0.32344 -0.005,0.22954 -0.005,0.22954 0.07709,0.078 0.07709,0.078 0.17636,-0.005 c 0.097,-0.003 0.264928,-0.0309 0.373179,-0.063 0.108251,-0.0321 0.205463,-0.0496 0.216026,-0.0389 0.08815,0.0891 -0.721244,0.46944 -1.16345,0.54666 l -0.108522,0.019 z"
       id="path1449"
       inkscape:connector-curvature="0" />
  </g>
</svg>
