<?xml version="1.0" encoding="UTF-8" standalone="no"?>
<svg
   xmlns:dc="http://purl.org/dc/elements/1.1/"
   xmlns:cc="http://creativecommons.org/ns#"
   xmlns:rdf="http://www.w3.org/1999/02/22-rdf-syntax-ns#"
   xmlns:svg="http://www.w3.org/2000/svg"
   xmlns="http://www.w3.org/2000/svg"
   xmlns:sodipodi="http://sodipodi.sourceforge.net/DTD/sodipodi-0.dtd"
   xmlns:inkscape="http://www.inkscape.org/namespaces/inkscape"
   width="64"
   height="65"
   viewBox="0 0 16.933333 17.197917"
   version="1.1"
   id="svg822"
   inkscape:version="0.92.4 (5da689c313, 2019-01-14)"
   sodipodi:docname="testk.svg">
  <defs
     id="defs816" />
  <sodipodi:namedview
     id="base"
     pagecolor="#ffffff"
     bordercolor="#666666"
     borderopacity="1.0"
     inkscape:pageopacity="0"
     inkscape:pageshadow="2"
     inkscape:zoom="5.6"
     inkscape:cx="52.176539"
     inkscape:cy="27.896431"
     inkscape:document-units="mm"
     inkscape:current-layer="layer1"
     showgrid="false"
     units="px"
     inkscape:pagecheckerboard="true"
     inkscape:window-width="1920"
     inkscape:window-height="1017"
     inkscape:window-x="-8"
     inkscape:window-y="-8"
     inkscape:window-maximized="1" />
  <metadata
     id="metadata819">
    <rdf:RDF>
      <cc:Work
         rdf:about="">
        <dc:format>image/svg+xml</dc:format>
        <dc:type
           rdf:resource="http://purl.org/dc/dcmitype/StillImage" />
        <dc:title></dc:title>
      </cc:Work>
    </rdf:RDF>
  </metadata>
  <g
     inkscape:label="Layer 1"
     inkscape:groupmode="layer"
     id="layer1"
     transform="translate(0,-279.80207)"
     style="display:inline">
    <path
       style="fill:#000000;stroke-width:0.2645863"
       d=""
       id="path1426"
       inkscape:connector-curvature="0" />
    <g
       id="g1462"
       transform="translate(-0.16157354,0.09460909)"
       style="stroke:#ffffff;fill:#ffffff">
      <path
         style="fill:#ffffff;stroke-width:0.0359515;stroke:#ffffff"
         d="m 2.4337192,296.73773 c -0.3292335,-0.0559 -0.4480951,-0.12438 -0.6479854,-0.37326 l -0.1730995,-0.21552 0.022284,-0.33192 c 0.017713,-0.26384 0.042358,-0.36462 0.1201421,-0.49131 0.1116125,-0.18178 0.2162005,-0.46121 0.2645783,-0.70688 0.018222,-0.0925 0.059443,-0.24376 0.091602,-0.33605 0.1317094,-0.37799 0.2367529,-1.40915 0.2101913,-2.06335 -0.020669,-0.50906 -0.059739,-0.95142 -0.08728,-0.98819 -0.010285,-0.0137 -0.027724,-0.11398 -0.038753,-0.22277 -0.011029,-0.10878 -0.039372,-0.2386 -0.062984,-0.28849 -0.023613,-0.0499 -0.058925,-0.19281 -0.078472,-0.31761 -0.019547,-0.1248 -0.053395,-0.24164 -0.075218,-0.25965 -0.021823,-0.018 -0.039678,-0.0729 -0.039678,-0.12207 0,-0.16629 -0.062747,-0.24614 -0.2087878,-0.2657 -0.074758,-0.01 -0.1838637,-0.0549 -0.2424565,-0.0997 -0.058593,-0.0448 -0.1661271,-0.10483 -0.2389652,-0.13335 -0.1291897,-0.0506 -0.1632463,-0.0915 -0.41002542,-0.49302 -0.1328731,-0.21616 -0.17986135,-0.64318 -0.18328763,-1.66569 -0.003416,-1.01935 0.0366441,-1.4457 0.17921059,-1.90729 0.0632316,-0.20473 0.11496648,-0.40336 0.11496648,-0.4414 0,-0.038 0.0329969,-0.1204 0.0733265,-0.18301 0.04033,-0.0626 0.096201,-0.17261 0.1241597,-0.24447 0.078135,-0.20081 0.2643083,-0.49165 0.3911002,-0.61097 0.06286,-0.0592 0.121074,-0.13679 0.1293645,-0.17251 0.00829,-0.0357 0.050486,-0.0705 0.093767,-0.0774 0.043281,-0.007 0.1400672,-0.0569 0.2150801,-0.11115 0.372906,-0.26991 1.0344401,-0.38781 1.5469555,-0.2757 0.1860572,0.0407 0.6712998,0.35697 0.6712998,0.43754 0,0.0224 0.043603,0.12216 0.096896,0.22162 0.1853747,0.34594 0.171304,1.0772 -0.021528,1.11882 -0.1066299,0.023 -0.093756,0.0835 0.043617,0.20484 0.065441,0.0578 0.1480844,0.15573 0.1836513,0.21759 0.035567,0.0619 0.1244899,0.15013 0.1976065,0.19616 0.073117,0.046 0.1329391,0.1106 0.1329391,0.1435 0,0.0329 0.080137,0.11511 0.1780822,0.18268 0.097945,0.0676 0.1780822,0.14067 0.1780822,0.16245 0,0.0218 0.1328367,0.15462 0.2951922,0.2952 0.2344701,0.20302 0.2955238,0.24119 0.2968037,0.1856 0.00197,-0.0855 0.07082,-0.10964 0.3131242,-0.10964 0.4848367,0 1.052243,0.20833 1.4195537,0.5212 0.1361933,0.11601 0.2476245,0.23033 0.2476245,0.25405 0,0.0237 0.053425,0.13047 0.1187214,0.23723 0.1330239,0.21749 0.1461212,0.29933 0.059361,0.37093 -0.032648,0.0269 -0.059361,0.0556 -0.059361,0.0636 0,0.008 0.089041,0.0463 0.1978691,0.0849 0.108828,0.0386 0.1978691,0.0901 0.1978691,0.11433 0,0.0242 0.027887,0.0632 0.06197,0.0865 0.1703779,0.1167 0.227697,0.37288 0.1351913,0.60421 -0.1191734,0.29802 -0.7569087,0.54467 -1.0060952,0.38912 -0.1020205,-0.0637 -0.140838,-0.0605 -0.140838,0.0117 0,0.11353 -0.2422896,0.2504 -0.6732971,0.38036 -0.271791,0.082 -0.3277829,0.0877 -0.6778881,0.0697 -0.3148691,-0.0162 -0.4235123,-0.0368 -0.6210683,-0.11769 -0.1316926,-0.0539 -0.2609922,-0.0981 -0.2873317,-0.0981 -0.02634,0 -0.1100924,-0.06 -0.1861165,-0.13327 -0.076024,-0.0733 -0.1804487,-0.14653 -0.2320553,-0.16272 -0.051606,-0.0162 -0.1119369,-0.0687 -0.1340679,-0.11679 -0.022131,-0.048 -0.093044,-0.15192 -0.1575856,-0.23085 -0.064541,-0.0789 -0.1173475,-0.17593 -0.1173475,-0.21556 0,-0.0396 -0.018463,-0.12341 -0.041029,-0.18616 -0.099407,-0.27644 0.024642,-0.95141 0.184139,-1.00192 0.034603,-0.011 0.110334,0.0205 0.1810511,0.0752 0.066862,0.0517 0.1134078,0.072 0.103436,0.0451 -0.00997,-0.0269 -0.092453,-0.0904 -0.1832903,-0.14097 -0.090838,-0.0506 -0.1651591,-0.1103 -0.1651591,-0.13269 0,-0.0449 -0.1679603,-0.17699 -0.306259,-0.2408 -0.080274,-0.037 -0.08846,-0.034 -0.087083,0.0327 8.362e-4,0.0405 -0.017074,0.20342 -0.039799,0.36215 -0.022726,0.15874 -0.033091,0.44534 -0.023034,0.63689 0.010057,0.19155 0.018325,0.39582 0.018373,0.45394 4.75e-5,0.0581 0.038324,0.16835 0.085058,0.24496 0.046734,0.0766 0.099507,0.20847 0.1172739,0.29304 0.017767,0.0846 0.058543,0.20215 0.090614,0.26129 0.032071,0.0591 0.068648,0.16771 0.081283,0.24127 0.012635,0.0736 0.048479,0.20584 0.079653,0.29395 0.093002,0.26286 0.2437544,1.02959 0.2819419,1.43397 0.010178,0.10778 0.028574,0.24523 0.040879,0.30546 0.012305,0.0602 0.020626,0.41295 0.018492,0.78385 -0.00552,0.95932 -0.1165471,1.73294 -0.3606593,2.51306 -0.0635,0.20293 -0.1154541,0.40642 -0.1154541,0.45221 0,0.0458 -0.027057,0.12226 -0.060127,0.16994 -0.03307,0.0477 -0.1291797,0.25231 -0.2135774,0.45472 -0.1564039,0.37511 -0.2506271,0.53014 -0.3222076,0.53014 -0.02203,0 -0.087452,0.0257 -0.1453827,0.0572 -0.099511,0.054 -0.5309216,0.13519 -0.7031498,0.13233 -0.043531,-7.2e-4 -0.1859969,-0.0195 -0.3165906,-0.0416 z m 3.5022831,-0.009 c -0.1652583,-0.0156 -0.3398073,-0.14045 -0.4338755,-0.31034 -0.064315,-0.11615 -0.063945,-0.14003 0.00735,-0.47358 0.070727,-0.3309 0.094845,-0.42354 0.1934922,-0.74319 0.022174,-0.0719 0.054932,-0.21882 0.072794,-0.32661 0.017862,-0.10778 0.070013,-0.31354 0.1158911,-0.45725 0.045878,-0.1437 0.1008875,-0.34947 0.1222435,-0.45725 0.05881,-0.2968 0.1997374,-0.86148 0.2608358,-1.04514 0.02988,-0.0898 0.073791,-0.27353 0.09758,-0.40826 0.023789,-0.13472 0.068913,-0.31306 0.1002757,-0.39631 0.07694,-0.20422 0.073601,-0.25437 -0.015656,-0.2351 -0.098579,0.0213 -0.1854924,-0.0959 -0.2220824,-0.29942 -0.016148,-0.0898 -0.054378,-0.21286 -0.084955,-0.27344 -0.036193,-0.0717 -0.055594,-0.2345 -0.055594,-0.4665 0,-0.31909 0.010768,-0.3739 0.1029568,-0.52405 0.1390493,-0.22647 0.455036,-0.49519 0.723265,-0.61509 0.2696045,-0.12052 0.5686698,-0.14565 0.973117,-0.0818 0.4641709,0.0733 0.5958527,0.14327 1.1487437,0.61039 0.4843361,0.40921 0.8119088,0.62248 1.0947408,0.71275 0.07272,0.0232 0.2203,0.077 0.32796,0.1195 0.10766,0.0425 0.235901,0.0773 0.284979,0.0773 0.04908,0 0.192501,0.0224 0.318715,0.0497 0.126214,0.0273 0.300713,0.0505 0.387775,0.0515 0.818634,0.009 1.603873,0.0589 1.701674,0.10794 0.04353,0.0218 0.1673,0.0669 0.275042,0.10011 0.301211,0.0929 0.611855,0.38665 0.704791,0.66643 0.03954,0.11905 0.07161,0.28259 0.07126,0.36342 -0.0011,0.24884 -0.145008,0.73684 -0.271837,0.92168 -0.152333,0.22201 -0.442738,0.78849 -0.443357,0.86483 -2.77e-4,0.0324 -0.04707,0.12496 -0.104019,0.2058 -0.19195,0.27246 -0.408644,0.73165 -0.357717,0.75802 0.02568,0.0133 0.623985,0.0236 1.329571,0.0229 1.646309,-0.002 1.700583,0.008 1.93642,0.32958 0.127809,0.17452 0.156318,0.45712 0.07522,0.74562 -0.03712,0.13204 -0.0855,0.20284 -0.193826,0.28364 -0.126389,0.0943 -0.180578,0.11039 -0.435312,0.12954 -0.160024,0.012 -1.26179,0.0171 -2.448369,0.0113 l -2.157415,-0.0106 -0.196943,-0.10769 c -0.184648,-0.10097 -0.203423,-0.12442 -0.30074,-0.3756 -0.06703,-0.173 -0.09281,-0.29105 -0.07278,-0.33323 0.01706,-0.0359 0.112614,-0.22469 0.21234,-0.41947 0.09973,-0.19478 0.181408,-0.37849 0.181514,-0.40826 1.19e-4,-0.0298 0.06447,-0.15699 0.143022,-0.28274 0.237026,-0.3794 0.444581,-0.79489 0.471732,-0.94432 0.02367,-0.13026 0.01657,-0.14634 -0.09301,-0.21074 -0.06525,-0.0383 -0.140244,-0.0697 -0.166659,-0.0697 -0.02642,0 -0.111412,-0.0459 -0.188882,-0.10207 -0.07747,-0.0561 -0.204478,-0.12393 -0.282241,-0.15065 -0.07776,-0.0267 -0.150291,-0.0587 -0.161173,-0.0711 -0.03844,-0.0438 -0.306931,-0.16608 -0.364674,-0.16608 -0.03219,0 -0.09861,-0.0287 -0.147601,-0.0637 -0.04899,-0.0351 -0.171921,-0.0866 -0.2731785,-0.11441 -0.101258,-0.0279 -0.2717127,-0.0874 -0.378788,-0.13221 -0.1070752,-0.0449 -0.2299579,-0.0815 -0.2730724,-0.0815 -0.043114,0 -0.1718271,-0.0377 -0.2860285,-0.0839 l -0.2076391,-0.0838 -0.1783437,0.15733 c -0.2085683,0.18399 -0.453531,0.27229 -0.6560643,0.23649 -0.073552,-0.013 -0.1470108,-0.0414 -0.163242,-0.0631 -0.044886,-0.0599 -0.074158,0.002 -0.1021179,0.21627 -0.013799,0.10572 -0.059022,0.28775 -0.1004953,0.40451 -0.041474,0.11677 -0.090916,0.30783 -0.1098724,0.42459 -0.018956,0.11677 -0.072003,0.32988 -0.1178805,0.47358 -0.045878,0.14371 -0.1001958,0.34947 -0.1207069,0.45725 -0.020511,0.10778 -0.065238,0.28688 -0.099393,0.398 -0.034155,0.11111 -0.077811,0.28748 -0.097012,0.39193 -0.091607,0.49829 -0.2423137,0.88265 -0.3908026,0.9967 -0.1133054,0.087 -0.3892564,0.12739 -0.6819459,0.0998 z m 2.0974124,-6.18126 c 0,-0.018 -0.018859,-0.0327 -0.04191,-0.0327 -0.02305,0 -0.030903,0.0147 -0.017451,0.0327 0.013452,0.018 0.032311,0.0327 0.04191,0.0327 0.0096,0 0.017451,-0.0147 0.017451,-0.0327 z m -3.7001521,-7.25322 c -0.1305936,-0.034 -0.259662,-0.0621 -0.2868186,-0.0623 -0.027157,-2.5e-4 -0.1348222,-0.0511 -0.2392568,-0.11303 -0.1044346,-0.0619 -0.2380375,-0.1277 -0.2968952,-0.14617 -0.058858,-0.0185 -0.1070142,-0.0536 -0.1070142,-0.0781 0,-0.0245 -0.080003,-0.10935 -0.1777845,-0.18861 -0.097781,-0.0793 -0.1779185,-0.16339 -0.1780822,-0.18695 -1.622e-4,-0.0236 -0.045338,-0.12143 -0.1003864,-0.21746 -0.075498,-0.13171 -0.1073808,-0.2558 -0.1297691,-0.50508 -0.028431,-0.31655 -0.024539,-0.34267 0.09242,-0.62037 0.1400682,-0.33256 0.3553698,-0.58966 0.6605064,-0.78872 0.3017248,-0.19684 0.4449356,-0.24332 0.8818024,-0.2862 0.3248821,-0.0319 0.4687302,-0.0304 0.8034064,0.009 0.4312529,0.0501 0.6482698,0.12691 0.8389072,0.29691 0.054414,0.0485 0.1394593,0.10115 0.1889899,0.11694 0.04953,0.0158 0.1012179,0.0546 0.1148618,0.0863 0.013643,0.0317 0.084324,0.12738 0.1570673,0.21261 0.072743,0.0852 0.1497161,0.21925 0.1710503,0.29782 0.021334,0.0786 0.058982,0.1852 0.083661,0.23696 0.056578,0.11866 0.049202,0.38063 -0.019906,0.70698 -0.060827,0.28724 -0.2116989,0.49878 -0.5618224,0.78774 -0.3661607,0.3022 -0.5922261,0.40763 -0.9891049,0.46132 -0.4491058,0.0607 -0.6126688,0.0573 -0.9058324,-0.0191 z"
         id="path1474"
         inkscape:connector-curvature="0" />
      <path
         style="fill:#ffffff;stroke-width:0.0359515;stroke:#ffffff"
         d="m 2.4723788,296.74135 c -0.2870203,-0.0537 -0.4595136,-0.15619 -0.6517875,-0.38742 l -0.1694477,-0.20379 0.022816,-0.33252 c 0.018103,-0.26383 0.043031,-0.36544 0.1206743,-0.4919 0.1116125,-0.18178 0.2162005,-0.46121 0.2645783,-0.70688 0.018222,-0.0925 0.061589,-0.24908 0.09637,-0.34788 0.034781,-0.0988 0.07122,-0.26782 0.080976,-0.3756 0.00976,-0.10778 0.036779,-0.26945 0.060052,-0.35927 0.085177,-0.32872 0.057998,-2.17449 -0.0343,-2.3294 -0.017969,-0.0302 -0.035709,-0.13166 -0.039423,-0.22556 -0.00371,-0.0939 -0.031976,-0.22618 -0.062802,-0.29395 -0.030827,-0.0678 -0.065015,-0.20646 -0.075973,-0.30821 -0.010958,-0.10175 -0.042849,-0.21933 -0.070869,-0.26129 -0.02802,-0.0419 -0.055263,-0.12531 -0.060541,-0.18523 -0.012004,-0.1363 -0.075396,-0.20133 -0.1962409,-0.20133 -0.051561,0 -0.1779057,-0.053 -0.280767,-0.11782 -0.1028613,-0.0648 -0.227673,-0.13057 -0.2773592,-0.14616 -0.049686,-0.0156 -0.090339,-0.0473 -0.090339,-0.0706 0,-0.0232 -0.044253,-0.096 -0.098339,-0.16165 -0.18323228,-0.22255 -0.26338794,-0.44989 -0.32022467,-0.90821 -0.11996838,-0.96742 -0.0444369,-2.16572 0.18092524,-2.87037 0.0654043,-0.2045 0.11891697,-0.41067 0.11891697,-0.45815 0,-0.0475 0.0276227,-0.11887 0.0613837,-0.15865 0.033761,-0.0398 0.093737,-0.14994 0.133279,-0.2448 0.1001592,-0.24026 0.2596948,-0.492 0.3921943,-0.61887 0.061665,-0.0591 0.1234681,-0.13307 0.13734,-0.16451 0.013872,-0.0314 0.04569,-0.0572 0.070707,-0.0572 0.025017,0 0.10921,-0.0462 0.1870962,-0.10261 0.1631404,-0.11822 0.4564747,-0.23201 0.7751107,-0.30068 0.2193966,-0.0473 0.5819892,-0.0324 0.8589076,0.0352 0.1135565,0.0277 0.5498876,0.34308 0.5498876,0.39743 0,0.0188 0.046171,0.11906 0.1026024,0.22286 0.08734,0.16066 0.1035286,0.23975 0.1088281,0.53167 0.00749,0.41256 -0.02122,0.51418 -0.1573325,0.55689 -0.1005603,0.0316 -0.1010267,0.0333 -0.033346,0.12132 0.037753,0.0491 0.1072543,0.12606 0.1544482,0.17097 0.047194,0.0449 0.1116694,0.12435 0.1432789,0.17654 0.03161,0.0522 0.115348,0.13303 0.1860855,0.17964 0.070737,0.0466 0.1286141,0.10921 0.1286149,0.13912 8e-7,0.0299 0.080138,0.1126 0.1780834,0.18375 0.097945,0.0712 0.1780822,0.14467 0.1780822,0.16337 0,0.0528 0.5949437,0.56199 0.6566124,0.56199 0.033223,0 0.051073,-0.0289 0.045356,-0.0735 -0.00857,-0.0668 0.00945,-0.0744 0.1990923,-0.0834 0.1146854,-0.005 0.3194799,0.013 0.455099,0.0411 0.2807572,0.0581 0.8119332,0.27061 0.8602355,0.34424 0.017735,0.027 0.1047689,0.10795 0.1934083,0.1798 0.088639,0.0718 0.1614624,0.14943 0.1618284,0.1724 3.562e-4,0.023 0.054091,0.1291 0.1193875,0.23586 0.1403628,0.22948 0.1508032,0.3258 0.037956,0.35015 -0.1181097,0.0255 -0.077141,0.0801 0.1294661,0.17242 0.1914392,0.0856 0.3317553,0.20723 0.4399279,0.38138 0.052564,0.0846 0.057241,0.13515 0.025355,0.27391 -0.021503,0.0936 -0.039097,0.17545 -0.039097,0.18192 0,0.006 -0.064306,0.0705 -0.142903,0.14233 -0.1074984,0.0982 -0.2049156,0.14635 -0.3932023,0.19435 l -0.2502993,0.0638 -0.2102984,-0.0957 c -0.2382578,-0.1084 -0.3850252,-0.13096 -0.2358101,-0.0362 0.054873,0.0348 0.087308,0.0845 0.07886,0.12067 -0.020375,0.0873 -0.2779408,0.2185 -0.6507804,0.33146 -0.3188502,0.0966 -0.3223291,0.0969 -0.7123287,0.0585 -0.2754964,-0.0272 -0.453571,-0.0644 -0.5994821,-0.12528 -0.1141625,-0.0477 -0.225097,-0.0867 -0.2465211,-0.0867 -0.021424,0 -0.1128206,-0.0661 -0.2031031,-0.14697 -0.090283,-0.0808 -0.1890359,-0.14697 -0.2194507,-0.14697 -0.030415,0 -0.073286,-0.039 -0.095268,-0.0868 -0.021983,-0.0477 -0.092775,-0.15134 -0.1573158,-0.23027 -0.064541,-0.0789 -0.1173474,-0.16849 -0.1173474,-0.19903 0,-0.0305 -0.025503,-0.15613 -0.056674,-0.27908 -0.061383,-0.24213 -0.039182,-0.45257 0.078629,-0.7453 0.071836,-0.1785 0.121714,-0.19342 0.2550617,-0.0763 0.089887,0.079 0.1978691,0.1092 0.1978691,0.0554 0,-0.0379 -0.2447175,-0.22197 -0.326484,-0.24561 -0.03809,-0.011 -0.069254,-0.0397 -0.069254,-0.0636 0,-0.0514 -0.2268691,-0.23416 -0.326484,-0.26297 -0.03809,-0.011 -0.069254,-0.0471 -0.069254,-0.0803 0,-0.0687 -0.2226443,-0.25886 -0.2635687,-0.22508 -0.014823,0.0122 0.00951,0.0553 0.054074,0.0956 0.1202141,0.10884 0.185157,0.29911 0.1307353,0.38304 -0.026903,0.0415 -0.045254,0.28044 -0.047153,0.61398 -0.0043,0.75579 0.00175,0.81833 0.09369,0.96873 0.044572,0.0729 0.095188,0.19973 0.1124792,0.28182 0.017292,0.0821 0.062407,0.20701 0.1002556,0.27762 0.037849,0.0706 0.074671,0.18237 0.081828,0.24838 0.00716,0.066 0.039839,0.18359 0.072629,0.26129 0.03279,0.0777 0.059877,0.17848 0.060194,0.22397 3.166e-4,0.0455 0.027609,0.16306 0.060649,0.26128 0.03304,0.0982 0.068278,0.27602 0.078306,0.3951 0.010028,0.11907 0.033439,0.25135 0.052024,0.29394 0.018585,0.0426 0.037591,0.18649 0.042234,0.31978 0.00464,0.13329 0.018511,0.25578 0.030817,0.27222 0.030397,0.0406 0.029559,1.43369 -9.102e-4,1.51292 -0.013352,0.0347 -0.033487,0.19533 -0.044744,0.35691 -0.011257,0.16159 -0.05432,0.4339 -0.095696,0.60514 -0.041376,0.17124 -0.075241,0.34761 -0.075257,0.39193 -1.58e-5,0.0443 -0.054452,0.2349 -0.1209691,0.42352 -0.066517,0.18861 -0.121572,0.38743 -0.1223439,0.44182 -7.721e-4,0.0544 -0.024964,0.12787 -0.053761,0.1633 -0.028797,0.0354 -0.1205711,0.22609 -0.2039434,0.42369 -0.1766885,0.41876 -0.2441331,0.5389 -0.3025332,0.5389 -0.023288,0 -0.09604,0.0316 -0.1616708,0.0701 -0.1150852,0.0676 -0.5213717,0.15887 -0.6843656,0.15369 -0.043531,-10e-4 -0.1686001,-0.0192 -0.277931,-0.0397 z m 4.4925428,-7.66022 c 0,-0.0258 -0.2527176,-0.16653 -0.2990657,-0.16653 -0.058913,0 0.00144,0.0689 0.11109,0.12689 0.1410795,0.0746 0.1879757,0.0845 0.1879757,0.0396 z m -0.4753758,-0.25635 c -7.756e-4,-0.0387 -0.2811751,-0.17854 -0.3099714,-0.15454 -0.014254,0.0119 0.027508,0.0569 0.092805,0.10015 0.1166751,0.0772 0.2181305,0.10262 0.2171661,0.0544 z m -0.4743959,-0.26331 c 0,-0.0337 -0.2206418,-0.16944 -0.2754144,-0.16944 -0.075586,0 -0.041087,0.0482 0.087565,0.12248 0.1342,0.0774 0.187849,0.0908 0.187849,0.047 z m -0.435312,-0.26452 c 0,-0.0362 -0.2290327,-0.19887 -0.2800532,-0.19887 -0.067232,0 -0.037594,0.0435 0.092078,0.1351 0.1350183,0.0954 0.1879756,0.11336 0.1879756,0.0638 z m -0.4375016,-0.30502 c -0.00277,-0.0515 -0.2306042,-0.20252 -0.26401,-0.17495 -0.027284,0.0225 0.1823233,0.21578 0.2340296,0.21578 0.017694,0 0.031185,-0.0184 0.02998,-0.0408 z m 2.3579953,-0.17714 c -0.078852,-0.0442 -0.1641051,-0.0747 -0.1894525,-0.0677 -0.025347,0.007 0.02298,0.0514 0.107393,0.0988 0.084413,0.0473 0.1696669,0.0778 0.1894522,0.0677 0.019786,-0.0101 -0.028541,-0.0545 -0.1073927,-0.0987 z M 7.0319691,287.5564 c -0.098184,-0.0697 -0.2253428,-0.1057 -0.2253428,-0.0637 0,0.0292 0.292534,0.17889 0.3143408,0.16084 0.01212,-0.01 -0.027929,-0.0537 -0.088998,-0.0971 z m -0.3440642,-0.19475 c 0,-0.0324 -0.2166093,-0.17598 -0.2671233,-0.17704 -0.078658,-0.002 -0.058037,0.0397 0.059361,0.11905 0.1019588,0.0689 0.2077626,0.0984 0.2077626,0.058 z M 6.2504032,287.0611 c -0.00359,-0.0402 -0.2371188,-0.18081 -0.2637532,-0.15883 -0.033415,0.0276 0.1479531,0.18333 0.2134802,0.18333 0.028854,0 0.051477,-0.011 0.050273,-0.0245 z M 3.566631,286.60349 c -0.047814,-0.0737 -0.1977837,-0.18624 -0.2218182,-0.1664 -0.030578,0.0252 0.1535846,0.22275 0.2082592,0.22335 0.03633,4.1e-4 0.040204,-0.0159 0.013559,-0.0569 z m -0.3216484,-0.32422 c 0,-0.0367 -0.1755626,-0.23835 -0.2077626,-0.23859 -0.047195,-3.6e-4 -0.035425,0.0334 0.052695,0.15106 0.074532,0.0995 0.1550677,0.14499 0.1550677,0.0875 z M 2.928392,285.89535 c 0,-0.0383 -0.1705071,-0.24682 -0.201778,-0.24682 -0.053365,0 -0.044094,0.03 0.04671,0.15128 0.069796,0.0932 0.1550677,0.14574 0.1550677,0.0955 z m -0.4011973,-0.57916 c -0.063829,-0.10103 -0.0935,-0.12488 -0.1042261,-0.0838 -0.016862,0.0646 0.1562354,0.31717 0.1789163,0.26101 0.008,-0.0198 -0.025613,-0.0996 -0.07469,-0.17725 z m -0.2264781,-0.40206 c -0.067883,-0.1558 -0.1242272,-0.19231 -0.1242272,-0.0805 0,0.0883 0.1129785,0.26645 0.155281,0.24487 0.018254,-0.009 0.00428,-0.0833 -0.031054,-0.16437 z m 1.7188263,-0.0432 c -0.085174,-0.13331 -0.178253,-0.22473 -0.1796945,-0.17648 -0.0022,0.0736 0.1584936,0.30392 0.1979828,0.28378 0.022862,-0.0117 0.015602,-0.0542 -0.018288,-0.1073 z m -1.6938718,-0.46149 c 0.066791,-0.0887 0.1957932,-0.19996 0.286671,-0.24731 0.1687551,-0.0879 0.1896664,-0.13716 0.041802,-0.0984 -0.1850504,0.0485 -0.4776546,0.33822 -0.4776546,0.473 0,0.0591 0.024619,0.0381 0.1491817,-0.12727 z m 1.3930986,-0.004 c -0.067297,-0.10887 -0.1571966,-0.17248 -0.1571966,-0.11123 0,0.0569 0.1676776,0.27538 0.1990921,0.25936 0.021911,-0.0112 0.00433,-0.0734 -0.041895,-0.14813 z m -0.2759181,-0.25455 c 0,-0.0533 -0.3044431,-0.14318 -0.400065,-0.11814 -0.080347,0.021 -0.064398,0.0315 0.1242633,0.0816 0.2624778,0.0697 0.2758017,0.0715 0.2758017,0.0365 z m 2.5129376,12.57867 c -0.1428081,-0.0172 -0.3164671,-0.14531 -0.4181837,-0.30849 -0.073165,-0.11738 -0.073114,-0.12501 0.00277,-0.40826 0.042529,-0.15876 0.077711,-0.34449 0.078182,-0.41275 4.709e-4,-0.0682 0.025411,-0.16378 0.055422,-0.21229 0.047743,-0.0772 0.07189,-0.17407 0.1603417,-0.64343 0.010156,-0.0539 0.054322,-0.20495 0.098147,-0.3357 0.043825,-0.13075 0.096981,-0.32916 0.1181243,-0.44092 0.021143,-0.11176 0.067391,-0.29754 0.1027732,-0.41285 0.035382,-0.11531 0.079889,-0.29903 0.098904,-0.40826 0.019016,-0.10924 0.062935,-0.27944 0.0976,-0.37824 0.034665,-0.0988 0.072793,-0.26782 0.084729,-0.3756 0.011936,-0.10778 0.046126,-0.24741 0.075976,-0.31028 0.050564,-0.1065 0.1377604,-0.41883 0.1377604,-0.49344 0,-0.0754 -0.080073,0.0157 -0.1191714,0.13555 -0.023196,0.0711 -0.056536,0.12927 -0.07409,0.12927 -0.074525,0 -0.1578259,-0.12566 -0.1840456,-0.27762 -0.015496,-0.0898 -0.052695,-0.21286 -0.082664,-0.27344 -0.034786,-0.0703 -0.054489,-0.23899 -0.054489,-0.4665 0,-0.31848 0.010873,-0.37408 0.1022639,-0.52292 0.1384549,-0.2255 0.415943,-0.46306 0.6846599,-0.58614 0.2657057,-0.1217 0.5545198,-0.1448 0.9778908,-0.0782 0.4589835,0.0722 0.5924716,0.1433 1.1394902,0.60713 0.4787102,0.40591 0.8140592,0.6241 1.0989451,0.71503 0.07272,0.0232 0.2203,0.077 0.32796,0.1195 0.10766,0.0425 0.235332,0.0773 0.283714,0.0773 0.04838,0 0.193638,0.0223 0.322789,0.0497 0.129151,0.0273 0.313124,0.0504 0.408828,0.0512 0.849173,0.008 1.569188,0.0544 1.677812,0.10848 0.04353,0.0217 0.164339,0.0657 0.268462,0.0978 0.293784,0.0906 0.579358,0.35928 0.673697,0.63395 0.04125,0.12009 0.07382,0.28449 0.07239,0.36532 -0.0045,0.25298 -0.14934,0.73873 -0.274868,0.92168 -0.150706,0.21964 -0.442881,0.78844 -0.442881,0.86219 0,0.0309 -0.05333,0.13417 -0.11851,0.22949 -0.161427,0.23606 -0.407036,0.73188 -0.375462,0.75795 0.01411,0.0117 0.614546,0.0235 1.334294,0.0264 1.55863,0.006 1.706508,0.0234 1.900088,0.22176 0.160504,0.16444 0.226264,0.31519 0.22703,0.52046 0.0012,0.31746 -0.137997,0.54156 -0.414929,0.66809 -0.106903,0.0488 -0.353109,0.0542 -2.473363,0.0542 h -2.354643 l -0.199761,-0.11432 c -0.184571,-0.10562 -0.207745,-0.1343 -0.304757,-0.37724 l -0.104996,-0.26294 0.215716,-0.41473 c 0.118644,-0.22811 0.215803,-0.44048 0.215909,-0.47194 1.19e-4,-0.0315 0.06447,-0.16007 0.143022,-0.28582 0.237213,-0.3797 0.444589,-0.79493 0.471798,-0.94468 0.0242,-0.13317 0.01778,-0.14637 -0.110421,-0.22707 -0.07486,-0.0471 -0.164968,-0.0857 -0.200238,-0.0857 -0.03527,0 -0.08105,-0.0257 -0.101735,-0.0571 -0.02069,-0.0314 -0.122509,-0.0939 -0.226276,-0.13881 -0.103766,-0.0449 -0.278501,-0.12942 -0.388299,-0.1878 -0.109799,-0.0584 -0.221509,-0.10615 -0.248246,-0.10615 -0.02674,0 -0.112323,-0.0357 -0.190192,-0.0793 -0.07787,-0.0436 -0.1959268,-0.0892 -0.2623507,-0.10119 -0.066424,-0.012 -0.2190102,-0.0645 -0.3390815,-0.11667 -0.1200714,-0.0521 -0.2547965,-0.0948 -0.2993894,-0.0948 -0.044593,0 -0.1766034,-0.0386 -0.293356,-0.0857 l -0.2122775,-0.0857 -0.1605633,0.15055 c -0.185376,0.17381 -0.4676359,0.29187 -0.6241753,0.26107 -0.1545322,-0.0304 -0.2050082,-0.0751 -0.183296,-0.16227 0.010672,-0.0428 0.029568,-0.11833 0.041991,-0.16773 0.017387,-0.0691 0.011756,-0.081 -0.024456,-0.0517 -0.057481,0.0466 -0.1952659,0.50914 -0.1956917,0.65692 -1.583e-4,0.059 -0.035992,0.1946 -0.079605,0.30145 -0.043614,0.10685 -0.09604,0.30112 -0.1165046,0.43172 -0.020464,0.1306 -0.073146,0.34443 -0.1170712,0.47518 -0.043925,0.13075 -0.097438,0.32916 -0.1189181,0.44092 -0.02148,0.11176 -0.075157,0.32813 -0.1192811,0.48081 -0.044124,0.15269 -0.080649,0.32122 -0.081168,0.37451 -5.184e-4,0.0533 -0.026852,0.15617 -0.05852,0.22863 -0.031668,0.0725 -0.076621,0.21294 -0.099895,0.31219 -0.048281,0.2059 -0.1536015,0.3661 -0.2858433,0.43478 -0.1023308,0.0532 -0.3868333,0.0851 -0.5658162,0.0636 z m 2.0145235,-4.71842 c 0.071834,-0.26252 0.078165,-0.33212 0.027877,-0.30647 -0.030625,0.0156 -0.1311469,0.32658 -0.1854845,0.57379 -0.016676,0.0759 -0.013962,0.0774 0.038279,0.0225 0.030924,-0.0326 0.084622,-0.16295 0.1193281,-0.28979 z m 0.2024545,-0.79765 c 0.06559,-0.22666 0.075021,-0.36642 0.021694,-0.32148 -0.038284,0.0323 -0.1610469,0.43588 -0.1610469,0.5295 0,0.10882 0.08391,-0.0164 0.1393529,-0.20802 z m -1.369638,-0.2202 c 0.056559,-0.21361 0.062552,-0.27678 0.023732,-0.2502 -0.048326,0.0331 -0.1785298,0.43404 -0.1785298,0.54975 0,0.12837 0.085092,-0.0363 0.1547978,-0.29955 z m 1.2875445,-0.42759 c -0.036499,-0.046 -0.091026,-0.0836 -0.1211711,-0.0836 -0.077128,0 -0.069605,0.0208 0.054019,0.1492 0.1233021,0.1281 0.1782867,0.0744 0.067152,-0.0656 z m -0.2947019,-0.18374 c 0,-0.0697 -0.439265,-0.089 -0.5060763,-0.0223 -0.031986,0.0319 0.018629,0.0414 0.2325971,0.0433 0.1504137,10e-4 0.2734792,-0.008 0.2734792,-0.021 z m -3.5220699,-7.13013 c -0.163242,-0.0382 -0.3801493,-0.11716 -0.4820161,-0.17554 -0.1018668,-0.0584 -0.2020984,-0.10614 -0.2227369,-0.10614 -0.020639,0 -0.1119114,-0.0796 -0.2028286,-0.17684 -0.090917,-0.0973 -0.1910282,-0.18498 -0.2224686,-0.19494 -0.03144,-0.01 -0.057564,-0.0443 -0.058051,-0.0763 -4.877e-4,-0.032 -0.050224,-0.14159 -0.110526,-0.24354 -0.08797,-0.14872 -0.1118503,-0.23888 -0.1208265,-0.4562 -0.00615,-0.14896 -0.019323,-0.28171 -0.029266,-0.29499 -0.00994,-0.0133 0.038869,-0.15873 0.108472,-0.32324 0.1492162,-0.35266 0.3739836,-0.62182 0.6768813,-0.81056 0.2867822,-0.1787 0.5034638,-0.25053 0.8927398,-0.29594 0.5953191,-0.0694 1.1961827,0.0512 1.5454557,0.31041 0.1076372,0.0799 0.2157889,0.14522 0.2403365,0.14522 0.024548,0 0.060383,0.0331 0.079634,0.0735 0.019251,0.0404 0.098947,0.14692 0.1771028,0.23668 0.078155,0.0898 0.1421005,0.19616 0.1421005,0.23644 0,0.0403 0.033709,0.14646 0.07491,0.23595 0.063186,0.13724 0.069554,0.19992 0.040691,0.40045 -0.087164,0.60557 -0.1361557,0.69604 -0.5833446,1.07715 -0.3673665,0.31308 -0.5761026,0.4125 -0.9810655,0.46728 -0.4497489,0.0608 -0.6008417,0.0563 -0.9651931,-0.0289 z"
         id="path1472"
         inkscape:connector-curvature="0" />
      <path
         style="fill:#ffffff;stroke-width:0.0359515;stroke:#ffffff"
         d="m 2.5199852,296.75148 c -0.2713111,-0.0555 -0.4962001,-0.19049 -0.663596,-0.39849 l -0.1578088,-0.19608 0.00618,-0.32481 c 0.00518,-0.27209 0.021292,-0.34826 0.099273,-0.4693 0.1187274,-0.18429 0.2480283,-0.54053 0.2692267,-0.74176 0.00905,-0.0859 0.034451,-0.17408 0.05645,-0.19597 0.056064,-0.0558 0.1659189,-0.55398 0.1401137,-0.63542 -0.011719,-0.037 0.00106,-0.10174 0.028402,-0.1439 0.1194672,-0.18423 0.1161667,-2.22844 -0.0039,-2.41359 -0.021283,-0.0328 -0.038696,-0.13361 -0.038696,-0.22398 0,-0.0904 -0.024753,-0.22729 -0.055008,-0.30426 -0.030254,-0.077 -0.064918,-0.21632 -0.077031,-0.30967 -0.012113,-0.0933 -0.049688,-0.21386 -0.083501,-0.26782 -0.033812,-0.054 -0.061477,-0.14294 -0.061477,-0.19773 0,-0.11383 -0.1198743,-0.23024 -0.2371005,-0.23024 -0.043343,0 -0.15874,-0.0504 -0.2564382,-0.11191 -0.097698,-0.0615 -0.2099072,-0.12035 -0.2493536,-0.13069 -0.039446,-0.0103 -0.1005175,-0.0665 -0.1357135,-0.12488 -0.035196,-0.0584 -0.11698095,-0.19429 -0.18174416,-0.30207 -0.21005076,-0.34957 -0.28338957,-0.79751 -0.2844741,-1.73751 -7.866e-4,-0.68177 0.0633636,-1.15153 0.23741874,-1.73857 0.0662031,-0.22329 0.12846678,-0.45817 0.13836372,-0.52197 0.0099,-0.0638 0.052236,-0.17506 0.094086,-0.24724 0.04185,-0.0722 0.1580254,-0.27348 0.2581667,-0.44732 0.2315139,-0.4019 0.529398,-0.66097 0.9465072,-0.82316 0.4075867,-0.15849 0.5950498,-0.18862 0.942152,-0.15143 0.1602125,0.0172 0.3133672,0.0317 0.3403438,0.0322 0.026977,5.5e-4 0.1516341,0.0775 0.2770167,0.17091 0.1747225,0.13022 0.2489295,0.21542 0.3177111,0.36478 0.049359,0.10719 0.1057349,0.21079 0.125281,0.23022 0.057396,0.0571 0.031486,0.81645 -0.029941,0.87752 -0.076972,0.0765 -0.1589289,0.0334 -0.2049994,-0.10777 -0.02231,-0.0684 -0.093736,-0.1713 -0.1587248,-0.22872 -0.064989,-0.0574 -0.1181618,-0.1332 -0.1181618,-0.16841 0,-0.0352 -0.020599,-0.0961 -0.045775,-0.13535 -0.057675,-0.0899 -0.315382,-0.29873 -0.4324142,-0.35042 -0.1251011,-0.0553 -0.5957095,-0.0476 -0.7339334,0.012 -0.2185027,0.0942 -0.4818049,0.39647 -0.4342961,0.49865 0.024603,0.0529 0.1030399,0.0626 0.1030399,0.0127 0,-0.0763 0.2225272,-0.30235 0.3887603,-0.39494 0.1967426,-0.10959 0.2836309,-0.11011 0.6527295,-0.004 0.166983,0.048 0.2006009,0.0739 0.2707827,0.20856 0.044071,0.0845 0.1140997,0.1791 0.1556182,0.21011 0.041519,0.031 0.075488,0.0767 0.075488,0.10161 0,0.0709 0.1433273,0.28169 0.2342292,0.34442 0.045299,0.0313 0.082361,0.0837 0.082361,0.1166 0,0.0329 0.059711,0.11752 0.1326918,0.18812 0.072981,0.0706 0.161382,0.17437 0.1964478,0.23061 0.035066,0.0562 0.1156849,0.13832 0.1791536,0.18239 0.063469,0.0441 0.1271978,0.11083 0.1416197,0.14833 0.014422,0.0375 0.09334,0.11823 0.1753746,0.17939 0.082034,0.0612 0.1874045,0.1623 0.2341567,0.22473 0.1139583,0.15218 0.5797232,0.51832 0.6593457,0.51832 0.048015,0 0.057473,-0.02 0.038709,-0.0817 -0.024384,-0.0802 -0.020631,-0.0817 0.2085877,-0.0817 0.4694682,0 1.1039461,0.2138 1.3361158,0.45023 0.065532,0.0667 0.1507145,0.14054 0.1892951,0.16401 0.038581,0.0235 0.070146,0.0615 0.070146,0.0846 0,0.0231 0.054695,0.13226 0.1215439,0.24266 0.1397399,0.2308 0.1400058,0.33743 9.062e-4,0.36434 -0.093262,0.018 -0.093683,0.0197 -0.020621,0.08 0.041021,0.0338 0.1489753,0.0887 0.2398989,0.1219 0.1173973,0.0429 0.2072239,0.11246 0.309899,0.24013 0.1324829,0.16472 0.1422992,0.19273 0.1172901,0.3346 -0.052342,0.29691 -0.2296979,0.46151 -0.5905799,0.54809 l -0.2121359,0.0509 -0.2138506,-0.0996 c -0.2136412,-0.0995 -0.3459579,-0.12615 -0.3459579,-0.0697 0,0.0165 0.047236,0.0583 0.1049684,0.0931 0.063022,0.0379 0.093321,0.0787 0.075821,0.10203 -0.082579,0.11027 -0.7640209,0.37184 -0.9722658,0.37321 -0.3999418,0.003 -0.7069911,-0.0381 -0.898989,-0.11914 -0.1135456,-0.0479 -0.2327708,-0.0872 -0.2649444,-0.0872 -0.032173,0 -0.1332335,-0.0658 -0.2245778,-0.14624 -0.091344,-0.0804 -0.1982629,-0.15467 -0.2375973,-0.16497 -0.039334,-0.0103 -0.083571,-0.0511 -0.098303,-0.0906 -0.014732,-0.0395 -0.074203,-0.13061 -0.132157,-0.20246 -0.1481355,-0.18366 -0.25405,-0.6528 -0.2039562,-0.9034 0.050407,-0.25217 0.1261987,-0.45202 0.1714257,-0.45202 0.02062,0 0.0904,0.0367 0.1550675,0.0816 0.1236212,0.0859 0.2302259,0.10676 0.2302259,0.0452 0,-0.0294 -0.1507398,-0.16082 -0.3648796,-0.31815 -0.015676,-0.0115 -0.083554,-0.0754 -0.1508391,-0.14186 -0.067285,-0.0665 -0.1568566,-0.12996 -0.1990473,-0.14101 -0.042191,-0.0111 -0.07671,-0.0406 -0.07671,-0.0657 0,-0.0626 -0.2327607,-0.27655 -0.3009032,-0.27655 -0.082345,0 -0.06714,0.0606 0.042099,0.16772 0.1139368,0.11175 0.1689626,0.30311 0.10535,0.36637 -0.027361,0.0272 -0.045518,0.23775 -0.048554,0.56304 -0.0064,0.68532 0.012199,0.86124 0.1108675,1.04877 0.045341,0.0862 0.1048715,0.23752 0.1322903,0.33632 0.027419,0.0988 0.071777,0.20903 0.098575,0.24495 0.026797,0.0359 0.058434,0.13881 0.070304,0.22863 0.01187,0.0898 0.043641,0.20739 0.070602,0.26128 0.026961,0.0539 0.053531,0.16412 0.059044,0.24496 0.00551,0.0808 0.03902,0.21708 0.074459,0.30277 0.035439,0.0857 0.055343,0.16794 0.044231,0.18278 -0.011113,0.0148 -0.00187,0.1064 0.020547,0.20347 0.022413,0.0971 0.056369,0.32346 0.075457,0.5031 0.045828,0.43127 0.068437,1.75402 0.030748,1.79894 -0.016273,0.0194 -0.038117,0.18107 -0.048542,0.35927 -0.010425,0.1782 -0.047197,0.43423 -0.081715,0.56896 -0.034518,0.13472 -0.063925,0.30374 -0.065348,0.3756 -0.00142,0.0718 -0.020292,0.15829 -0.041929,0.19209 -0.050727,0.0792 -0.1884178,0.55463 -0.2071665,0.71528 -0.00795,0.0681 -0.033988,0.1433 -0.057859,0.16704 -0.023871,0.0237 -0.076705,0.1224 -0.1174092,0.21924 -0.040705,0.0968 -0.1295905,0.29443 -0.1975242,0.43909 l -0.1235159,0.263 -0.2870455,0.12003 c -0.3126308,0.13073 -0.5873621,0.17019 -0.8339606,0.11979 z m 4.4770782,-7.66497 c -0.017111,-0.0733 -0.3416459,-0.22348 -0.3924314,-0.18157 -0.043544,0.0359 0.045536,0.11095 0.2218695,0.18683 0.1525044,0.0656 0.1868573,0.0646 0.1705619,-0.005 z m -0.4674538,-0.25219 c 0,-0.0262 -0.079604,-0.0861 -0.176899,-0.13317 -0.2931169,-0.14177 -0.3321031,-0.0264 -0.040757,0.12064 0.1432991,0.0723 0.217656,0.0766 0.217656,0.0125 z m -0.4748859,-0.26148 c 0,-0.0513 -0.2624872,-0.21347 -0.3455637,-0.21347 -0.1015405,0 -0.049876,0.0791 0.1233512,0.18892 0.1316016,0.0834 0.2222125,0.0934 0.2222125,0.0245 z m -0.435312,-0.27541 c 0,-0.045 -0.2722702,-0.23201 -0.3377546,-0.23201 -0.097313,0 -0.065652,0.0769 0.070275,0.17059 0.1262955,0.0871 0.2674798,0.11951 0.2674798,0.0614 z m -0.435312,-0.29568 c 0,-0.0519 -0.2526127,-0.22996 -0.326484,-0.23012 -0.093279,-2e-4 -0.088864,0.0118 0.053567,0.14568 0.1138294,0.107 0.2729173,0.15622 0.2729173,0.0844 z m 2.4842869,-0.10525 c -0.023404,-0.058 -0.3757894,-0.21045 -0.4133759,-0.1789 -0.047982,0.0403 0.2248901,0.21718 0.3350015,0.21718 0.054146,0 0.087295,-0.0162 0.078374,-0.0383 z m -0.5940557,-0.3382 c -0.1381328,-0.106 -0.3072784,-0.15176 -0.3072784,-0.0831 0,0.0559 0.2561411,0.19761 0.3561644,0.19709 0.09627,-5.1e-4 0.094953,-0.004 -0.048886,-0.11395 z m -0.3474581,-0.17059 c -0.00158,-0.0639 -0.2506994,-0.23679 -0.3411085,-0.23679 -0.103499,0 -0.053005,0.0962 0.093671,0.17846 0.145826,0.0818 0.248617,0.10601 0.2474377,0.0583 z m -0.4347061,-0.30046 c 0,-0.0524 -0.2529614,-0.22997 -0.3278763,-0.23013 -0.057446,-1.3e-4 -0.063039,0.0116 -0.02993,0.0626 0.083364,0.12856 0.3578067,0.25703 0.3578067,0.16749 z m -2.6910198,-0.45249 c 0,-0.0324 -0.062329,-0.10878 -0.1385083,-0.16972 -0.1297618,-0.10379 -0.1385084,-0.10618 -0.1385084,-0.0377 0,0.0871 0.1515306,0.26637 0.2250982,0.26637 0.028555,0 0.051918,-0.0265 0.051918,-0.0589 z m -0.3165905,-0.33943 c 0,-0.0639 -0.2042193,-0.28754 -0.2626119,-0.28754 -0.081055,0 -0.065447,0.0689 0.046382,0.20472 0.096842,0.11762 0.2162294,0.16335 0.2162294,0.0828 z m -0.3413009,-0.37894 c 0.033037,-0.0441 -0.1511013,-0.28294 -0.2275181,-0.29508 -0.059061,-0.009 -0.066828,0.002 -0.043205,0.065 0.036474,0.0969 0.1711804,0.25612 0.2166446,0.25612 0.018999,0 0.043334,-0.0117 0.054078,-0.0261 z m -0.2918802,-0.41614 c 0,-0.0771 -0.1546175,-0.30986 -0.219444,-0.33039 -0.031665,-0.01 -0.057841,-0.0497 -0.058169,-0.0882 -7.559e-4,-0.0888 -0.0916,-0.30612 -0.1471249,-0.35194 -0.067521,-0.0557 -0.1020034,0.087 -0.051523,0.21319 0.02416,0.0604 0.078874,0.13596 0.1215854,0.16786 0.042712,0.0319 0.077658,0.089 0.077658,0.12701 0,0.0773 0.1798117,0.31279 0.2388696,0.31279 0.020981,0 0.038147,-0.0226 0.038147,-0.0503 z m 3.3100551,11.22036 c -0.1433858,-0.0368 -0.2473763,-0.1136 -0.3709297,-0.27411 l -0.097793,-0.12705 0.077791,-0.3302 c 0.042785,-0.18162 0.079633,-0.37958 0.081885,-0.43993 0.00225,-0.0603 0.022055,-0.12758 0.044006,-0.14941 0.051127,-0.0508 0.1604651,-0.4777 0.1604651,-0.62646 0,-0.0626 0.024311,-0.15349 0.054024,-0.202 0.055886,-0.0912 0.1355598,-0.41237 0.1605554,-0.64714 0.00787,-0.0739 0.03191,-0.16208 0.053429,-0.19596 0.053799,-0.0847 0.1288923,-0.38481 0.1493013,-0.59664 0.00931,-0.0967 0.033029,-0.19219 0.052702,-0.21229 0.048472,-0.0495 0.1631692,-0.52075 0.1631692,-0.67039 0,-0.0663 0.017169,-0.13478 0.038155,-0.1521 0.043146,-0.0356 0.1552326,-0.45023 0.1757042,-0.64996 0.00743,-0.0725 0.033467,-0.1759 0.057858,-0.22979 0.074929,-0.16555 0.190373,-0.60422 0.1590107,-0.60422 -0.1155448,0 -0.3120063,0.49637 -0.3120063,0.78831 0,0.0699 -0.017801,0.1526 -0.039557,0.18379 -0.021756,0.0312 -0.057825,0.0991 -0.080154,0.15084 -0.038358,0.0889 -0.044611,0.0911 -0.1133568,0.0398 -0.048411,-0.0362 -0.079765,-0.11811 -0.093694,-0.24488 -0.011514,-0.1048 -0.04364,-0.22555 -0.071391,-0.26835 -0.032552,-0.0502 -0.04973,-0.20532 -0.048408,-0.43714 0.00201,-0.35236 0.00481,-0.36321 0.144621,-0.56003 0.141286,-0.19889 0.5019306,-0.5015 0.5976861,-0.5015 0.027359,0 0.09262,-0.0278 0.1450242,-0.0619 0.1133668,-0.0736 0.434411,-0.0858 0.8255914,-0.0314 0.4361415,0.0607 0.6237523,0.15595 1.0704798,0.5437 0.4832478,0.41944 0.7423945,0.60124 1.0071458,0.70653 0.5465182,0.21734 0.6668452,0.25674 0.8036102,0.26311 0.08157,0.004 0.190065,0.0254 0.241094,0.0479 0.09931,0.0439 0.466288,0.0717 1.072495,0.0812 0.951405,0.015 1.390472,0.12077 1.737551,0.41861 0.109923,0.0943 0.200243,0.19653 0.200713,0.22712 4.71e-4,0.0306 0.01638,0.0894 0.03537,0.13064 0.134843,0.29312 0.133163,0.39595 -0.01644,1.00585 -0.0066,0.0269 -0.01338,0.0653 -0.01505,0.0853 -0.0017,0.0199 -0.05012,0.0934 -0.107684,0.16331 -0.172122,0.20892 -0.472626,0.81476 -0.48601,0.97982 -0.0016,0.0199 -0.04866,0.0919 -0.104531,0.15982 -0.133242,0.16204 -0.432675,0.76194 -0.395595,0.79256 0.01588,0.0131 0.655135,0.0269 1.420564,0.0306 1.54626,0.007 1.636147,0.0176 1.834144,0.20556 0.189428,0.17986 0.250173,0.30485 0.249218,0.51278 -0.0016,0.33912 -0.238241,0.60975 -0.606837,0.69389 -0.116658,0.0266 -0.799905,0.0346 -2.367497,0.0278 l -2.203513,-0.01 -0.224991,-0.13132 c -0.210698,-0.12298 -0.231307,-0.14719 -0.324427,-0.38108 l -0.09944,-0.24974 0.08218,-0.14151 c 0.158174,-0.27233 0.363348,-0.69523 0.363348,-0.74891 0,-0.0689 0.106296,-0.28056 0.152814,-0.30429 0.05781,-0.0295 0.430466,-0.77583 0.458478,-0.91822 0.02188,-0.11124 0.01173,-0.14254 -0.0657,-0.20257 -0.05037,-0.0391 -0.155955,-0.0932 -0.234639,-0.12034 -0.07868,-0.0271 -0.152171,-0.0682 -0.163303,-0.0914 -0.01113,-0.0231 -0.08898,-0.0705 -0.172988,-0.10529 -0.08401,-0.0348 -0.241789,-0.11001 -0.350617,-0.16716 -0.108828,-0.0572 -0.24239,-0.11522 -0.296804,-0.12904 -0.05441,-0.0138 -0.136898,-0.0496 -0.183297,-0.0795 -0.0464,-0.0299 -0.162153,-0.0734 -0.2572298,-0.0967 -0.095077,-0.0233 -0.1995799,-0.0558 -0.2322283,-0.0722 -0.1315615,-0.0663 -0.4063641,-0.15974 -0.469799,-0.15974 -0.037125,0 -0.1373587,-0.0294 -0.2227428,-0.0653 -0.2209759,-0.093 -0.2911672,-0.0825 -0.4456614,0.0664 -0.1814792,0.17498 -0.4140122,0.27219 -0.5870289,0.2454 -0.1713238,-0.0265 -0.1840301,-0.0487 -0.133896,-0.23329 0.050536,-0.18612 -0.010049,-0.27707 -0.083063,-0.1247 -0.091918,0.19181 -0.1572375,0.42681 -0.1751241,0.63002 -0.010083,0.11456 -0.034357,0.22479 -0.053943,0.24496 -0.050408,0.0519 -0.1635974,0.48397 -0.1635974,0.62447 0,0.0647 -0.024311,0.15734 -0.054024,0.20585 -0.055886,0.0912 -0.1355597,0.41237 -0.1605554,0.64714 -0.00787,0.0739 -0.03191,0.16208 -0.053429,0.19596 -0.053799,0.0847 -0.1288923,0.3848 -0.1493013,0.59663 -0.00931,0.0967 -0.033029,0.1922 -0.052702,0.2123 -0.019673,0.0201 -0.064375,0.15178 -0.099338,0.29263 -0.068678,0.27667 -0.1668001,0.42082 -0.3354416,0.4928 -0.1493219,0.0637 -0.3606378,0.0857 -0.4944377,0.0514 z m 1.9298352,-4.41746 c 0.083529,-0.14918 0.1817229,-0.52426 0.1817229,-0.69414 0,-0.0787 0.016007,-0.15118 0.035571,-0.16116 0.019564,-0.01 0.066105,-0.13142 0.1034254,-0.26986 0.051252,-0.19012 0.057073,-0.26596 0.02379,-0.30995 -0.024235,-0.032 -0.044131,-0.0915 -0.044213,-0.13216 -2.236e-4,-0.11176 -0.1445082,-0.28623 -0.2367132,-0.28623 -0.083322,0 -0.1097188,0.0788 -0.038552,0.11514 0.022648,0.0115 0.085994,0.0796 0.1407708,0.1512 l 0.099593,0.13021 -0.083996,0.2816 c -0.046198,0.15488 -0.084816,0.34123 -0.085818,0.41411 -0.001,0.0729 -0.020513,0.1617 -0.043358,0.19735 -0.060529,0.0945 -0.1924526,0.6038 -0.1656623,0.63957 0.035571,0.0475 0.049773,0.038 0.1134388,-0.0757 z m -0.6674731,-1.83984 c 0.094067,-0.0324 0.2308262,-0.0476 0.3675201,-0.0408 0.1317029,0.007 0.2233495,-0.003 0.2319936,-0.0244 0.019037,-0.0469 -0.1599027,-0.11178 -0.3082666,-0.11178 -0.1281566,0 -0.4178516,0.1211 -0.4492614,0.1878 -0.02424,0.0515 -0.022303,0.0513 0.1580143,-0.0108 z m -2.6495401,-7.16162 c -0.011559,-0.0154 -0.1328396,-0.047 -0.2695118,-0.0701 -0.2421942,-0.041 -0.6287326,-0.21129 -0.8025282,-0.35354 -0.2440078,-0.19971 -0.3668775,-0.33603 -0.4331911,-0.48061 -0.040847,-0.0891 -0.096218,-0.19132 -0.1230487,-0.22724 -0.02683,-0.0359 -0.056965,-0.21776 -0.066965,-0.40406 -0.016739,-0.31185 -0.00929,-0.35841 0.0938,-0.58648 0.271739,-0.60116 0.8297752,-0.98933 1.5583244,-1.08397 0.6345329,-0.0824 1.2417247,0.0943 1.7713325,0.51552 0.075376,0.06 0.3458668,0.42914 0.3458668,0.47207 0,0.0264 0.034339,0.13387 0.07631,0.23887 0.076994,0.19261 0.075807,0.25367 -0.016491,0.84805 -0.00558,0.0359 -0.012416,0.0804 -0.015194,0.0989 -0.00687,0.0456 -0.2950791,0.36236 -0.470321,0.51688 -0.2628307,0.23175 -0.7580057,0.50422 -0.8401716,0.46231 -0.016997,-0.009 -0.1264582,-0.002 -0.243248,0.0138 -0.4207069,0.0586 -0.5442936,0.0673 -0.5649623,0.0397 z"
         id="path1470"
         inkscape:connector-curvature="0" />
      <path
         style="fill:#ffffff;stroke-width:0.0359515;stroke:#ffffff"
         d="m 2.5445436,296.75585 c -0.2375308,-0.0495 -0.524198,-0.23182 -0.692264,-0.44018 l -0.1608157,-0.19938 0.02422,-0.30743 c 0.015978,-0.20281 0.049268,-0.3473 0.097824,-0.42459 0.1032917,-0.16441 0.2451406,-0.52806 0.2848768,-0.73033 0.018443,-0.0939 0.0604,-0.24796 0.093237,-0.34241 0.1778979,-0.5117 0.2709776,-1.88103 0.1814753,-2.66976 -0.056892,-0.50135 -0.2118933,-1.26959 -0.3064232,-1.51872 -0.023855,-0.0629 -0.062885,-0.17634 -0.086732,-0.25214 -0.038882,-0.12359 -0.060051,-0.14153 -0.2050528,-0.17375 -0.088932,-0.0198 -0.1996796,-0.0656 -0.2461055,-0.10182 -0.046426,-0.0362 -0.1511917,-0.0943 -0.2328127,-0.12902 -0.081621,-0.0347 -0.1484018,-0.079 -0.1484018,-0.0984 0,-0.0194 -0.062304,-0.11854 -0.1384536,-0.22036 -0.0829919,-0.11097 -0.18070941,-0.31573 -0.24394008,-0.51117 -0.10225596,-0.31605 -0.10559045,-0.35504 -0.10888275,-1.27319 -0.003671,-1.02367 -0.004184,-1.01991 0.25711626,-1.88425 0.0634913,-0.21002 0.11543877,-0.41619 0.11543877,-0.45815 0,-0.042 0.024178,-0.10529 0.05373,-0.14072 0.029551,-0.0354 0.076253,-0.12321 0.1037819,-0.19507 0.027529,-0.0718 0.1207186,-0.24396 0.2070888,-0.38246 0.4310774,-0.69126 1.2929103,-1.06473 2.0813456,-0.90195 0.1878418,0.0388 0.6408118,0.32561 0.6408118,0.40578 0,0.0207 0.042653,0.11726 0.094785,0.21454 0.1210415,0.22589 0.1670808,0.60564 0.1038835,0.85688 -0.055231,0.21957 -0.1377355,0.23623 -0.2176293,0.0439 -0.028003,-0.0674 -0.094698,-0.17028 -0.1482108,-0.22863 -0.053513,-0.0583 -0.1097488,-0.14777 -0.1249692,-0.19872 -0.035799,-0.11983 -0.3637427,-0.4102 -0.5277444,-0.46727 -0.3581327,-0.12462 -0.8060122,-0.0102 -1.029918,0.26302 -0.1222519,0.14919 -0.1278437,0.16944 -0.1178297,0.42658 0.00906,0.23274 0.025392,0.28767 0.1184491,0.39849 0.059365,0.0707 0.1079362,0.15235 0.1079362,0.18145 0,0.0291 0.05951,0.11724 0.1322446,0.19588 0.072735,0.0786 0.143661,0.18053 0.1576143,0.22641 0.013953,0.0459 0.088005,0.13986 0.1645589,0.20884 0.076554,0.069 0.1391895,0.14491 0.1391895,0.16875 0,0.0238 0.071233,0.10712 0.1582953,0.18507 0.087062,0.0779 0.1582953,0.15735 0.1582953,0.17644 0,0.0191 0.070858,0.0983 0.1574627,0.17598 0.086604,0.0777 0.2123828,0.21039 0.2795074,0.29487 l 0.1220447,0.15359 -0.047199,0.40164 c -0.066839,0.56876 -0.023537,1.19149 0.099431,1.42994 0.051094,0.0991 0.1137572,0.2644 0.1392513,0.36739 0.025494,0.10298 0.062952,0.19571 0.08324,0.20605 0.020288,0.0104 0.03683,0.0584 0.036761,0.10671 -6.73e-5,0.0483 0.034132,0.19077 0.076002,0.31651 0.2107164,0.63282 0.3596501,1.68789 0.3589502,2.54286 -4.705e-4,0.57506 -0.074865,1.37021 -0.1593348,1.70304 -0.022795,0.0898 -0.056945,0.25149 -0.075888,0.35927 -0.018943,0.10778 -0.080151,0.33559 -0.1360168,0.50624 -0.055866,0.17065 -0.1019317,0.3434 -0.102368,0.38388 -4.361e-4,0.0405 -0.03641,0.12845 -0.079941,0.19548 -0.043531,0.067 -0.079148,0.14033 -0.079148,0.16289 0,0.0226 -0.073696,0.19556 -0.1637681,0.38446 l -0.163768,0.34343 -0.2814706,0.12824 c -0.298814,0.13613 -0.5760352,0.1828 -0.803761,0.13531 z m 3.407585,-0.0523 c -0.1490872,-0.054 -0.3619789,-0.24801 -0.3964244,-0.36128 -0.013902,-0.0457 0.00366,-0.20344 0.039033,-0.3505 0.035371,-0.14706 0.064296,-0.31336 0.064279,-0.36954 -1.7e-5,-0.0562 0.027066,-0.15569 0.060183,-0.2211 0.033118,-0.0654 0.095479,-0.27665 0.1385804,-0.46941 0.1264427,-0.56547 0.2414584,-1.02547 0.2964253,-1.18555 0.02818,-0.0821 0.072045,-0.26578 0.097478,-0.40825 0.025433,-0.14248 0.070813,-0.32519 0.100844,-0.40603 0.030031,-0.0808 0.083821,-0.27925 0.1195327,-0.44092 0.035711,-0.16167 0.1012552,-0.41887 0.1456527,-0.57156 0.044397,-0.15269 0.094433,-0.35845 0.1111913,-0.45725 0.042482,-0.25046 0.2236803,-0.81389 0.2796445,-0.86954 0.043885,-0.0436 0.2022693,-0.11111 0.3670495,-0.15635 0.040864,-0.0112 0.1571698,-0.0113 0.2584566,-2.3e-4 0.1698204,0.0186 0.1956162,0.0343 0.331333,0.20189 0.1663236,0.20536 0.1709882,0.23272 0.085893,0.50375 -0.033705,0.10735 -0.076575,0.28584 -0.095267,0.39664 -0.018692,0.11081 -0.063152,0.28676 -0.0988,0.39101 -0.035649,0.10425 -0.080602,0.28062 -0.099897,0.39193 -0.019295,0.11131 -0.071776,0.31996 -0.1166256,0.46367 -0.04485,0.1437 -0.081684,0.3146 -0.081854,0.37977 -1.583e-4,0.0652 -0.027405,0.17201 -0.060523,0.23743 -0.033118,0.0654 -0.095479,0.27665 -0.1385803,0.4694 -0.1264428,0.56548 -0.2414585,1.02548 -0.2964254,1.18555 -0.02818,0.0821 -0.072045,0.26578 -0.097478,0.40826 -0.025433,0.14248 -0.070612,0.32519 -0.1003972,0.40603 -0.029785,0.0808 -0.074838,0.23515 -0.1001158,0.34293 -0.057071,0.24334 -0.1911554,0.39482 -0.4216575,0.47637 -0.2035895,0.072 -0.2261909,0.0728 -0.3915319,0.0129 z m 5.3246564,0.006 c -0.05534,-0.021 -0.181117,-0.0806 -0.279505,-0.13246 -0.161276,-0.085 -0.187445,-0.11715 -0.265835,-0.3266 -0.04782,-0.12778 -0.08677,-0.24857 -0.08655,-0.26842 1.98e-4,-0.0198 0.09834,-0.2288 0.218052,-0.46433 0.119711,-0.23554 0.217656,-0.44884 0.217656,-0.474 0,-0.0252 0.07601,-0.16896 0.168905,-0.31953 0.174538,-0.28289 0.394852,-0.72688 0.441009,-0.88875 0.02239,-0.0785 0.0041,-0.1092 -0.121432,-0.20413 -0.08128,-0.0614 -0.173118,-0.11172 -0.204081,-0.11172 -0.03096,0 -0.119681,-0.0459 -0.197151,-0.10206 -0.07747,-0.0561 -0.201171,-0.12287 -0.27489,-0.14829 -0.07372,-0.0254 -0.206796,-0.0897 -0.295725,-0.14289 -0.08893,-0.0532 -0.192234,-0.0967 -0.229565,-0.0967 -0.03733,0 -0.110343,-0.0267 -0.162251,-0.0594 -0.05191,-0.0326 -0.156707,-0.0791 -0.2328861,-0.10328 -0.07618,-0.0242 -0.249067,-0.0856 -0.3841945,-0.13661 -0.1351272,-0.051 -0.2898984,-0.0927 -0.3439353,-0.0927 -0.054037,0 -0.1084141,-0.0136 -0.1208375,-0.0302 -0.012423,-0.0166 -0.111762,-0.0546 -0.2207526,-0.0845 l -0.1981652,-0.0543 -0.1803853,0.16559 c -0.1855229,0.1703 -0.3835317,0.24891 -0.5717337,0.227 -0.094559,-0.011 -0.096836,-0.0178 -0.083931,-0.25078 0.0073,-0.1317 0.036368,-0.28603 0.064605,-0.34294 0.028237,-0.0569 0.081543,-0.2431 0.1184563,-0.41375 0.036914,-0.17066 0.1029581,-0.42648 0.1467663,-0.5685 0.076353,-0.24753 0.076956,-0.31157 0.00546,-0.58059 -0.033065,-0.12443 -0.1767616,-0.28799 -0.2530093,-0.28799 -0.023918,0 -0.088766,-0.0294 -0.1441069,-0.0653 -0.1415156,-0.0919 -0.4380149,-0.0884 -0.6123423,0.007 -0.07268,0.0398 -0.2061254,0.14432 -0.2965453,0.23222 -0.1694709,0.16474 -0.2272392,0.31115 -0.3243881,0.82216 -0.020491,0.10778 -0.056851,0.23798 -0.0808,0.28933 -0.061997,0.13293 -0.1437095,0.0648 -0.1779785,-0.14841 -0.014871,-0.0925 -0.05274,-0.21899 -0.084155,-0.28104 -0.036736,-0.0726 -0.057117,-0.22832 -0.057117,-0.43652 0,-0.28392 0.012655,-0.34432 0.1029568,-0.49139 0.2253931,-0.36709 0.6848333,-0.654 1.105093,-0.69009 0.2432381,-0.0209 0.7215546,0.0506 0.9506937,0.1422 0.099598,0.0398 0.3410979,0.21431 0.5856415,0.42321 0.5003461,0.42742 0.7986227,0.63259 1.0697924,0.73587 0.4965056,0.18909 0.5824536,0.21655 0.7629786,0.24374 0.105319,0.0159 0.26515,0.0443 0.355179,0.0631 0.09003,0.0189 0.553855,0.0491 1.030723,0.0671 0.854764,0.0323 0.8713,0.0343 1.168539,0.141 0.408079,0.14645 0.653084,0.366 0.751609,0.67351 0.08437,0.26334 0.08725,0.41747 0.01256,0.67276 -0.03153,0.10778 -0.05797,0.23433 -0.05874,0.28122 -7.76e-4,0.0469 -0.04847,0.14243 -0.105986,0.2123 -0.134063,0.16285 -0.489031,0.8452 -0.489031,0.94005 0,0.0398 -0.04987,0.13771 -0.110827,0.21757 -0.102542,0.13434 -0.443466,0.76723 -0.443285,0.82291 3.9e-5,0.0135 0.629038,0.0245 1.397767,0.0245 1.702493,0 1.713318,0.002 1.983039,0.29776 0.166678,0.183 0.180916,0.21363 0.180916,0.38923 0,0.10483 -0.01701,0.22753 -0.03781,0.27267 -0.06124,0.13293 -0.307205,0.33525 -0.497168,0.40895 -0.172756,0.067 -0.222355,0.0684 -2.343589,0.0658 -1.563476,-0.002 -2.195124,-0.0133 -2.267715,-0.0408 z m -5.5386518,-7.00821 c -0.097945,-0.0106 -0.2709833,-0.0598 -0.3845293,-0.10918 -0.1135456,-0.0494 -0.2316375,-0.0898 -0.2624263,-0.0898 -0.030788,0 -0.1035338,-0.0515 -0.1616563,-0.11434 -0.058122,-0.0629 -0.1581813,-0.13676 -0.222353,-0.16415 -0.064172,-0.0274 -0.1166759,-0.0681 -0.1166759,-0.0905 0,-0.0224 -0.060181,-0.11615 -0.133736,-0.20833 -0.1362983,-0.17081 -0.1627836,-0.25211 -0.2073477,-0.63652 -0.025715,-0.22182 0.072351,-0.68046 0.1454936,-0.68046 0.068909,0 0.3771892,0.19382 0.465446,0.29263 0.050475,0.0565 0.1389971,0.12035 0.1967147,0.14185 0.057718,0.0215 0.1647229,0.0936 0.2377888,0.16018 0.073066,0.0666 0.1708544,0.13104 0.2173074,0.14321 0.046453,0.0122 0.1165923,0.0558 0.1558658,0.097 0.039273,0.0412 0.1378946,0.10818 0.219159,0.14883 0.081264,0.0406 0.2177391,0.12254 0.3032779,0.18197 0.085539,0.0594 0.1750592,0.10805 0.1989341,0.10805 0.023875,0 0.1382111,0.0588 0.2540801,0.13064 0.1158694,0.0719 0.2400477,0.13124 0.2759518,0.13197 0.094264,0.002 0.3365864,0.18208 0.303796,0.22587 -0.050327,0.0672 -0.3367012,0.19858 -0.6106708,0.28014 -0.2718773,0.0809 -0.4845481,0.0933 -0.8744199,0.0509 z m 1.7214611,-0.46312 c -0.065297,-0.0349 -0.1855022,-0.0802 -0.2671232,-0.10077 -0.081621,-0.0206 -0.1484019,-0.0496 -0.1484019,-0.0645 0,-0.0329 -0.2973521,-0.1912 -0.3591989,-0.1912 -0.024299,0 -0.1251059,-0.0588 -0.2240139,-0.13064 -0.098908,-0.0719 -0.2096103,-0.13065 -0.2460051,-0.13065 -0.036395,0 -0.1184765,-0.0454 -0.1824041,-0.10089 -0.063928,-0.0555 -0.1661514,-0.12242 -0.2271644,-0.14871 -0.061013,-0.0263 -0.1812184,-0.10582 -0.2671233,-0.17672 -0.085905,-0.0709 -0.1762059,-0.12891 -0.2006689,-0.12891 -0.024463,0 -0.1141384,-0.0653 -0.1992787,-0.14514 -0.08514,-0.0798 -0.1884897,-0.15397 -0.2296651,-0.16475 -0.041175,-0.0108 -0.1110782,-0.0703 -0.1553391,-0.13218 -0.044261,-0.0619 -0.1363773,-0.14063 -0.2047022,-0.17492 -0.068325,-0.0343 -0.1582232,-0.10849 -0.199774,-0.16488 -0.041551,-0.0564 -0.1377143,-0.13279 -0.2136967,-0.16979 -0.075982,-0.037 -0.1381497,-0.0904 -0.1381497,-0.11864 0,-0.0283 -0.080137,-0.11473 -0.1780822,-0.19219 -0.097945,-0.0774 -0.1780822,-0.1537 -0.1780822,-0.16943 0,-0.0157 -0.067816,-0.0932 -0.1507028,-0.17202 -0.082887,-0.0789 -0.1910079,-0.19828 -0.2402696,-0.26535 -0.049262,-0.0671 -0.1328152,-0.15002 -0.1856745,-0.18434 -0.052859,-0.0343 -0.096108,-0.0863 -0.096108,-0.11549 0,-0.0634 -0.1847954,-0.3131 -0.2316753,-0.3131 -0.018047,0 -0.053387,-0.0567 -0.078533,-0.12594 -0.025146,-0.0693 -0.090294,-0.18015 -0.1447724,-0.2464 -0.054479,-0.0663 -0.099053,-0.13173 -0.099053,-0.14548 0,-0.0138 -0.042854,-0.11527 -0.095231,-0.22557 l -0.095231,-0.20056 0.1249118,-0.17178 c 0.068701,-0.0945 0.1961445,-0.21328 0.2832069,-0.264 0.1354243,-0.0789 0.1869603,-0.0902 0.3566922,-0.0779 0.3090753,0.0223 0.4656799,0.10033 0.5891378,0.29371 0.058921,0.0923 0.1675826,0.26234 0.2414694,0.37787 0.073887,0.11553 0.1619708,0.22281 0.1957423,0.23841 0.033771,0.0156 0.061403,0.0548 0.061403,0.0872 0,0.0324 0.053142,0.11614 0.1180927,0.18618 0.064951,0.07 0.1797586,0.20356 0.255128,0.29672 0.075369,0.0932 0.1735976,0.18554 0.2182848,0.20528 0.044687,0.0197 0.081249,0.0599 0.081249,0.0893 0,0.0294 0.075685,0.11381 0.1681887,0.18759 0.092504,0.0738 0.2189948,0.19549 0.2810909,0.27046 0.062096,0.075 0.2134663,0.20983 0.3363775,0.2997 0.1229115,0.0899 0.2947082,0.22112 0.3817706,0.29169 0.087062,0.0706 0.2028158,0.14655 0.2572298,0.16884 0.054414,0.0223 0.1405702,0.0831 0.1914577,0.13509 0.050888,0.052 0.147276,0.11795 0.2141961,0.14651 0.06692,0.0286 0.1833289,0.10135 0.2586865,0.16175 0.075357,0.0604 0.1748597,0.11967 0.221116,0.13171 0.046256,0.012 0.1548575,0.0718 0.2413362,0.13276 0.086479,0.061 0.2022321,0.11988 0.2572298,0.1309 0.054998,0.011 0.1563451,0.0604 0.2252166,0.10965 0.068872,0.0493 0.1846249,0.10623 0.2572298,0.12654 0.1745222,0.0488 0.389239,0.32552 0.389239,0.50158 0,0.25574 -0.2360974,0.50655 -0.5430585,0.5769 -0.2048431,0.0469 -0.2879992,0.0404 -0.4265004,-0.0335 z m 0.1220216,-1.41926 c -0.085248,-0.0621 -0.1770557,-0.11296 -0.2040185,-0.11296 -0.026962,0 -0.1263929,-0.0534 -0.2209561,-0.11866 -0.094563,-0.0653 -0.2164533,-0.13507 -0.2708674,-0.15513 -0.054414,-0.0201 -0.1411241,-0.0774 -0.1926896,-0.12747 -0.051565,-0.05 -0.1465205,-0.11351 -0.2110124,-0.14104 -0.064491,-0.0275 -0.1914799,-0.1115 -0.2821961,-0.18662 -0.090716,-0.0751 -0.1992807,-0.15222 -0.2412543,-0.17133 -0.049696,-0.0226 -0.067383,-0.054 -0.050709,-0.0898 0.055825,-0.12006 0.6794326,-0.0268 1.0957298,0.16383 0.2512664,0.11508 0.6682411,0.44106 0.6718242,0.52522 9.814e-4,0.0231 0.046304,0.11442 0.1007185,0.20304 0.1934847,0.31512 0.094963,0.42193 -0.194569,0.21094 z m -3.2681402,-4.59974 c -0.163242,-0.0382 -0.3769407,-0.11514 -0.4748859,-0.17106 -0.097945,-0.0559 -0.2181506,-0.11203 -0.2671232,-0.12468 -0.048973,-0.0127 -0.089041,-0.0373 -0.089041,-0.0549 0,-0.0175 -0.080137,-0.10256 -0.1780822,-0.18898 -0.097945,-0.0864 -0.1780822,-0.17405 -0.1780822,-0.19473 0,-0.0207 -0.045323,-0.11469 -0.1007178,-0.20891 -0.1495858,-0.25442 -0.1774123,-0.70729 -0.062872,-1.02323 0.2503153,-0.69044 0.9897783,-1.15792 1.8454774,-1.16669 0.302606,-0.003 0.3997486,0.0102 0.6459995,0.0886 0.1594093,0.0507 0.3642038,0.14207 0.4550989,0.20298 0.090895,0.0609 0.2231406,0.14149 0.2938788,0.17908 0.070738,0.0376 0.1286149,0.0801 0.1286149,0.0945 0,0.0144 0.061334,0.10137 0.1362977,0.19331 0.1508424,0.18499 0.2994128,0.58101 0.2982849,0.7951 -3.997e-4,0.0761 -0.026931,0.26071 -0.058955,0.41015 -0.053806,0.25108 -0.076088,0.29077 -0.2935083,0.52272 -0.1965374,0.20968 -0.5850368,0.49523 -0.8306018,0.61051 -0.070396,0.0331 -0.6954992,0.11246 -0.8542571,0.10852 -0.065297,-0.002 -0.2522831,-0.0342 -0.4155251,-0.0723 z"
         id="path1468"
         inkscape:connector-curvature="0" />
      <path
         style="fill:#ffffff;stroke-width:0.0359515;stroke:#ffffff"
         d="m 2.5722276,296.76329 c -0.054414,-0.009 -0.1078386,-0.0262 -0.1187214,-0.0379 -0.010883,-0.0117 -0.087382,-0.0496 -0.1699988,-0.0843 -0.1905732,-0.0801 -0.3138854,-0.18204 -0.4473129,-0.36995 -0.1009093,-0.14211 -0.1047904,-0.16427 -0.084948,-0.48514 0.015947,-0.25787 0.039351,-0.36132 0.1004281,-0.44388 0.1015788,-0.13732 0.2475491,-0.52915 0.252817,-0.67864 0.00223,-0.0632 0.026893,-0.15243 0.054813,-0.1983 0.069878,-0.11482 0.1761755,-0.59322 0.1500971,-0.67552 -0.011718,-0.037 0.00106,-0.10174 0.028402,-0.1439 0.1190688,-0.18362 0.1149198,-2.32797 -0.0047,-2.42668 -0.020844,-0.0172 -0.037898,-0.10866 -0.037898,-0.20324 0,-0.0946 -0.024753,-0.23494 -0.055008,-0.31191 -0.030254,-0.077 -0.064918,-0.21632 -0.077031,-0.30967 -0.012113,-0.0933 -0.049688,-0.21386 -0.083501,-0.26782 -0.033813,-0.054 -0.061477,-0.14361 -0.061477,-0.19921 0,-0.12318 -0.1534415,-0.26142 -0.2901592,-0.26142 -0.052738,0 -0.1189088,-0.0229 -0.1470457,-0.0509 -0.028137,-0.028 -0.1270157,-0.0876 -0.2197306,-0.1324 -0.1644729,-0.0796 -0.2450611,-0.17008 -0.41817795,-0.46977 -0.0999416,-0.17301 -0.19011712,-0.43811 -0.19077903,-0.56084 -2.5834e-4,-0.0479 -0.02273,-0.0932 -0.049937,-0.1007 -0.0666852,-0.0183 -0.0723643,-2.00693 -0.005833,-2.04248 0.0239988,-0.0128 0.0553429,-0.0978 0.0696534,-0.18879 0.0143105,-0.091 0.0800325,-0.34803 0.14604898,-0.57115 0.0660164,-0.22312 0.1295801,-0.4573 0.1412528,-0.5204 0.011672,-0.0631 0.04382,-0.14413 0.07144,-0.18005 0.027619,-0.0359 0.072906,-0.12411 0.1006384,-0.19597 0.1896161,-0.49129 0.6143625,-0.92362 1.089433,-1.10886 0.409967,-0.15986 0.5857608,-0.18636 0.9715123,-0.14644 0.3829226,0.0396 0.4015829,0.0466 0.618063,0.23214 0.2219242,0.19017 0.3721389,0.4973 0.396531,0.81076 0.036784,0.47269 -0.068406,0.75319 -0.1817885,0.48476 -0.023984,-0.0568 -0.089791,-0.15321 -0.1462368,-0.21429 -0.056446,-0.0611 -0.1200755,-0.16319 -0.1413984,-0.22693 -0.040204,-0.12017 -0.3368033,-0.39521 -0.5040579,-0.46743 -0.132036,-0.057 -0.6002004,-0.0506 -0.7407292,0.0101 -0.1421895,0.0614 -0.343584,0.23619 -0.4205436,0.36493 -0.1161598,0.19431 -0.032979,0.70131 0.1285797,0.78371 0.02192,0.0112 0.039855,0.0455 0.039855,0.0763 0,0.0308 0.064362,0.13648 0.1430273,0.23487 0.078665,0.0984 0.1576091,0.21032 0.1754312,0.24874 0.017822,0.0384 0.083279,0.11926 0.1454597,0.17964 0.062181,0.0604 0.1337891,0.1494 0.1591298,0.19784 0.025341,0.0484 0.1092202,0.14575 0.1863989,0.21625 0.077179,0.0705 0.1403248,0.14191 0.1403248,0.15868 0,0.0168 0.066144,0.0885 0.1469874,0.15934 0.080843,0.0709 0.1654322,0.15264 0.1879757,0.1817 0.022543,0.0291 0.075341,0.093 0.117328,0.142 0.082143,0.0959 0.085541,0.15449 0.032294,0.55636 -0.031558,0.23817 -0.031526,0.60988 9.1e-5,1.04961 0.00663,0.0923 0.049708,0.23925 0.09572,0.32661 0.046012,0.0874 0.1053913,0.23967 0.1319552,0.33847 0.026564,0.0988 0.073043,0.21218 0.1032861,0.25197 0.030242,0.0398 0.054987,0.11461 0.054987,0.16628 0,0.0517 0.027822,0.16609 0.061827,0.25427 0.034004,0.0882 0.068969,0.22804 0.077699,0.3108 0.00873,0.0828 0.044065,0.21901 0.078523,0.30277 0.034458,0.0838 0.053558,0.16444 0.042446,0.17928 -0.011113,0.0148 -0.00187,0.1064 0.020547,0.20347 0.022413,0.0971 0.05642,0.32346 0.075571,0.5031 0.042349,0.39724 0.059008,1.69935 0.023191,1.81267 -0.014195,0.0449 -0.033523,0.21393 -0.042951,0.3756 -0.00943,0.16167 -0.045375,0.40417 -0.079882,0.5389 -0.034507,0.13472 -0.063905,0.30374 -0.065329,0.3756 -0.00142,0.0718 -0.020292,0.15829 -0.041929,0.19209 -0.053101,0.0829 -0.1959071,0.57159 -0.1968034,0.67342 -3.957e-4,0.0449 -0.032802,0.13309 -0.072016,0.19596 -0.039213,0.0629 -0.127615,0.24659 -0.1964481,0.40826 -0.1958113,0.45991 -0.2291001,0.50131 -0.4954286,0.61622 -0.1304402,0.0563 -0.2465279,0.11238 -0.2579728,0.12468 -0.028831,0.031 -0.3935699,0.0571 -0.5139958,0.0367 z m 3.4824961,-0.0428 c 0,-0.018 -0.031654,-0.0327 -0.070342,-0.0327 -0.1064627,0 -0.2381327,-0.0887 -0.351224,-0.23653 l -0.1016762,-0.13293 0.06922,-0.26436 c 0.038071,-0.14539 0.083331,-0.34519 0.1005769,-0.44399 0.017246,-0.0988 0.059936,-0.26047 0.094867,-0.35927 0.034931,-0.0988 0.074267,-0.27516 0.087415,-0.39193 0.013147,-0.11676 0.045732,-0.24903 0.07241,-0.29394 0.051844,-0.0873 0.1311243,-0.41635 0.1556997,-0.64627 0.00823,-0.077 0.031849,-0.15785 0.052483,-0.17964 0.039701,-0.0419 0.1264945,-0.37918 0.1516647,-0.58935 0.00824,-0.0688 0.040091,-0.18641 0.070772,-0.26128 0.030681,-0.0749 0.076707,-0.25371 0.1022809,-0.39742 0.025573,-0.14371 0.070867,-0.32742 0.1006528,-0.40826 0.077071,-0.20916 0.1490643,-0.52252 0.1457203,-0.63426 -0.00157,-0.0524 0.020352,-0.13328 0.048715,-0.17963 0.028362,-0.0464 0.073412,-0.18182 0.1001111,-0.30103 0.026699,-0.11921 0.080423,-0.26001 0.1193863,-0.31289 0.1036363,-0.14065 0.3226204,-0.21568 0.5783639,-0.19818 0.2284042,0.0156 0.3048407,0.0651 0.4518475,0.29272 0.077257,0.1196 0.077241,0.12133 -0.00347,0.38896 -0.044588,0.14786 -0.081898,0.32895 -0.08291,0.40244 -0.00101,0.0735 -0.020525,0.16278 -0.043361,0.19842 -0.064818,0.10118 -0.1868862,0.58199 -0.1636797,0.64472 0.011457,0.031 -0.00537,0.10446 -0.037393,0.1633 -0.066945,0.12302 -0.1394558,0.3729 -0.1857797,0.64021 -0.017663,0.10193 -0.068848,0.3029 -0.1137443,0.44661 -0.044897,0.1437 -0.081769,0.31713 -0.081939,0.38538 -1.583e-4,0.0683 -0.024619,0.16379 -0.054333,0.2123 -0.056384,0.092 -0.1355396,0.41257 -0.1612174,0.65281 -0.00823,0.077 -0.031849,0.15785 -0.052483,0.17964 -0.039481,0.0417 -0.1264416,0.37878 -0.151362,0.58675 -0.00808,0.0674 -0.040907,0.19234 -0.072955,0.27762 -0.032048,0.0853 -0.078035,0.239 -0.1021946,0.3416 -0.051118,0.21709 -0.203064,0.37454 -0.3914385,0.40564 -0.067316,0.0111 -0.1223928,0.0331 -0.1223928,0.0488 0,0.0157 -0.035616,0.0286 -0.079148,0.0286 -0.043531,0 -0.079148,-0.0147 -0.079148,-0.0327 z m 5.3028923,0 c 0,-0.018 -0.03101,-0.0327 -0.06891,-0.0327 -0.0379,0 -0.158482,-0.0509 -0.267958,-0.11314 -0.16622,-0.0945 -0.207613,-0.13892 -0.250992,-0.26946 -0.02857,-0.086 -0.07059,-0.18832 -0.09337,-0.22744 -0.03407,-0.0585 -0.0018,-0.14835 0.181617,-0.50624 0.122672,-0.23931 0.22294,-0.45961 0.222818,-0.48955 -1.19e-4,-0.0299 0.0607,-0.14923 0.135165,-0.26507 0.201831,-0.31399 0.445972,-0.80538 0.476473,-0.95901 0.02297,-0.11571 0.01353,-0.1458 -0.06494,-0.2069 -0.0505,-0.0393 -0.145246,-0.094 -0.210543,-0.12155 -0.0653,-0.0275 -0.154338,-0.0756 -0.197869,-0.10683 -0.04353,-0.0312 -0.141476,-0.0842 -0.217656,-0.1177 -0.07618,-0.0335 -0.227549,-0.10717 -0.336377,-0.16371 -0.108828,-0.0565 -0.24239,-0.11382 -0.296804,-0.12729 -0.05441,-0.0135 -0.125647,-0.0436 -0.158295,-0.0669 -0.03265,-0.0233 -0.139498,-0.0672 -0.2374431,-0.0974 -0.097945,-0.0303 -0.2871168,-0.0976 -0.4203812,-0.14971 -0.1332649,-0.0521 -0.2693339,-0.0947 -0.3023757,-0.0947 -0.033042,0 -0.1377058,-0.0291 -0.2325868,-0.0646 -0.1812473,-0.0679 -0.3901662,-0.0871 -0.3901662,-0.0359 0,0.0656 -0.2181194,0.23865 -0.379729,0.30134 -0.1202862,0.0467 -0.2073902,0.0596 -0.2945839,0.0438 -0.1084929,-0.0197 -0.1207038,-0.0326 -0.098761,-0.10478 0.013771,-0.0453 0.033806,-0.15617 0.044522,-0.24642 0.010716,-0.0903 0.03443,-0.18771 0.052698,-0.21658 0.042879,-0.0678 0.1207121,-0.3583 0.1628075,-0.60773 0.01819,-0.10778 0.071556,-0.31354 0.1185901,-0.45725 0.069126,-0.2112 0.077198,-0.28051 0.042117,-0.36158 -0.02387,-0.0552 -0.043399,-0.12727 -0.043399,-0.16023 0,-0.0717 -0.1831923,-0.27838 -0.2467997,-0.27838 -0.024697,0 -0.085538,-0.0315 -0.1352032,-0.07 -0.1395294,-0.10818 -0.4468747,-0.12151 -0.6143404,-0.0266 -0.2027996,0.11489 -0.349664,0.23265 -0.4463931,0.35794 -0.093495,0.1211 -0.219364,0.52403 -0.219364,0.70222 0,0.0918 -0.091505,0.32851 -0.1448192,0.37464 -0.036051,0.0312 -0.091482,-0.0841 -0.093755,-0.19502 -0.00129,-0.0629 -0.028954,-0.1731 -0.061478,-0.24496 -0.037162,-0.0821 -0.06091,-0.25881 -0.063914,-0.4756 -0.00457,-0.32959 9.023e-4,-0.35375 0.1228035,-0.54251 0.1542612,-0.23886 0.3461728,-0.39711 0.6377527,-0.52588 0.2483926,-0.1097 0.486891,-0.12764 0.9089636,-0.0684 0.4341386,0.0609 0.6261108,0.15751 1.04946,0.52786 0.4652299,0.40698 0.7658192,0.61828 1.0276815,0.72242 0.5395116,0.21454 0.6614076,0.25459 0.8111856,0.2665 0.08912,0.007 0.199185,0.0293 0.244597,0.0494 0.08991,0.0397 0.473628,0.0674 1.062282,0.0767 0.952737,0.015 1.352835,0.10889 1.681888,0.39462 0.138159,0.11997 0.213835,0.21974 0.250779,0.33063 0.0291,0.0873 0.07002,0.19661 0.09093,0.24281 0.06534,0.14439 -0.103245,0.88108 -0.237152,1.03628 -0.110595,0.12818 -0.426772,0.73983 -0.476097,0.92101 -0.02112,0.0776 -0.07449,0.18132 -0.11861,0.23057 -0.08646,0.0965 -0.400256,0.6971 -0.400256,0.76607 0,0.063 0.387538,0.0805 1.6621,0.0753 1.323512,-0.005 1.458954,0.0115 1.642314,0.20605 0.0653,0.0693 0.151526,0.15912 0.19162,0.19968 0.05908,0.0598 0.07027,0.1173 0.05902,0.30348 -0.0084,0.13901 -0.03718,0.25382 -0.0729,0.29074 -0.164062,0.16959 -0.364259,0.30872 -0.472418,0.32833 -0.06647,0.0121 -0.120852,0.0354 -0.120852,0.052 0,0.0179 -0.884881,0.0301 -2.196347,0.0301 -1.437849,0 -2.196347,-0.0113 -2.196347,-0.0327 z m -5.4580228,-7.02767 c -0.211105,-0.02 -0.4027752,-0.0607 -0.5230377,-0.11097 -0.1044036,-0.0437 -0.2102969,-0.0794 -0.2353182,-0.0794 -0.065261,0 -0.5189715,-0.35358 -0.5816465,-0.45329 -0.029019,-0.0462 -0.085207,-0.1284 -0.1248617,-0.18275 -0.1202909,-0.16488 -0.2077276,-0.62111 -0.1622801,-0.84676 0.046367,-0.23022 0.1150604,-0.41152 0.1559189,-0.41152 0.016284,0 0.071431,0.0367 0.1225507,0.0817 0.051119,0.0449 0.1075913,0.0817 0.1254933,0.0817 0.017902,0 0.1181876,0.0698 0.2228572,0.15514 0.2538704,0.20696 0.4470184,0.34664 0.575101,0.4159 0.057987,0.0313 0.1710887,0.10665 0.2513369,0.16731 0.080248,0.0607 0.181966,0.11974 0.2260401,0.13129 0.044075,0.0115 0.1285405,0.0609 0.1877026,0.10977 0.059162,0.0488 0.1756029,0.11535 0.258757,0.14784 0.083155,0.0325 0.168998,0.078 0.1907636,0.10106 0.021766,0.0231 0.1286149,0.079 0.2374429,0.12422 0.108828,0.0452 0.2503519,0.11747 0.3144971,0.16056 l 0.1166284,0.0783 -0.1720931,0.0897 c -0.1733788,0.0903 -0.6267309,0.24394 -0.773492,0.26209 -0.043531,0.005 -0.2290933,-0.004 -0.4123604,-0.0218 z m 1.4188817,-0.52971 c -0.345652,-0.15495 -0.5101857,-0.23593 -0.6844027,-0.33683 -0.068337,-0.0396 -0.2043865,-0.11236 -0.3023317,-0.16173 -0.097945,-0.0494 -0.2593653,-0.14559 -0.3587114,-0.21382 -0.099346,-0.0682 -0.2007334,-0.12405 -0.2253052,-0.12405 -0.024572,0 -0.067947,-0.0259 -0.096388,-0.0575 -0.028441,-0.0316 -0.1140399,-0.0981 -0.1902195,-0.14762 -0.4964978,-0.32311 -1.8203957,-1.42441 -1.8203957,-1.51432 0,-0.0171 -0.069115,-0.0905 -0.1535885,-0.16301 -0.084474,-0.0726 -0.1647569,-0.16096 -0.178407,-0.19646 -0.01365,-0.0355 -0.08475,-0.11853 -0.1579987,-0.18453 -0.073249,-0.066 -0.156844,-0.16715 -0.1857665,-0.22478 -0.028923,-0.0576 -0.099728,-0.14967 -0.1573454,-0.20453 -0.057618,-0.0549 -0.1158908,-0.13757 -0.1294962,-0.1838 -0.013605,-0.0462 -0.070483,-0.13967 -0.1263956,-0.20767 -0.131535,-0.15997 -0.3039779,-0.58356 -0.2691184,-0.66107 0.064755,-0.14397 0.2327204,-0.30921 0.3932447,-0.38685 0.1885127,-0.0912 0.3172768,-0.0893 0.6206049,0.009 0.1528861,0.0496 0.1892026,0.0929 0.4962256,0.59206 0.050929,0.0828 0.1244029,0.17993 0.1632754,0.21585 0.038873,0.0359 0.1012692,0.11981 0.1386592,0.18641 0.03739,0.0666 0.1083597,0.15478 0.1577105,0.19596 0.049351,0.0412 0.1183953,0.12109 0.1534321,0.17756 0.035037,0.0565 0.1143881,0.14466 0.1763362,0.19597 0.061948,0.0513 0.1299346,0.11897 0.1510812,0.15036 0.088925,0.13203 0.9967169,0.93907 1.0562997,0.93907 0.020689,0 0.1081548,0.0661 0.19437,0.14698 0.086215,0.0808 0.1723653,0.14697 0.1914454,0.14697 0.019081,0 0.1171465,0.0661 0.2179248,0.14697 0.1007782,0.0808 0.2011264,0.14698 0.222996,0.14698 0.021869,0 0.1206875,0.0588 0.2195956,0.13064 0.098908,0.0718 0.2008308,0.13064 0.2264944,0.13064 0.025664,0 0.1052889,0.0432 0.176944,0.096 0.071656,0.0528 0.1887581,0.1189 0.2602276,0.14689 0.07147,0.028 0.222634,0.10237 0.3359208,0.16529 0.1132868,0.0629 0.2291668,0.11439 0.2575116,0.11439 0.028345,0 0.1162663,0.0805 0.1953807,0.17886 0.1332688,0.1657 0.1418848,0.19105 0.1171883,0.3447 -0.034889,0.21706 -0.1527248,0.35814 -0.3721158,0.44551 -0.2979402,0.11866 -0.3819716,0.11459 -0.7148824,-0.0346 z m 0.2598409,-1.36148 c -0.108828,-0.0703 -0.2169219,-0.12791 -0.2402087,-0.128 -0.023287,-10e-5 -0.1034238,-0.0455 -0.1780822,-0.10098 -0.074658,-0.0554 -0.180685,-0.12024 -0.2356142,-0.14399 -0.054929,-0.0238 -0.1795789,-0.10331 -0.276999,-0.1768 -0.09742,-0.0735 -0.199955,-0.13363 -0.2278545,-0.13363 -0.0279,0 -0.060598,-0.0212 -0.072663,-0.0472 -0.012065,-0.026 -0.118355,-0.10857 -0.2362007,-0.1836 -0.1178457,-0.075 -0.2142649,-0.14934 -0.2142649,-0.16512 0,-0.0463 0.3989456,-0.0329 0.6543705,0.022 0.3330718,0.0716 0.6807603,0.24209 0.8994345,0.44103 0.1030938,0.0938 0.187443,0.17836 0.187443,0.18792 0,0.01 0.055662,0.11705 0.1236935,0.23886 0.111487,0.19963 0.1297179,0.32717 0.045737,0.32 -0.017007,-10e-4 -0.1199633,-0.0602 -0.2287913,-0.13048 z m -2.9594917,-4.52487 c -0.013917,-0.0115 -0.1587073,-0.0471 -0.3217562,-0.0792 -0.165368,-0.0325 -0.3542623,-0.0947 -0.4271916,-0.14059 -0.071907,-0.0453 -0.1769634,-0.10209 -0.2334597,-0.12628 -0.1516348,-0.0649 -0.4600287,-0.39313 -0.5537045,-0.58927 -0.044956,-0.0941 -0.095758,-0.18588 -0.1128929,-0.20389 -0.040706,-0.0428 -0.080474,-0.72098 -0.044365,-0.75658 0.015266,-0.015 0.0583,-0.11083 0.095632,-0.21284 0.092013,-0.25145 0.3490468,-0.55928 0.5948312,-0.71241 0.2171767,-0.1353 0.5959161,-0.29339 0.7041536,-0.29391 0.036276,-1.7e-4 0.073054,-0.0179 0.081729,-0.0394 0.020321,-0.0503 0.8150456,-0.0548 0.8543265,-0.005 0.014799,0.0188 0.1178188,0.0589 0.2289322,0.0891 0.243339,0.0661 0.4943035,0.19714 0.7081735,0.36984 0.1637585,0.13224 0.4155251,0.44395 0.4155251,0.51446 0,0.0221 0.034409,0.12623 0.076463,0.23144 0.076679,0.19183 0.072149,0.37038 -0.02177,0.85811 -0.04267,0.22159 -0.4871145,0.65879 -0.9081784,0.89339 -0.1712802,0.0954 -0.2578302,0.11787 -0.5936073,0.15392 -0.2161997,0.0232 -0.4210912,0.0484 -0.4553138,0.056 -0.034223,0.008 -0.07361,0.004 -0.087527,-0.007 z"
         id="path1466"
         inkscape:connector-curvature="0" />
      <path
         style="fill:#ffffff;stroke-width:0.0359515;stroke:#ffffff"
         d="m 2.5524407,296.75318 c -0.1125995,-0.0236 -0.1136199,-0.0253 -0.019787,-0.0321 0.09334,-0.007 0.092222,-0.009 -0.019787,-0.0308 -0.252984,-0.0502 -0.4567461,-0.17724 -0.5961489,-0.37158 -0.1285114,-0.17915 -0.1359668,-0.20609 -0.1359668,-0.49117 0,-0.23871 0.01674,-0.32861 0.08026,-0.431 0.1078297,-0.17383 0.2759047,-0.61747 0.2759047,-0.72826 0,-0.0491 0.036352,-0.17463 0.080782,-0.27895 0.04443,-0.10433 0.095176,-0.31843 0.1127685,-0.47579 0.017593,-0.15735 0.046061,-0.30489 0.063262,-0.32786 0.075557,-0.10089 0.091867,-1.41939 0.024653,-1.99286 -0.067908,-0.57939 -0.1193791,-0.88029 -0.1617594,-0.94564 -0.022307,-0.0344 -0.040558,-0.1073 -0.040558,-0.16199 0,-0.0547 -0.034041,-0.19161 -0.075646,-0.30426 -0.041605,-0.11265 -0.09558,-0.26683 -0.1199438,-0.34262 -0.039696,-0.12348 -0.061642,-0.14194 -0.2112639,-0.17766 -0.091832,-0.0219 -0.2180739,-0.0744 -0.2805386,-0.11651 -0.062465,-0.0421 -0.1648619,-0.0985 -0.2275494,-0.12528 -0.062688,-0.0268 -0.1139774,-0.0625 -0.1139774,-0.0793 0,-0.0169 -0.054165,-0.10102 -0.1203662,-0.18697 -0.15541406,-0.20177 -0.26662724,-0.51006 -0.30969015,-0.85847 -0.0325472,-0.26334 -0.0348936,-0.26838 -0.0456055,-0.098 l -0.0112929,0.17964 -0.0289138,-0.2123 c -0.0382422,-0.28078 -0.0384168,-1.47049 -2.4923e-4,-1.69836 l 0.0300882,-0.17963 0.009772,0.14697 c 0.007885,0.1186 0.0193348,0.0886 0.0593012,-0.15522 0.0705244,-0.4303 0.28599318,-1.18777 0.42502598,-1.49414 0.3638476,-0.80179 0.77076,-1.16345 1.50611,-1.33863 0.1925209,-0.0459 0.2812715,-0.0489 0.5699303,-0.0198 0.2144102,0.0216 0.3728637,0.0556 0.4249378,0.0912 0.2164333,0.14769 0.3798414,0.28831 0.3798414,0.32687 0,0.0234 0.04452,0.11869 0.098934,0.21178 0.084514,0.14459 0.098856,0.21478 0.098394,0.48159 -2.968e-4,0.17178 -0.011278,0.3454 -0.024402,0.38581 -0.028339,0.0873 -0.093779,0.0981 -0.093779,0.0156 0,-0.0319 -0.05984,-0.13289 -0.1329773,-0.22454 -0.073137,-0.0917 -0.1450885,-0.20647 -0.159891,-0.25515 -0.035052,-0.11526 -0.3640657,-0.40368 -0.5270174,-0.46198 -0.1634167,-0.0585 -0.5703509,-0.0587 -0.7346578,-3.8e-4 -0.1665747,0.0591 -0.4064738,0.26797 -0.4732973,0.41206 -0.099952,0.21552 -0.044155,0.56526 0.1250553,0.78386 0.020857,0.0269 0.077885,0.11895 0.1267274,0.20445 0.048842,0.0855 0.1211763,0.17964 0.1607418,0.20919 0.039566,0.0296 0.071937,0.0738 0.071937,0.0984 0,0.0543 0.1962574,0.30452 0.2388305,0.30452 0.016744,0 0.048456,0.0426 0.070472,0.0948 0.022015,0.0521 0.1038947,0.15311 0.1819535,0.22442 0.078059,0.0713 0.1419251,0.1438 0.1419251,0.16108 0,0.0173 0.07224,0.096 0.160533,0.17495 0.3413482,0.30516 0.4499988,0.50306 0.3558727,0.64821 -0.051924,0.0801 -0.061689,0.9777 -0.01389,1.27677 0.021532,0.13473 0.066166,0.28905 0.099186,0.34294 0.03302,0.0539 0.091184,0.20467 0.1292548,0.33506 0.03807,0.1304 0.08507,0.24517 0.1044434,0.25505 0.019373,0.01 0.035806,0.0649 0.036516,0.12219 7.106e-4,0.0573 0.035746,0.18505 0.077856,0.28385 0.04211,0.0988 0.07757,0.23108 0.0788,0.29395 0.00123,0.0629 0.021546,0.1731 0.045147,0.24496 0.050805,0.15467 0.1005089,0.45937 0.15184,0.93083 0.048392,0.44446 0.073477,1.76459 0.034813,1.83213 -0.01641,0.0287 -0.032849,0.16829 -0.036531,0.31027 -0.00368,0.14199 -0.030908,0.34634 -0.060503,0.45412 -0.029594,0.10779 -0.070869,0.3062 -0.091721,0.44092 -0.020852,0.13473 -0.08306,0.38459 -0.1382403,0.55524 -0.05518,0.17065 -0.1008869,0.34702 -0.1015708,0.39193 -6.839e-4,0.0449 -0.028439,0.12469 -0.061678,0.17729 -0.033239,0.0526 -0.1068129,0.20693 -0.163498,0.34294 -0.2040634,0.48963 -0.2602011,0.56309 -0.5196795,0.68005 -0.1295253,0.0584 -0.2777618,0.10761 -0.3294145,0.1094 l -0.093914,0.003 0.098934,0.0233 c 0.089955,0.0212 0.084567,0.0253 -0.059361,0.0454 -0.1828953,0.0256 -0.2332341,0.0243 -0.3957382,-0.01 z m 3.5319634,-0.0216 c 0.027207,-0.009 0.071728,-0.009 0.098935,0 0.027207,0.009 0.00495,0.0165 -0.049467,0.0165 -0.054414,0 -0.076674,-0.007 -0.049467,-0.0165 z m 6.3741949,-0.003 c 0.616423,-0.005 1.613684,-0.005 2.216134,10e-6 0.60245,0.005 0.0981,0.009 -1.12077,0.009 -1.218874,0 -1.711788,-0.004 -1.095364,-0.009 z m -6.5499596,-0.0887 c -0.070366,-0.0253 -0.1738981,-0.10757 -0.2337824,-0.18586 l -0.1074848,-0.14052 0.068503,-0.27202 c 0.037677,-0.14961 0.074918,-0.34097 0.08276,-0.42525 0.00784,-0.0843 0.040374,-0.20468 0.072294,-0.26755 0.03192,-0.0629 0.078916,-0.2319 0.1044341,-0.3756 0.025519,-0.14371 0.071534,-0.32743 0.102256,-0.40826 0.030722,-0.0808 0.074999,-0.25721 0.098392,-0.39193 0.023394,-0.13473 0.06762,-0.31173 0.098282,-0.39335 0.030662,-0.0816 0.075852,-0.25798 0.1004233,-0.39193 0.043558,-0.23744 0.059058,-0.29729 0.1808377,-0.69814 0.032302,-0.10633 0.074288,-0.2827 0.093304,-0.39193 0.019016,-0.10923 0.062675,-0.27944 0.097023,-0.37824 0.034347,-0.0988 0.079122,-0.27517 0.099498,-0.39193 0.036613,-0.20979 0.1223658,-0.51376 0.2165286,-0.76753 0.069444,-0.18715 0.2458602,-0.27761 0.5413587,-0.27761 0.2571511,0 0.3339152,0.0438 0.4765009,0.27216 0.075676,0.12117 0.076031,0.13216 0.011087,0.34293 -0.036902,0.11977 -0.081371,0.30594 -0.098822,0.41372 -0.01745,0.10778 -0.068206,0.30619 -0.1127909,0.44092 -0.044585,0.13472 -0.081368,0.29911 -0.08174,0.36531 -3.562e-4,0.0662 -0.020608,0.16172 -0.044969,0.21229 -0.068148,0.14147 -0.1889911,0.60179 -0.1691709,0.64442 0.0097,0.0209 -0.019187,0.13291 -0.064203,0.24897 -0.045015,0.11607 -0.1002824,0.31392 -0.1228162,0.43966 -0.022534,0.12575 -0.066021,0.29477 -0.096638,0.3756 -0.030617,0.0808 -0.074808,0.2572 -0.098201,0.39193 -0.023394,0.13472 -0.06762,0.31173 -0.098282,0.39335 -0.030662,0.0816 -0.075852,0.25798 -0.1004233,0.39193 -0.024571,0.13394 -0.062315,0.30232 -0.083875,0.37418 -0.02156,0.0718 -0.070724,0.24186 -0.1092546,0.3778 -0.086747,0.30606 -0.1610896,0.40242 -0.361508,0.46861 -0.189734,0.0627 -0.2933168,0.0635 -0.4595213,0.004 z m 5.3698286,0.0255 c -0.03265,-0.01 -0.139498,-0.0597 -0.237443,-0.11074 -0.160967,-0.0838 -0.186832,-0.11562 -0.269123,-0.33092 l -0.09104,-0.23819 0.219655,-0.43167 c 0.120811,-0.23742 0.219656,-0.45269 0.219656,-0.47839 0,-0.0257 0.0872,-0.19152 0.193787,-0.36851 0.227188,-0.37727 0.382553,-0.69782 0.420522,-0.86761 0.02439,-0.10905 0.01387,-0.1312 -0.104774,-0.22063 -0.07253,-0.0547 -0.16788,-0.10834 -0.21188,-0.11924 -0.044,-0.0109 -0.12452,-0.0528 -0.178934,-0.0932 -0.05441,-0.0403 -0.161263,-0.0996 -0.237443,-0.13161 -0.195852,-0.0824 -0.207163,-0.0878 -0.389032,-0.18778 -0.08988,-0.0494 -0.188093,-0.0898 -0.218239,-0.0898 -0.03015,0 -0.09838,-0.0283 -0.151627,-0.0628 -0.05325,-0.0346 -0.196932,-0.0908 -0.3192945,-0.12484 -0.1223622,-0.0341 -0.245922,-0.0774 -0.2745774,-0.0962 -0.06562,-0.0432 -0.8614461,-0.27152 -0.9457747,-0.27139 -0.034443,7e-5 -0.105676,0.0548 -0.1582953,0.1217 -0.117275,0.14906 -0.3698953,0.27392 -0.5309833,0.26245 l -0.1187215,-0.008 0.014151,-0.19597 c 0.00778,-0.10778 0.038004,-0.25475 0.067158,-0.3266 0.070565,-0.17392 0.1373841,-0.41706 0.1750263,-0.63689 0.016918,-0.0988 0.069297,-0.30183 0.1163985,-0.45119 0.08908,-0.28248 0.088634,-0.28836 -0.045493,-0.59976 -0.054769,-0.12715 -0.1830155,-0.21442 -0.4941583,-0.33626 -0.1871157,-0.0733 -0.3128385,-0.0617 -0.5508446,0.0507 -0.2125466,0.10036 -0.3485979,0.22052 -0.4593531,0.40569 -0.066753,0.11161 -0.1881814,0.53852 -0.1881814,0.6616 0,0.11952 -0.085283,0.33528 -0.1245974,0.31523 -0.018534,-0.009 -0.033698,-0.0577 -0.033698,-0.10732 0,-0.0496 -0.029272,-0.16995 -0.065048,-0.26752 -0.042607,-0.1162 -0.065019,-0.29571 -0.064961,-0.52034 7.91e-5,-0.3353 0.00327,-0.34739 0.1431516,-0.54292 0.2593331,-0.36253 0.6464807,-0.56796 1.0684959,-0.56698 0.3327647,7.8e-4 0.7523177,0.0786 0.9568621,0.17756 0.093248,0.0451 0.3320698,0.22556 0.5307146,0.40103 0.5729042,0.50604 0.7677071,0.62588 1.3948215,0.85808 0.101606,0.0376 0.252976,0.0764 0.336377,0.0863 0.0834,0.01 0.22499,0.0398 0.314638,0.0665 0.179213,0.0535 0.490458,0.0779 1.123152,0.088 0.60009,0.01 0.895869,0.0449 1.187215,0.1415 0.411538,0.13651 0.59615,0.30879 0.717193,0.66929 0.07685,0.22889 0.07747,0.24999 0.0165,0.56469 -0.08721,0.45015 -0.0863,0.44749 -0.197576,0.58281 -0.123242,0.14989 -0.456974,0.78943 -0.456974,0.87573 0,0.0667 -0.094,0.23804 -0.176573,0.32178 -0.06881,0.0698 -0.377634,0.69093 -0.377539,0.75936 7.9e-5,0.0696 -0.04088,0.0678 1.642392,0.0734 1.554077,0.005 1.576215,0.01 1.808844,0.35651 0.03718,0.0555 0.06861,0.0788 0.06986,0.0518 0.002,-0.0436 0.0065,-0.0436 0.04063,0 0.04688,0.0599 0.04688,0.41619 0,0.50624 -0.02333,0.0448 -0.03543,0.0499 -0.03854,0.0163 -0.0025,-0.0269 -0.03981,0.006 -0.08292,0.0736 -0.04312,0.0674 -0.152316,0.16294 -0.242664,0.2123 l -0.164271,0.0897 -2.258631,0.006 c -1.242246,0.003 -2.285343,-0.002 -2.317991,-0.012 z m -5.1099553,-6.982 c -0.00997,-0.008 -0.1417249,-0.0187 -0.2927928,-0.0233 -0.2131581,-0.006 -0.3191415,-0.0286 -0.4732515,-0.0988 -0.1092197,-0.0497 -0.2235734,-0.0907 -0.2541189,-0.091 -0.081463,-8.6e-4 -0.4856998,-0.32496 -0.5710622,-0.45784 -0.040388,-0.0629 -0.099503,-0.14818 -0.1313656,-0.18957 -0.085853,-0.11152 -0.1797347,-0.55593 -0.1531438,-0.72493 0.031216,-0.1984 0.1032327,-0.45725 0.1272139,-0.45725 0.038378,0 0.2538625,0.14974 0.4347504,0.30211 0.101296,0.0853 0.1983492,0.15514 0.2156734,0.15514 0.017324,0 0.1139532,0.0661 0.2147315,0.14697 0.1007783,0.0808 0.1993868,0.14698 0.2191297,0.14698 0.019743,0 0.1092974,0.0588 0.1990093,0.13064 0.089712,0.0718 0.1849173,0.13064 0.2115675,0.13064 0.026651,0 0.08238,0.0312 0.1238431,0.0693 0.041463,0.0381 0.1644289,0.11266 0.2732569,0.16564 0.108828,0.053 0.2691019,0.13888 0.3561643,0.19089 0.087062,0.052 0.1850076,0.0956 0.217656,0.097 0.032648,0.001 0.1182672,0.044 0.1902638,0.0949 l 0.1309031,0.0924 -0.1767426,0.0855 c -0.294468,0.14243 -0.8049616,0.28141 -0.8616855,0.23459 z m 1.211934,-0.52085 c -0.1305936,-0.0567 -0.3255184,-0.15042 -0.4331663,-0.20824 -0.1076479,-0.0578 -0.2121462,-0.10513 -0.2322188,-0.10513 -0.020072,0 -0.09988,-0.0459 -0.1773497,-0.10207 -0.07747,-0.0561 -0.1959359,-0.12106 -0.2632573,-0.14428 -0.067322,-0.0232 -0.1564864,-0.0733 -0.1981437,-0.11128 -0.041657,-0.038 -0.1392409,-0.10126 -0.2168527,-0.1406 -0.077611,-0.0393 -0.2114801,-0.12705 -0.2974859,-0.19491 -0.086005,-0.0679 -0.1737821,-0.12338 -0.195059,-0.12338 -0.021277,0 -0.095082,-0.0478 -0.1640113,-0.10615 -0.068929,-0.0584 -0.3595772,-0.29463 -0.6458844,-0.525 -0.2863073,-0.23036 -0.5205587,-0.42903 -0.5205587,-0.44149 0,-0.0125 -0.080137,-0.0917 -0.1780821,-0.17602 -0.097945,-0.0844 -0.1780822,-0.16335 -0.1780822,-0.17554 0,-0.0122 -0.080137,-0.0996 -0.1780822,-0.19419 -0.097945,-0.0946 -0.1780822,-0.18345 -0.1780822,-0.19739 0,-0.0139 -0.071233,-0.0951 -0.1582953,-0.18028 -0.087062,-0.0852 -0.1582953,-0.1692 -0.1582953,-0.18662 0,-0.0174 -0.063671,-0.10977 -0.1414903,-0.20521 -0.07782,-0.0954 -0.1677751,-0.22552 -0.1999008,-0.28906 -0.032126,-0.0636 -0.088208,-0.15229 -0.124627,-0.19719 -0.1081743,-0.13339 -0.2491323,-0.4964 -0.2212004,-0.56965 0.046369,-0.12161 0.1960522,-0.2766 0.350845,-0.3633 0.1288024,-0.0721 0.1788114,-0.082 0.3249627,-0.0639 0.317608,0.0393 0.4311843,0.0989 0.5449483,0.28576 0.2498286,0.41042 0.3224279,0.5156 0.4063407,0.58871 0.048973,0.0427 0.089041,0.0953 0.089041,0.117 0,0.0528 0.1994526,0.2993 0.2421707,0.2993 0.018581,0 0.058748,0.0493 0.08926,0.10958 0.030512,0.0603 0.1172693,0.16058 0.1927939,0.22291 0.075525,0.0623 0.1442924,0.13032 0.152817,0.15108 0.039919,0.0972 0.8135966,0.76655 1.2641785,1.09366 0.1185541,0.0861 0.2689774,0.1983 0.3342742,0.24941 0.065297,0.0511 0.1721461,0.11979 0.2374429,0.15263 0.065297,0.0328 0.1969138,0.11536 0.2924818,0.18335 0.095568,0.068 0.1887002,0.12363 0.2069596,0.12363 0.01826,0 0.1270541,0.0587 0.2417647,0.13051 0.1147111,0.0718 0.2306719,0.13056 0.2576905,0.13064 0.027019,6e-5 0.1276798,0.0496 0.2236918,0.11011 0.096012,0.0605 0.2163715,0.1187 0.2674656,0.12937 0.053439,0.0112 0.1489484,0.0903 0.2248525,0.18622 0.118727,0.15011 0.1293411,0.18251 0.1058901,0.32323 -0.034412,0.2065 -0.1413154,0.3447 -0.327173,0.42295 -0.2572599,0.10832 -0.3963955,0.10639 -0.6625734,-0.009 z m 0.3344846,-1.31141 c -0.028137,-0.028 -0.1327147,-0.0899 -0.2323952,-0.13754 -0.09968,-0.0477 -0.2674253,-0.14235 -0.3727664,-0.21041 -0.1053412,-0.0681 -0.2160157,-0.12374 -0.2459438,-0.12374 -0.029928,0 -0.071785,-0.0268 -0.093016,-0.0595 -0.02123,-0.0327 -0.1153501,-0.10254 -0.2091547,-0.15511 -0.093805,-0.0526 -0.2150746,-0.13274 -0.2694886,-0.17816 -0.054414,-0.0454 -0.1612634,-0.12388 -0.237443,-0.17436 l -0.1385083,-0.0918 0.3318308,0.0164 c 0.453588,0.0224 0.8394118,0.17348 1.1620809,0.455 0.1251522,0.10919 0.2275494,0.21859 0.2275494,0.24311 0,0.0245 0.044521,0.11708 0.098935,0.2057 0.1017391,0.1657 0.1252278,0.26129 0.064206,0.26129 -0.0191,0 -0.057749,-0.0229 -0.085886,-0.0509 z m -3.1640127,-4.61505 c -0.032648,-0.0159 -0.1573059,-0.0473 -0.2770167,-0.0698 -0.1197108,-0.0226 -0.2443684,-0.0592 -0.2770168,-0.0813 -0.032648,-0.0222 -0.1484018,-0.0822 -0.2572298,-0.13331 -0.108828,-0.0512 -0.2242306,-0.123 -0.2564503,-0.15967 -0.03222,-0.0367 -0.1168087,-0.11989 -0.1879757,-0.18494 -0.071167,-0.065 -0.1293944,-0.13446 -0.1293944,-0.15425 0,-0.0198 -0.042926,-0.11353 -0.095392,-0.20833 -0.1446601,-0.26139 -0.166618,-0.73317 -0.047246,-1.01511 0.1176753,-0.27794 0.2764166,-0.49545 0.4818273,-0.66021 0.2247742,-0.18029 0.6744231,-0.37235 0.9363456,-0.39993 0.2002835,-0.0211 0.2030355,-0.0227 0.069975,-0.0408 -0.1212179,-0.0165 -0.1063974,-0.0218 0.1187214,-0.042 0.1414764,-0.0127 0.346271,-0.0101 0.455099,0.006 0.1829644,0.0267 0.1874358,0.0295 0.059361,0.0366 -0.1276014,0.007 -0.1230924,0.01 0.057263,0.0347 0.2704321,0.0373 0.7197991,0.23016 0.9260583,0.39736 0.2275399,0.18446 0.4150371,0.43239 0.4774296,0.63131 0.027842,0.0888 0.066823,0.19813 0.086625,0.24304 0.022965,0.0521 0.016539,0.21963 -0.017742,0.46265 -0.050351,0.35695 -0.063284,0.39201 -0.2048183,0.55524 -0.207994,0.23987 -0.3606892,0.37275 -0.592699,0.51577 -0.298127,0.18377 -0.4065692,0.21911 -0.7480513,0.24374 -0.1720068,0.0124 -0.3589931,0.0293 -0.4155251,0.0374 -0.056532,0.008 -0.1294982,0.002 -0.1621466,-0.0139 z"
         id="path1464"
         inkscape:connector-curvature="0" />
    </g>
  </g>
</svg>
