<?xml version="1.0" encoding="UTF-8" standalone="no"?>
<svg
   xmlns:osb="http://www.openswatchbook.org/uri/2009/osb"
   xmlns:dc="http://purl.org/dc/elements/1.1/"
   xmlns:cc="http://creativecommons.org/ns#"
   xmlns:rdf="http://www.w3.org/1999/02/22-rdf-syntax-ns#"
   xmlns:svg="http://www.w3.org/2000/svg"
   xmlns="http://www.w3.org/2000/svg"
   xmlns:sodipodi="http://sodipodi.sourceforge.net/DTD/sodipodi-0.dtd"
   xmlns:inkscape="http://www.inkscape.org/namespaces/inkscape"
   width="64"
   height="64"
   viewBox="0 0 16.933333 16.933334"
   version="1.1"
   id="svg820"
   sodipodi:docname="hat.svg"
   inkscape:version="0.92.4 (5da689c313, 2019-01-14)">
  <defs
     id="defs814">
    <linearGradient
       id="linearGradient5235"
       osb:paint="solid">
      <stop
         style="stop-color:#ffffff;stop-opacity:1;"
         offset="0"
         id="stop5233" />
    </linearGradient>
  </defs>
  <sodipodi:namedview
     id="base"
     pagecolor="#ffffff"
     bordercolor="#666666"
     borderopacity="1.0"
     inkscape:pageopacity="0.0"
     inkscape:pageshadow="2"
     inkscape:zoom="5.6568543"
     inkscape:cx="4.6725641"
     inkscape:cy="56.480454"
     inkscape:document-units="mm"
     inkscape:current-layer="layer1"
     showgrid="false"
     inkscape:pagecheckerboard="true"
     units="px"
     inkscape:window-width="1920"
     inkscape:window-height="1017"
     inkscape:window-x="-8"
     inkscape:window-y="-8"
     inkscape:window-maximized="1"
     borderlayer="false" />
  <metadata
     id="metadata817">
    <rdf:RDF>
      <cc:Work
         rdf:about="">
        <dc:format>image/svg+xml</dc:format>
        <dc:type
           rdf:resource="http://purl.org/dc/dcmitype/StillImage" />
        <dc:title></dc:title>
      </cc:Work>
    </rdf:RDF>
  </metadata>
  <g
     inkscape:label="Layer 1"
     inkscape:groupmode="layer"
     id="layer1"
     transform="translate(0,-280.06665)"
     style="display:inline">
    <path
       style="fill:#000000;stroke-width:0.26964495"
       d=""
       id="path5163"
       inkscape:connector-curvature="0" />
    <path
       style="fill:#000000;stroke-width:0.26964495"
       d=""
       id="path5161"
       inkscape:connector-curvature="0" />
    <path
       style="fill:#000000;stroke-width:0.26964495"
       d=""
       id="path5121"
       inkscape:connector-curvature="0" />
    <path
       style="fill:#000000;stroke-width:0.26964495"
       d=""
       id="path5119"
       inkscape:connector-curvature="0" />
    <path
       style="fill:#000000;stroke-width:0.26964495"
       d=""
       id="path5111"
       inkscape:connector-curvature="0" />
    <path
       style="fill:#000000;stroke-width:0.26964495"
       d=""
       id="path5109"
       inkscape:connector-curvature="0" />
    <path
       style="fill:#000000;stroke-width:0.26964495"
       d=""
       id="path5107"
       inkscape:connector-curvature="0" />
    <path
       style="fill:#000000;stroke-width:0.26964495"
       d=""
       id="path5105"
       inkscape:connector-curvature="0" />
    <path
       style="fill:#000000;stroke-width:0.26964495"
       d=""
       id="path5103"
       inkscape:connector-curvature="0" />
    <path
       style="fill:#000000;stroke-width:0.26964495"
       d=""
       id="path5101"
       inkscape:connector-curvature="0" />
    <path
       style="fill:#000000;stroke-width:0.26964495"
       d=""
       id="path5099"
       inkscape:connector-curvature="0" />
    <path
       style="fill:#000000;stroke-width:0.26964495"
       d=""
       id="path5089"
       inkscape:connector-curvature="0" />
    <path
       style="fill:#000000;stroke-width:0.26964495"
       d=""
       id="path5087"
       inkscape:connector-curvature="0" />
    <path
       style="fill:#000000;stroke-width:0.26964495"
       d=""
       id="path5085"
       inkscape:connector-curvature="0" />
    <path
       style="fill:#000000;stroke-width:0.26964495"
       d=""
       id="path5083"
       inkscape:connector-curvature="0" />
    <path
       style="fill:#000000;stroke-width:0.26964495"
       d=""
       id="path5081"
       inkscape:connector-curvature="0" />
    <path
       style="display:inline;fill:#000000;stroke-width:0.26964495"
       d=""
       id="path5079"
       inkscape:connector-curvature="0" />
    <path
       style="display:inline;fill:none;stroke:#000000;stroke-width:0.26458332px;stroke-linecap:butt;stroke-linejoin:miter;stroke-opacity:1"
       d="m 287.63989,273.94344 v -1.13393"
       id="path5571"
       inkscape:connector-curvature="0" />
    <path
       style="opacity:1;fill:#ffffff;fill-opacity:1;stroke:#ffffff;stroke-width:0.66813242;stroke-miterlimit:4;stroke-dasharray:none;stroke-opacity:1"
       d="m 23.689722,63.973184 c -0.0448,-0.218762 -0.171923,-1.312567 -0.282488,-2.43068 -0.110563,-1.118113 -0.353845,-3.091326 -0.540623,-4.384919 -0.186781,-1.293594 -0.339601,-2.745373 -0.339601,-3.226175 0,-0.480803 -0.03521,-0.874187 -0.07825,-0.874187 -0.378563,0 -4.070596,1.355154 -4.907925,1.801446 -0.870775,0.464118 -1.126969,0.707018 -1.387998,1.315974 -0.176063,0.410738 -0.472048,0.82811 -0.657744,0.927492 -0.815803,0.436605 -5.343612,1.832142 -6.2263328,1.919047 -0.5362539,0.05279 -1.2893758,0.278742 -1.6793786,0.503835 C 5.3810589,60.799566 2.43205,60.578689 0.74643213,59.012487 0.4829896,58.767707 0.21599982,58.362457 0.15312153,58.11193 -0.06049931,57.260797 0.20548136,54.92145 0.84175457,52.055279 1.8963197,47.304863 3.0049191,44.237545 5.8037005,38.326366 c 0.6140327,-1.296869 0.9901839,-2.325798 0.9901839,-2.70856 0,-0.352401 0.2058342,-0.968466 0.4797267,-1.435828 0.443045,-0.756 0.4767412,-0.949991 0.4406828,-2.537038 -0.032709,-1.439639 0.031,-1.914231 0.3926813,-2.925198 0.2374489,-0.663713 0.4827904,-1.741795 0.5452034,-2.395736 0.099389,-1.041365 0.1807603,-1.245599 0.6553944,-1.644976 0.778193,-0.654807 2.192915,-1.334664 2.517849,-1.209975 0.17502,0.06716 0.412102,-0.06427 0.641124,-0.355427 0.308685,-0.392428 0.501965,-0.461997 1.283561,-0.461997 0.718705,0 0.990394,-0.08203 1.240981,-0.374697 0.263964,-0.308288 0.458917,-0.359135 1.099947,-0.286881 0.428517,0.0483 0.779121,0.02372 0.779121,-0.05462 0,-0.23763 0.538577,-0.698018 0.816563,-0.698018 0.143538,0 0.455867,0.210286 0.694063,0.467303 l 0.433083,0.467306 0.751718,-0.84673 c 0.966341,-1.08848 1.179935,-1.470298 1.186411,-2.120811 0.0082,-0.823615 -0.305615,-1.77195 -1.324402,-4.002322 -1.029467,-2.25375 -1.673552,-4.20978 -1.673552,-5.08242 0,-0.6863542 0.674003,-2.059263 1.335901,-2.7211621 C 19.359152,7.1293715 20.063638,6.6197331 20.655465,6.2660521 21.247292,5.912371 22.248587,5.209406 22.880564,4.7039075 23.51254,4.1984091 24.42736,3.504192 24.913496,3.1612028 c 1.084502,-0.765161 5.241906,-2.71779438 6.124891,-2.87671445 1.041514,-0.18745242 1.977976,0.3666868 4.225916,2.50063365 2.896062,2.7492018 3.441498,2.8601239 5.539402,1.1265157 1.047079,-0.8652544 1.438597,-0.9029662 1.588586,-0.1530158 0.140801,0.7040066 0.142516,1.9868376 0.0031,2.3500434 -0.05904,0.1538551 -0.4369,0.4258565 -0.839689,0.6044476 -1.185117,0.5254636 -1.28689,0.7519511 -0.822735,1.8309098 0.217252,0.5050178 0.702428,2.1481623 1.078168,3.6514333 0.764315,3.057894 1.920815,5.692372 3.826524,8.716717 0.591829,0.939227 1.211566,1.993258 1.377192,2.342291 0.327494,0.690142 0.821571,0.815931 1.777412,0.452522 0.828039,-0.31482 1.566382,0.07733 2.618128,1.390561 0.518898,0.647904 1.371973,1.579936 1.895723,2.071187 0.847616,0.795017 1.146549,0.948953 2.720038,1.400677 0.972272,0.279125 3.159884,0.796425 4.861359,1.149556 l 3.093593,0.642055 0.04508,17.004955 0.04508,17.004954 H 43.921247 23.771188 l -0.08146,-0.397747 z M 11.875165,45.817079 c 1.346056,-0.9453 1.624171,-1.273517 2.52081,-2.974937 0.872796,-1.656176 1.411618,-2.048407 3.287034,-2.392768 1.567746,-0.287866 1.571548,-0.289866 2.544135,-1.33726 0.807277,-0.869372 1.147473,-1.099072 1.987021,-1.341633 0.718373,-0.20755 1.181084,-0.47787 1.59099,-0.929465 1.273919,-1.403482 1.715956,-1.674878 5.300253,-3.254173 2.021058,-0.890509 3.674651,-1.675636 3.674651,-1.744729 0,-0.06909 -0.40617,-0.173729 -0.902601,-0.232524 -1.05841,-0.125354 -1.34675,-0.323572 -1.536631,-1.05635 -0.117797,-0.454588 -0.263332,-0.569003 -0.927373,-0.729068 -0.522106,-0.125852 -0.844004,-0.318208 -0.95481,-0.570566 -0.09194,-0.209387 -0.406724,-0.48781 -0.699519,-0.618718 -0.32995,-0.147519 -0.669664,-0.520528 -0.893497,-0.981065 -0.337199,-0.693787 -0.410115,-0.743597 -1.099816,-0.751301 -1.198104,-0.01338 -1.294258,-0.22303 -1.294258,-2.821906 0,-2.01809 -0.03682,-2.291392 -0.346431,-2.571586 -0.46706,-0.422684 -0.995912,-0.266284 -2.129507,0.62977 -0.576589,0.455768 -1.045845,1.013212 -1.259486,1.496183 -0.187279,0.423373 -0.417791,0.817536 -0.51225,0.875915 -0.09446,0.05838 -0.171743,0.392794 -0.171743,0.743146 0,0.409411 -0.193772,0.938971 -0.542344,1.482174 -0.45905,0.715367 -0.841053,2.130401 -0.868315,3.216464 -0.002,0.07788 -0.29224,0.406067 -0.645078,0.729308 -0.352837,0.323242 -0.929571,1.170575 -1.28163,1.882964 -0.526916,1.066205 -0.78078,1.376355 -1.435604,1.75389 -0.437523,0.252251 -0.875045,0.653767 -0.972272,0.892257 -0.09723,0.238489 -0.516071,1.091336 -0.930764,1.895216 -0.884764,1.715107 -1.929141,4.299333 -2.582133,6.389279 -0.448487,1.435414 -0.622375,3.197666 -0.315526,3.197666 0.08198,0 0.710491,-0.394283 1.396694,-0.876183 z"
       id="path5666"
       inkscape:connector-curvature="0"
       transform="matrix(0.26458333,0,0,0.26458333,0,280.06665)" />
  </g>
</svg>
