<?xml version="1.0" encoding="UTF-8" standalone="no"?>
<svg
   xmlns:dc="http://purl.org/dc/elements/1.1/"
   xmlns:cc="http://creativecommons.org/ns#"
   xmlns:rdf="http://www.w3.org/1999/02/22-rdf-syntax-ns#"
   xmlns:svg="http://www.w3.org/2000/svg"
   xmlns="http://www.w3.org/2000/svg"
   xmlns:sodipodi="http://sodipodi.sourceforge.net/DTD/sodipodi-0.dtd"
   xmlns:inkscape="http://www.inkscape.org/namespaces/inkscape"
   width="128"
   height="128"
   viewBox="0 0 33.866666 33.866667"
   version="1.1"
   id="svg822"
   inkscape:version="0.92.4 (5da689c313, 2019-01-14)"
   sodipodi:docname="drawing.svg">
  <defs
     id="defs816" />
  <sodipodi:namedview
     id="base"
     pagecolor="#ffffff"
     bordercolor="#666666"
     borderopacity="1.0"
     inkscape:pageopacity="0"
     inkscape:pageshadow="2"
     inkscape:zoom="3.959798"
     inkscape:cx="60.941557"
     inkscape:cy="71.406287"
     inkscape:document-units="mm"
     inkscape:current-layer="layer1"
     showgrid="false"
     units="px"
     inkscape:pagecheckerboard="true"
     inkscape:window-width="1920"
     inkscape:window-height="1017"
     inkscape:window-x="-8"
     inkscape:window-y="-8"
     inkscape:window-maximized="1" />
  <metadata
     id="metadata819">
    <rdf:RDF>
      <cc:Work
         rdf:about="">
        <dc:format>image/svg+xml</dc:format>
        <dc:type
           rdf:resource="http://purl.org/dc/dcmitype/StillImage" />
        <dc:title></dc:title>
      </cc:Work>
    </rdf:RDF>
  </metadata>
  <g
     inkscape:label="Layer 1"
     inkscape:groupmode="layer"
     id="layer1"
     transform="translate(0,-263.13332)"
     style="display:inline">
    <path
       style="fill:#fefefe;stroke-width:0.54853719"
       d="m 3.8243076,292.37944 c -0.6854328,-1.96998 -0.7379935,-1.8588 1.1936745,-2.52465 l 1.7054359,-0.58786 -1.7352058,0.27694 -1.7352059,0.27693 -0.7573545,-1.98067 c -0.4165451,-1.08937 -0.7573546,-2.76304 -0.7573546,-3.7193 v -1.73862 l 1.9678109,-0.0689 1.9678108,-0.0689 -2.1452506,-0.56644 -2.1452509,-0.56644 -0.60968438,-1.84237 c -0.33532639,-1.01331 -0.60968433,-2.39801 -0.60968433,-3.0771 v -1.23472 L 1.6071099,274.1682 c 0.7936836,-0.43384 2.7023803,-1.27323 4.2415479,-1.86513 l 2.7984861,-1.07621 0.5404092,1.0552 c 0.2972254,0.58036 0.9860389,1.54214 1.5306979,2.13729 l 0.990288,1.0821 h 2.814915 2.814916 l 0.807337,2.15028 0.807335,2.15025 0.0639,-1.4335 0.06391,-1.4335 1.845282,-1.00348 c 2.867207,-1.55915 5.447957,-1.10929 6.218177,1.08397 l 0.341509,0.97247 -1.722834,2.05263 -1.722834,2.05262 1.662797,-1.63829 1.662793,-1.63829 0.567391,0.38317 c 1.738845,1.17432 -1.424765,4.67676 -6.627162,7.33698 l -3.308642,1.69186 -3.366483,0.45622 c -3.808458,0.5161 -4.563881,0.86619 -4.186678,1.94032 l 0.264043,0.75187 -2.9574027,1.23667 c -1.6265721,0.68017 -3.0603037,1.23666 -3.1860714,1.23666 -0.1257676,0 -0.458961,-0.66188 -0.7404303,-1.47083 z m 11.9073104,-6.36568 c -0.192409,-0.2103 -0.507258,-0.2103 -0.699666,0 -0.192407,0.2103 -0.03498,0.38227 0.349833,0.38227 0.384816,0 0.542241,-0.17193 0.349833,-0.38227 z m 1.574249,-0.5734 c -0.192408,-0.2103 -0.507258,-0.2103 -0.699667,0 -0.192407,0.2103 -0.03498,0.38227 0.349834,0.38227 0.384816,0 0.542241,-0.17193 0.349833,-0.38227 z m 4.393819,-1.923 c 1.142952,-0.63716 2.078094,-1.28748 2.078094,-1.44516 0,-0.25691 -4.142311,1.85666 -4.679019,2.38741 -0.580829,0.57438 0.736267,0.0971 2.600925,-0.94225 z m -8.067066,-6.10464 c -0.192409,-0.2103 -0.507258,-0.2103 -0.699666,0 -0.192408,0.2103 -0.03498,0.38227 0.349834,0.38227 0.384815,0 0.54224,-0.17193 0.349832,-0.38227 z m 17.051133,6.37602 c -0.33494,-0.80328 -0.610473,-2.67401 -0.612297,-4.15717 l -0.0034,-2.69668 -1.621224,-1.00833 c -0.891673,-0.55458 -1.744201,-1.5222 -1.894508,-2.15027 l -0.273283,-1.14192 h -2.537855 c -3.904288,0 -6.759045,-1.9782 -5.243946,-3.63377 l 0.526194,-0.57498 2.07098,0.74684 2.070976,0.74686 1.355651,-0.36269 c 0.74561,-0.19946 1.945998,-0.5218 2.667528,-0.71625 l 1.311875,-0.35354 v 1.74544 1.74543 l 1.382641,1.18843 c 0.760452,0.65364 1.968665,1.18842 2.68492,1.18842 h 1.302281 l -0.389159,1.57685 c -0.214038,0.86728 -0.38916,2.60901 -0.38916,3.87048 0,1.26148 0.175114,3.00321 0.38916,3.87047 l 0.389159,1.57687 H 32.581488 31.29267 Z"
       id="path1436"
       inkscape:connector-curvature="0" />
    <path
       style="fill:#000000;stroke-width:0.2645863"
       d=""
       id="path1426"
       inkscape:connector-curvature="0" />
  </g>
</svg>
