<?xml version="1.0" encoding="UTF-8" standalone="no"?>
<svg
   xmlns:osb="http://www.openswatchbook.org/uri/2009/osb"
   xmlns:dc="http://purl.org/dc/elements/1.1/"
   xmlns:cc="http://creativecommons.org/ns#"
   xmlns:rdf="http://www.w3.org/1999/02/22-rdf-syntax-ns#"
   xmlns:svg="http://www.w3.org/2000/svg"
   xmlns="http://www.w3.org/2000/svg"
   xmlns:sodipodi="http://sodipodi.sourceforge.net/DTD/sodipodi-0.dtd"
   xmlns:inkscape="http://www.inkscape.org/namespaces/inkscape"
   width="64"
   height="64"
   viewBox="0 0 16.933333 16.933334"
   version="1.1"
   id="svg820"
   sodipodi:docname="piss.svg"
   inkscape:version="0.92.4 (5da689c313, 2019-01-14)">
  <defs
     id="defs814">
    <linearGradient
       id="linearGradient5235"
       osb:paint="solid">
      <stop
         style="stop-color:#ffffff;stop-opacity:1;"
         offset="0"
         id="stop5233" />
    </linearGradient>
  </defs>
  <sodipodi:namedview
     id="base"
     pagecolor="#ffffff"
     bordercolor="#666666"
     borderopacity="1.0"
     inkscape:pageopacity="0.0"
     inkscape:pageshadow="2"
     inkscape:zoom="8"
     inkscape:cx="18.580805"
     inkscape:cy="31.404933"
     inkscape:document-units="mm"
     inkscape:current-layer="layer1"
     showgrid="false"
     inkscape:pagecheckerboard="true"
     units="px"
     inkscape:window-width="1920"
     inkscape:window-height="1017"
     inkscape:window-x="-8"
     inkscape:window-y="-8"
     inkscape:window-maximized="1"
     borderlayer="false" />
  <metadata
     id="metadata817">
    <rdf:RDF>
      <cc:Work
         rdf:about="">
        <dc:format>image/svg+xml</dc:format>
        <dc:type
           rdf:resource="http://purl.org/dc/dcmitype/StillImage" />
        <dc:title></dc:title>
      </cc:Work>
    </rdf:RDF>
  </metadata>
  <g
     inkscape:label="Layer 1"
     inkscape:groupmode="layer"
     id="layer1"
     transform="translate(0,-280.06665)"
     style="display:inline">
    <path
       style="fill:#000000;stroke-width:0.26964495"
       d=""
       id="path5163"
       inkscape:connector-curvature="0" />
    <path
       style="fill:#000000;stroke-width:0.26964495"
       d=""
       id="path5161"
       inkscape:connector-curvature="0" />
    <path
       style="fill:#000000;stroke-width:0.26964495"
       d=""
       id="path5121"
       inkscape:connector-curvature="0" />
    <path
       style="fill:#000000;stroke-width:0.26964495"
       d=""
       id="path5119"
       inkscape:connector-curvature="0" />
    <path
       style="fill:#000000;stroke-width:0.26964495"
       d=""
       id="path5111"
       inkscape:connector-curvature="0" />
    <path
       style="fill:#000000;stroke-width:0.26964495"
       d=""
       id="path5109"
       inkscape:connector-curvature="0" />
    <path
       style="fill:#000000;stroke-width:0.26964495"
       d=""
       id="path5107"
       inkscape:connector-curvature="0" />
    <path
       style="fill:#000000;stroke-width:0.26964495"
       d=""
       id="path5105"
       inkscape:connector-curvature="0" />
    <path
       style="fill:#000000;stroke-width:0.26964495"
       d=""
       id="path5103"
       inkscape:connector-curvature="0" />
    <path
       style="fill:#000000;stroke-width:0.26964495"
       d=""
       id="path5101"
       inkscape:connector-curvature="0" />
    <path
       style="fill:#000000;stroke-width:0.26964495"
       d=""
       id="path5099"
       inkscape:connector-curvature="0" />
    <path
       style="fill:#000000;stroke-width:0.26964495"
       d=""
       id="path5089"
       inkscape:connector-curvature="0" />
    <path
       style="fill:#000000;stroke-width:0.26964495"
       d=""
       id="path5087"
       inkscape:connector-curvature="0" />
    <path
       style="fill:#000000;stroke-width:0.26964495"
       d=""
       id="path5085"
       inkscape:connector-curvature="0" />
    <path
       style="fill:#000000;stroke-width:0.26964495"
       d=""
       id="path5083"
       inkscape:connector-curvature="0" />
    <path
       style="fill:#000000;stroke-width:0.26964495"
       d=""
       id="path5081"
       inkscape:connector-curvature="0" />
    <path
       style="display:inline;fill:#000000;stroke-width:0.26964495"
       d=""
       id="path5079"
       inkscape:connector-curvature="0" />
    <path
       style="display:inline;fill:none;stroke:#000000;stroke-width:0.26458332px;stroke-linecap:butt;stroke-linejoin:miter;stroke-opacity:1"
       d="m 287.63989,273.94344 v -1.13393"
       id="path5571"
       inkscape:connector-curvature="0" />
    <path
       style="opacity:1;fill:#ffffff;fill-opacity:1;stroke:#ffffff;stroke-width:0.47244096;stroke-miterlimit:4;stroke-dasharray:none;stroke-opacity:1"
       d="m 13.373774,64.170065 c -0.626405,-0.13017 -1.374302,-0.499215 -1.888452,-0.931843 -0.868309,-0.730634 -1.6043914,-2.43804 -1.502184,-3.484444 0.028,-0.286666 0.563833,-3.024336 1.19074,-6.083711 2.441522,-11.914899 2.345161,-11.366193 2.337884,-13.3125 -0.01183,-3.162413 -0.2581,-3.931549 -3.8556575,-12.041591 C 8.5378626,25.795101 7.5249834,23.479442 7.4052616,23.170067 7.28554,22.860692 6.9360987,22.045067 6.6287256,21.357567 6.0989671,20.172658 6.030643,20.081531 5.3166515,19.607567 1.6788313,17.192702 -0.07775331,12.114414 1.2175668,7.7571089 1.548829,6.6427817 2.4399725,4.9125265 3.1457976,4.0132323 4.3589087,2.4676033 6.8302591,0.93136225 8.8308054,0.47931734 10.155774,0.1799264 12.237962,0.20340775 13.490979,0.53187128 c 1.235526,0.32387831 2.88619,1.13950312 3.806319,1.88077502 1.115345,0.8985415 2.215979,2.2985398 2.904826,3.6949206 0.792729,1.6069605 1.003685,2.4184766 1.090453,4.1948071 0.15442,3.161322 -0.844758,5.708278 -3.198505,8.15316 l -1.05704,1.097968 0.506888,0.527032 c 0.278788,0.289868 2.981395,3.076195 6.005793,6.191838 6.252917,6.441566 6.214661,6.391796 6.214782,8.085195 8.7e-5,1.204854 -0.301127,1.972115 -1.09592,2.791565 -0.869978,0.896969 -1.335432,1.082744 -2.71277,1.082744 -1.376972,0 -1.773887,-0.158053 -2.868582,-1.142278 l -0.668023,-0.60061 0.08303,0.434289 c 0.181198,0.947802 0.238047,4.910732 0.08585,5.984339 -0.358218,2.526803 -3.398293,17.474938 -3.701413,18.199951 -0.823002,1.968483 -2.137978,2.918167 -4.305855,3.109716 -0.378125,0.03341 -0.921288,0.01216 -1.207031,-0.04722 z m 2.418356,-2.191637 c 0.6313,-0.31459 1.142909,-0.8944 1.404324,-1.591528 0.07129,-0.190117 0.931818,-4.352617 1.912279,-9.249999 l 1.782657,-8.904334 -0.0103,-2 c -0.0123,-2.389135 -0.251668,-3.694109 -1.053722,-5.744574 L 19.29165,33.118421 16.404975,30.134212 c -1.587671,-1.641315 -2.928408,-3.095866 -2.979415,-3.232336 -0.109532,-0.293055 0.176663,-0.915315 0.47334,-1.029162 0.715322,-0.274493 0.682887,-0.302401 5.934152,5.105983 5.341823,5.501652 5.386691,5.539481 6.407751,5.402529 0.661429,-0.08872 1.086035,-0.410745 1.441789,-1.093477 0.313648,-0.60193 0.308732,-1.326551 -0.01317,-1.940925 -0.153121,-0.292242 -2.566135,-2.810402 -9.556187,-9.972598 l -2.78964,-2.85834 -1.215146,0.411373 c -1.117569,0.37834 -1.345635,0.412134 -2.840147,0.420842 -0.89375,0.0052 -1.8359372,-0.03527 -2.0937496,-0.08995 -0.3732449,-0.07916 -0.46875,-0.06218 -0.46875,0.08333 0,0.100509 0.9736934,2.395246 2.1637636,5.099415 3.998298,9.085242 4.137388,9.452861 4.453016,11.769465 0.152768,1.121267 0.164385,3.505602 0.02112,4.334705 -0.05346,0.309375 -0.580383,2.925 -1.170943,5.8125 -2.546747,12.452127 -2.471728,11.938883 -1.890136,12.931245 0.593807,1.013205 2.219211,1.332596 3.509504,0.689616 z M 13.545119,19.113481 c 4.010865,-1.275303 6.58099,-5.73688 5.730506,-9.9478068 C 18.878213,7.198001 17.667227,5.1371204 16.229667,3.9819983 14.742738,2.7872076 12.978832,2.1751283 11.013318,2.1719145 9.627807,2.1696491 8.7142156,2.3912369 7.3308054,3.0650929 5.8877717,3.7679913 4.3312004,5.2976679 3.662449,6.6700669 2.35645,9.3502132 2.3757125,12.296558 3.7170767,15.025819 c 1.1023917,2.243025 3.6059404,4.042909 6.1762286,4.440294 0.8922747,0.137951 2.6395507,-0.03077 3.6518137,-0.352632 z"
       id="path5679"
       inkscape:connector-curvature="0"
       transform="matrix(0.26458333,0,0,0.26458333,0,280.06665)" />
    <path
       style="opacity:1;fill:#ffffff;fill-opacity:1;stroke:#ffffff;stroke-width:0.47244096;stroke-miterlimit:4;stroke-dasharray:none;stroke-opacity:1"
       d="M 9.3933053,16.936743 C 8.2935907,16.620738 7.4564869,16.118119 6.5881174,15.252433 5.1498436,13.818606 4.5096011,11.882832 5.2451118,11.191856 5.5331472,10.921261 5.5587064,10.920067 11.063294,10.920067 h 5.528875 l 0.323201,0.323201 c 0.289469,0.289468 0.316068,0.392326 0.254849,0.985483 -0.105185,1.019141 -0.639621,2.014371 -1.579479,2.941316 -1.757348,1.733202 -4.044734,2.385257 -6.1974347,1.766676 z M 13.04793,14.678352 c 0.428794,-0.229011 1.047544,-0.704249 1.375,-1.056085 l 0.595375,-0.6397 -3.862749,-0.03308 c -2.1245121,-0.0182 -3.8884611,-0.0074 -3.9198865,0.02405 -0.1018014,0.101801 0.4614846,0.793672 0.9814526,1.205494 0.2786196,0.220671 0.8259915,0.535929 1.2163821,0.700574 0.6013918,0.253633 0.8720788,0.292923 1.7723008,0.257243 0.919323,-0.03644 1.167558,-0.09822 1.842125,-0.458495 z"
       id="path5681"
       inkscape:connector-curvature="0"
       transform="matrix(0.26458333,0,0,0.26458333,0,280.06665)" />
    <path
       style="opacity:1;fill:#ffffff;fill-opacity:1;stroke:#ffffff;stroke-width:0.47244096;stroke-miterlimit:4;stroke-dasharray:none;stroke-opacity:1"
       d="m 29.893305,25.900725 c -0.674307,-0.368817 -0.714719,-0.811242 -0.17226,-1.885849 0.773186,-1.531671 0.933663,-1.719809 1.466955,-1.719809 1.049324,0 1.155075,0.764985 0.327308,2.367695 -0.657081,1.272231 -1.033747,1.559714 -1.622003,1.237963 z"
       id="path5683"
       inkscape:connector-curvature="0"
       transform="matrix(0.26458333,0,0,0.26458333,0,280.06665)" />
    <path
       style="opacity:1;fill:#ffffff;fill-opacity:1;stroke:#ffffff;stroke-width:0.47244096;stroke-miterlimit:4;stroke-dasharray:none;stroke-opacity:1"
       d="m 34.82119,19.179682 c -0.41595,-0.415949 -0.468592,-0.8607 -0.146635,-1.238847 0.120313,-0.14131 0.636579,-0.541291 1.147258,-0.888848 1.016499,-0.691805 1.480122,-0.78579 1.883992,-0.38192 0.284195,0.284195 0.33473,0.970717 0.09375,1.273616 -0.238598,0.299905 -2.208055,1.601384 -2.423287,1.601384 -0.104332,0 -0.354117,-0.164423 -0.555078,-0.365385 z"
       id="path5685"
       inkscape:connector-curvature="0"
       transform="matrix(0.26458333,0,0,0.26458333,0,280.06665)" />
    <path
       style="opacity:1;fill:#ffffff;fill-opacity:1;stroke:#ffffff;stroke-width:0.47244096;stroke-miterlimit:4;stroke-dasharray:none;stroke-opacity:1"
       d="m 42.270981,15.996606 c -0.408051,-0.408051 -0.417616,-0.985462 -0.02286,-1.380215 0.309741,-0.30974 0.879749,-0.428094 2.312134,-0.480081 0.729729,-0.02648 0.815655,-0.0012 1.09375,0.321977 0.368985,0.42879 0.383621,0.824052 0.04639,1.252774 -0.276523,0.351543 -0.492667,0.405875 -2.085658,0.524272 -0.981968,0.07298 -1.042857,0.06217 -1.34375,-0.238727 z"
       id="path5687"
       inkscape:connector-curvature="0"
       transform="matrix(0.26458333,0,0,0.26458333,0,280.06665)" />
    <path
       style="opacity:1;fill:#ffffff;fill-opacity:1;stroke:#ffffff;stroke-width:0.47244096;stroke-miterlimit:4;stroke-dasharray:none;stroke-opacity:1"
       d="m 51.643305,17.476672 c -0.48125,-0.23205 -0.943868,-0.424091 -1.02804,-0.426757 -0.258278,-0.0082 -0.558528,-0.735707 -0.46999,-1.138816 0.08761,-0.398873 0.480444,-0.741032 0.850788,-0.741032 0.35538,0 2.218706,0.839842 2.54645,1.147742 0.604211,0.567627 0.171347,1.615774 -0.657264,1.591515 -0.201819,-0.0059 -0.760694,-0.200602 -1.241944,-0.432652 z"
       id="path5689"
       inkscape:connector-curvature="0"
       transform="matrix(0.26458333,0,0,0.26458333,0,280.06665)" />
    <path
       style="opacity:1;fill:#ffffff;fill-opacity:1;stroke:#ffffff;stroke-width:0.47244096;stroke-miterlimit:4;stroke-dasharray:none;stroke-opacity:1"
       d="m 58.412055,23.131258 c -0.859145,-0.902913 -1.58125,-1.937047 -1.58125,-2.264524 0,-0.411457 0.511091,-0.946667 0.904005,-0.946667 0.429557,0 0.744337,0.269344 1.521366,1.301774 0.87968,1.168821 0.932079,1.756962 0.190689,2.140349 -0.496903,0.256958 -0.590429,0.236087 -1.03481,-0.230932 z"
       id="path5691"
       inkscape:connector-curvature="0"
       transform="matrix(0.26458333,0,0,0.26458333,0,280.06665)" />
    <path
       style="opacity:1;fill:#ffffff;fill-opacity:1;stroke:#ffffff;stroke-width:0.47244096;stroke-miterlimit:4;stroke-dasharray:none;stroke-opacity:1"
       d="m 61.308931,31.168515 c -0.262096,-0.156947 -0.409347,-0.64426 -0.606427,-2.006905 -0.175941,-1.21649 -0.09406,-1.514571 0.47006,-1.711225 0.817648,-0.285033 1.198192,0.199968 1.483935,1.891266 0.201867,1.194843 0.200868,1.233254 -0.04053,1.557981 -0.26827,0.360876 -0.927083,0.496406 -1.307038,0.268883 z"
       id="path5693"
       inkscape:connector-curvature="0"
       transform="matrix(0.26458333,0,0,0.26458333,0,280.06665)" />
    <path
       style="opacity:1;fill:#ffffff;fill-opacity:1;stroke:#ffffff;stroke-width:0.47244096;stroke-miterlimit:4;stroke-dasharray:none;stroke-opacity:1"
       d="m 61.484425,39.711405 c -0.353535,-0.142244 -0.52862,-0.776956 -0.52862,-1.916338 0,-1.283093 0.191472,-1.824174 0.689774,-1.94924 0.931993,-0.233916 1.310226,0.347461 1.310226,2.013932 0,1.116035 -0.181423,1.709278 -0.5681,1.85766 -0.233609,0.08964 -0.672797,0.08672 -0.90328,-0.006 z"
       id="path5695"
       inkscape:connector-curvature="0"
       transform="matrix(0.26458333,0,0,0.26458333,0,280.06665)" />
    <path
       style="opacity:1;fill:#ffffff;fill-opacity:1;stroke:#ffffff;stroke-width:0.47244096;stroke-miterlimit:4;stroke-dasharray:none;stroke-opacity:1"
       d="m 61.313403,48.056111 c -0.28061,-0.227224 -0.295098,-0.312971 -0.295098,-1.746528 0,-1.385433 0.02222,-1.529795 0.274306,-1.781877 0.359322,-0.359323 0.966911,-0.359415 1.326389,-2.02e-4 0.236204,0.236031 0.280346,0.439316 0.317799,1.463542 0.02392,0.654191 0.0084,1.32915 -0.03443,1.499909 -0.187864,0.748513 -1.004035,1.038804 -1.588966,0.565156 z"
       id="path5697"
       inkscape:connector-curvature="0"
       transform="matrix(0.26458333,0,0,0.26458333,0,280.06665)" />
    <path
       style="opacity:1;fill:#ffffff;fill-opacity:1;stroke:#ffffff;stroke-width:0.47244096;stroke-miterlimit:4;stroke-dasharray:none;stroke-opacity:1"
       d="m 61.444973,56.634841 c -0.379027,-0.291008 -0.489168,-0.704796 -0.489168,-1.837764 0,-1.285194 0.19122,-1.826121 0.689774,-1.95125 0.922985,-0.231655 1.310226,0.321737 1.310226,1.872395 0,1.128831 -0.127939,1.643768 -0.473664,1.906432 -0.269047,0.204409 -0.777695,0.209404 -1.037168,0.01019 z"
       id="path5699"
       inkscape:connector-curvature="0"
       transform="matrix(0.26458333,0,0,0.26458333,0,280.06665)" />
    <path
       style="opacity:1;fill:#ffffff;fill-opacity:1;stroke:#ffffff;stroke-width:0.47244096;stroke-miterlimit:4;stroke-dasharray:none;stroke-opacity:1"
       d="m 61.583269,64.133617 c -0.425037,-0.213833 -0.623778,-0.66022 -0.623778,-1.40105 0,-0.763122 0.209071,-1.208902 0.637667,-1.359631 0.868895,-0.305574 1.421321,0.346084 1.332644,1.572028 -0.07451,1.030116 -0.650683,1.538732 -1.346533,1.188653 z"
       id="path5701"
       inkscape:connector-curvature="0"
       transform="matrix(0.26458333,0,0,0.26458333,0,280.06665)" />
  </g>
</svg>
