<?xml version="1.0" encoding="UTF-8" standalone="no"?>
<svg
   xmlns:osb="http://www.openswatchbook.org/uri/2009/osb"
   xmlns:dc="http://purl.org/dc/elements/1.1/"
   xmlns:cc="http://creativecommons.org/ns#"
   xmlns:rdf="http://www.w3.org/1999/02/22-rdf-syntax-ns#"
   xmlns:svg="http://www.w3.org/2000/svg"
   xmlns="http://www.w3.org/2000/svg"
   xmlns:sodipodi="http://sodipodi.sourceforge.net/DTD/sodipodi-0.dtd"
   xmlns:inkscape="http://www.inkscape.org/namespaces/inkscape"
   width="64"
   height="64"
   viewBox="0 0 16.933333 16.933334"
   version="1.1"
   id="svg820"
   sodipodi:docname="skull.svg"
   inkscape:version="0.92.4 (5da689c313, 2019-01-14)">
  <defs
     id="defs814">
    <linearGradient
       id="linearGradient5235"
       osb:paint="solid">
      <stop
         style="stop-color:#ffffff;stop-opacity:1;"
         offset="0"
         id="stop5233" />
    </linearGradient>
  </defs>
  <sodipodi:namedview
     id="base"
     pagecolor="#ffffff"
     bordercolor="#666666"
     borderopacity="1.0"
     inkscape:pageopacity="0.0"
     inkscape:pageshadow="2"
     inkscape:zoom="5.6568543"
     inkscape:cx="17.837958"
     inkscape:cy="7.8095389"
     inkscape:document-units="mm"
     inkscape:current-layer="layer1"
     showgrid="false"
     inkscape:pagecheckerboard="true"
     units="px"
     inkscape:window-width="1920"
     inkscape:window-height="1017"
     inkscape:window-x="-8"
     inkscape:window-y="-8"
     inkscape:window-maximized="1"
     borderlayer="false" />
  <metadata
     id="metadata817">
    <rdf:RDF>
      <cc:Work
         rdf:about="">
        <dc:format>image/svg+xml</dc:format>
        <dc:type
           rdf:resource="http://purl.org/dc/dcmitype/StillImage" />
        <dc:title></dc:title>
      </cc:Work>
    </rdf:RDF>
  </metadata>
  <g
     inkscape:label="Layer 1"
     inkscape:groupmode="layer"
     id="layer1"
     transform="translate(0,-280.06665)"
     style="display:inline">
    <path
       style="fill:#000000;stroke-width:0.26964495"
       d=""
       id="path5163"
       inkscape:connector-curvature="0" />
    <path
       style="fill:#000000;stroke-width:0.26964495"
       d=""
       id="path5161"
       inkscape:connector-curvature="0" />
    <path
       style="fill:#000000;stroke-width:0.26964495"
       d=""
       id="path5121"
       inkscape:connector-curvature="0" />
    <path
       style="fill:#000000;stroke-width:0.26964495"
       d=""
       id="path5119"
       inkscape:connector-curvature="0" />
    <path
       style="fill:#000000;stroke-width:0.26964495"
       d=""
       id="path5111"
       inkscape:connector-curvature="0" />
    <path
       style="fill:#000000;stroke-width:0.26964495"
       d=""
       id="path5109"
       inkscape:connector-curvature="0" />
    <path
       style="fill:#000000;stroke-width:0.26964495"
       d=""
       id="path5107"
       inkscape:connector-curvature="0" />
    <path
       style="fill:#000000;stroke-width:0.26964495"
       d=""
       id="path5105"
       inkscape:connector-curvature="0" />
    <path
       style="fill:#000000;stroke-width:0.26964495"
       d=""
       id="path5103"
       inkscape:connector-curvature="0" />
    <path
       style="fill:#000000;stroke-width:0.26964495"
       d=""
       id="path5101"
       inkscape:connector-curvature="0" />
    <path
       style="fill:#000000;stroke-width:0.26964495"
       d=""
       id="path5099"
       inkscape:connector-curvature="0" />
    <path
       style="fill:#000000;stroke-width:0.26964495"
       d=""
       id="path5089"
       inkscape:connector-curvature="0" />
    <path
       style="fill:#000000;stroke-width:0.26964495"
       d=""
       id="path5087"
       inkscape:connector-curvature="0" />
    <path
       style="fill:#000000;stroke-width:0.26964495"
       d=""
       id="path5085"
       inkscape:connector-curvature="0" />
    <path
       style="fill:#000000;stroke-width:0.26964495"
       d=""
       id="path5083"
       inkscape:connector-curvature="0" />
    <path
       style="fill:#000000;stroke-width:0.26964495"
       d=""
       id="path5081"
       inkscape:connector-curvature="0" />
    <path
       style="display:inline;fill:#000000;stroke-width:0.26964495"
       d=""
       id="path5079"
       inkscape:connector-curvature="0" />
    <path
       style="display:inline;fill:none;stroke:#000000;stroke-width:0.26458332px;stroke-linecap:butt;stroke-linejoin:miter;stroke-opacity:1"
       d="m 287.63989,273.94344 v -1.13393"
       id="path5571"
       inkscape:connector-curvature="0" />
    <path
       style="opacity:1;fill:#ffffff;fill-opacity:1;stroke:#ffffff;stroke-width:0.66813242;stroke-miterlimit:4;stroke-dasharray:none;stroke-opacity:1"
       d="m 33.836249,52.279358 c -0.534407,-0.125476 -0.630276,-0.278149 -0.764684,-1.217781 -0.1209,-0.845198 -0.136877,-0.863846 -0.740102,-0.863846 h -0.616534 l -0.08839,0.972272 -0.08839,0.972272 -1.003428,0.05263 c -0.551886,0.02895 -1.267831,-0.01695 -1.59099,-0.101979 l -0.587562,-0.154607 v -1.135458 -1.135456 h -0.707107 -0.707107 l -0.05347,1.031817 c -0.03679,0.709845 -0.119531,1.007483 -0.265165,0.953827 -0.11643,-0.0429 -0.623204,-0.213261 -1.126164,-0.378593 -0.50296,-0.165331 -0.993202,-0.39568 -1.089426,-0.511884 -0.09623,-0.116206 -0.197325,-0.983467 -0.224666,-1.927248 -0.0393,-1.356425 0.0083,-1.782377 0.227022,-2.032932 0.781712,-0.895367 0.801817,-1.473402 0.075,-2.156216 -0.41119,-0.386292 -0.433774,-0.387943 -1.413053,-0.103259 -0.80722,0.234666 -1.112538,0.250578 -1.616516,0.08425 -1.293132,-0.426772 -2.286011,-1.661669 -2.096772,-2.607866 0.07899,-0.394974 -0.109547,-0.936641 -0.816122,-2.344656 -1.117389,-2.226658 -1.109157,-2.586829 0.103608,-4.532629 L 19.487327,33.79252 19.295492,32.153193 C 19.17226,31.100119 18.804154,29.608221 18.266163,27.98143 17.453616,25.524428 17.428255,25.383173 17.41476,23.239285 c -0.01541,-2.448504 0.203288,-3.617832 0.958818,-5.126524 1.157135,-2.310642 3.671253,-5.058602 5.755522,-6.290852 2.567428,-1.5179 4.427673,-2.0176526 7.510379,-2.0176526 2.2182,0 4.184497,0.3383316 6.318096,1.0871266 2.688109,0.943401 4.211765,1.842764 5.785281,3.414855 2.420218,2.418024 3.444635,5.11888 3.435711,9.058177 -0.0053,2.32924 -0.161101,3.050003 -1.100389,5.089783 -0.64044,1.390801 -0.742078,1.785351 -0.807751,3.135659 -0.09391,1.930931 0.144079,2.898088 1.036506,4.212246 0.384549,0.566274 0.69918,1.156447 0.69918,1.311496 0,0.430398 -0.642983,1.5967 -1.28065,2.322964 -0.517282,0.589151 -0.577611,0.77789 -0.637253,1.993652 -0.06354,1.295308 -0.09386,1.375783 -0.855425,2.270973 l -0.789545,0.928077 h -1.21777 c -0.77032,0 -1.444191,-0.107973 -1.833995,-0.293857 -0.506376,-0.241474 -0.665007,-0.253373 -0.889881,-0.06674 -0.383448,0.318233 -0.34207,0.9313 0.161287,2.389656 0.239218,0.693078 0.524865,1.83971 0.634772,2.54807 0.190475,1.227647 0.181483,1.30746 -0.19214,1.705162 -0.33163,0.353003 -1.687518,0.965556 -2.137264,0.965556 -0.07483,0 -0.160093,-0.417635 -0.18948,-0.928078 l -0.05343,-0.928078 -0.780207,0.03634 c -0.908254,0.0423 -1.069556,0.22735 -1.073241,1.231246 -0.0029,0.791109 0.09426,0.721084 -1.41692,1.021177 -0.145841,0.02896 -0.424264,0.01529 -0.618719,-0.03036 z m -2.501882,-8.710753 c 0.705458,-0.619399 0.934721,-0.658672 1.084799,-0.185819 0.138304,0.435757 0.627511,0.59558 1.180028,0.385513 1.159518,-0.440847 1.078544,-1.168685 -0.323006,-2.903356 -1.310947,-1.622534 -1.480386,-1.584028 -2.56254,0.582342 -0.858936,1.719507 -1.023472,2.377381 -0.633904,2.534575 0.443384,0.178908 0.66232,0.106794 1.254623,-0.413255 z m 10.608172,-3.389401 c 1.050916,-0.80478 1.173995,-1.00354 1.178705,-1.903493 0.0023,-0.443246 0.07392,-1.106122 0.159116,-1.473057 0.0852,-0.366937 0.11403,-0.823447 0.06408,-1.014469 -0.117894,-0.450828 -0.981996,-0.977018 -2.042113,-1.243533 -0.792352,-0.199198 -0.883988,-0.184287 -1.54149,0.250826 -0.38448,0.254439 -1.492191,0.692496 -2.461578,0.973465 -1.317504,0.381868 -1.966038,0.677619 -2.568569,1.171347 -0.443327,0.363275 -0.806049,0.766418 -0.806049,0.895875 0,0.545465 2.751814,2.053431 4.660195,2.553741 1.877837,0.492301 2.489843,0.453897 3.357707,-0.210702 z M 27.604105,39.720316 c 1.427332,-0.709048 2.784999,-1.751783 2.784999,-2.138977 0,-0.106888 -0.221066,-0.441756 -0.491257,-0.744152 -0.418333,-0.468196 -0.640788,-0.560456 -1.498612,-0.621524 -1.146749,-0.08164 -3.100564,-0.76294 -4.030041,-1.40529 -0.8189,-0.565932 -1.333247,-0.547689 -2.32701,0.08254 -0.733041,0.46488 -0.833744,0.611124 -1.004258,1.458407 -0.224563,1.115855 -0.04585,2.077752 0.533322,2.870534 0.825016,1.129297 1.366214,1.344654 3.20443,1.275122 1.191237,-0.04506 1.558962,-0.146034 2.828427,-0.776658 z"
       id="path5625"
       inkscape:connector-curvature="0"
       transform="matrix(0.26458333,0,0,0.26458333,0,280.06665)" />
  </g>
</svg>
