<?xml version="1.0" encoding="UTF-8" standalone="no"?>
<svg
   xmlns:osb="http://www.openswatchbook.org/uri/2009/osb"
   xmlns:dc="http://purl.org/dc/elements/1.1/"
   xmlns:cc="http://creativecommons.org/ns#"
   xmlns:rdf="http://www.w3.org/1999/02/22-rdf-syntax-ns#"
   xmlns:svg="http://www.w3.org/2000/svg"
   xmlns="http://www.w3.org/2000/svg"
   xmlns:sodipodi="http://sodipodi.sourceforge.net/DTD/sodipodi-0.dtd"
   xmlns:inkscape="http://www.inkscape.org/namespaces/inkscape"
   width="64"
   height="64"
   viewBox="0 0 16.933333 16.933334"
   version="1.1"
   id="svg820"
   sodipodi:docname="skull2.svg"
   inkscape:version="0.92.4 (5da689c313, 2019-01-14)">
  <defs
     id="defs814">
    <linearGradient
       id="linearGradient5235"
       osb:paint="solid">
      <stop
         style="stop-color:#ffffff;stop-opacity:1;"
         offset="0"
         id="stop5233" />
    </linearGradient>
  </defs>
  <sodipodi:namedview
     id="base"
     pagecolor="#ffffff"
     bordercolor="#666666"
     borderopacity="1.0"
     inkscape:pageopacity="0.0"
     inkscape:pageshadow="2"
     inkscape:zoom="8"
     inkscape:cx="31.147842"
     inkscape:cy="40.211562"
     inkscape:document-units="mm"
     inkscape:current-layer="layer1"
     showgrid="false"
     inkscape:pagecheckerboard="true"
     units="px"
     inkscape:window-width="1920"
     inkscape:window-height="1017"
     inkscape:window-x="-8"
     inkscape:window-y="-8"
     inkscape:window-maximized="1"
     borderlayer="false" />
  <metadata
     id="metadata817">
    <rdf:RDF>
      <cc:Work
         rdf:about="">
        <dc:format>image/svg+xml</dc:format>
        <dc:type
           rdf:resource="http://purl.org/dc/dcmitype/StillImage" />
        <dc:title></dc:title>
      </cc:Work>
    </rdf:RDF>
  </metadata>
  <g
     inkscape:label="Layer 1"
     inkscape:groupmode="layer"
     id="layer1"
     transform="translate(0,-280.06665)"
     style="display:inline">
    <path
       style="fill:#000000;stroke-width:0.26964495"
       d=""
       id="path5163"
       inkscape:connector-curvature="0" />
    <path
       style="fill:#000000;stroke-width:0.26964495"
       d=""
       id="path5161"
       inkscape:connector-curvature="0" />
    <path
       style="fill:#000000;stroke-width:0.26964495"
       d=""
       id="path5121"
       inkscape:connector-curvature="0" />
    <path
       style="fill:#000000;stroke-width:0.26964495"
       d=""
       id="path5119"
       inkscape:connector-curvature="0" />
    <path
       style="fill:#000000;stroke-width:0.26964495"
       d=""
       id="path5111"
       inkscape:connector-curvature="0" />
    <path
       style="fill:#000000;stroke-width:0.26964495"
       d=""
       id="path5109"
       inkscape:connector-curvature="0" />
    <path
       style="fill:#000000;stroke-width:0.26964495"
       d=""
       id="path5107"
       inkscape:connector-curvature="0" />
    <path
       style="fill:#000000;stroke-width:0.26964495"
       d=""
       id="path5105"
       inkscape:connector-curvature="0" />
    <path
       style="fill:#000000;stroke-width:0.26964495"
       d=""
       id="path5103"
       inkscape:connector-curvature="0" />
    <path
       style="fill:#000000;stroke-width:0.26964495"
       d=""
       id="path5101"
       inkscape:connector-curvature="0" />
    <path
       style="fill:#000000;stroke-width:0.26964495"
       d=""
       id="path5099"
       inkscape:connector-curvature="0" />
    <path
       style="fill:#000000;stroke-width:0.26964495"
       d=""
       id="path5089"
       inkscape:connector-curvature="0" />
    <path
       style="fill:#000000;stroke-width:0.26964495"
       d=""
       id="path5087"
       inkscape:connector-curvature="0" />
    <path
       style="fill:#000000;stroke-width:0.26964495"
       d=""
       id="path5085"
       inkscape:connector-curvature="0" />
    <path
       style="fill:#000000;stroke-width:0.26964495"
       d=""
       id="path5083"
       inkscape:connector-curvature="0" />
    <path
       style="fill:#000000;stroke-width:0.26964495"
       d=""
       id="path5081"
       inkscape:connector-curvature="0" />
    <path
       style="display:inline;fill:#000000;stroke-width:0.26964495"
       d=""
       id="path5079"
       inkscape:connector-curvature="0" />
    <path
       style="display:inline;fill:none;stroke:#000000;stroke-width:0.26458332px;stroke-linecap:butt;stroke-linejoin:miter;stroke-opacity:1"
       d="m 287.63989,273.94344 v -1.13393"
       id="path5571"
       inkscape:connector-curvature="0" />
    <path
       style="opacity:1;fill:#ffffff;fill-opacity:1;stroke:#ffffff;stroke-width:0.47244096;stroke-miterlimit:4;stroke-dasharray:none;stroke-opacity:1"
       d="m 31.273105,62.294687 c 1.25e-4,-0.06714 -0.352983,-0.100532 -0.8125,-0.07683 l -0.812763,0.04191 -5e-4,-0.479415 c -3.64e-4,-0.263679 -0.0813,-2.195042 -0.179916,-4.291917 -0.31175,-6.628741 -0.472381,-11.277942 -0.426489,-12.344043 0.02442,-0.567349 0.01628,-1.031568 -0.01809,-1.031598 -0.05262,-4.5e-5 -1.070165,0.489513 -1.243429,0.598238 -0.03076,0.0193 0.0431,0.202747 0.164148,0.407656 0.319551,0.540956 0.48678,4.834129 0.434185,11.146575 -0.03892,4.671062 -0.06061,5.107531 -0.26393,5.310812 -0.212021,0.211982 -0.245729,0.208645 -0.78556,-0.07773 -0.681589,-0.361583 -1.306029,-1.04195 -1.303738,-1.420507 8.75e-4,-0.152295 -0.08126,-1.655025 -0.182626,-3.3394 -0.101365,-1.684375 -0.244431,-4.742788 -0.317925,-6.796473 -0.07523,-2.102338 -0.191227,-3.841607 -0.265449,-3.980289 -0.259192,-0.484309 -0.730478,-2.295368 -0.733053,-2.816988 -0.0022,-0.448791 0.03618,-0.53125 0.247377,-0.53125 0.327715,0 0.326343,-0.361308 -0.0047,-1.232245 L 24.5136,40.711447 24.788902,40.142749 25.064205,39.57405 24.666548,39.218744 c -0.432511,-0.386449 -0.653392,-0.418116 -1.627645,-0.233354 -1.01992,0.193424 -1.879261,0.624916 -2.92551,1.468954 -0.534562,0.431251 -1.036125,0.784093 -1.114577,0.784093 -0.07845,0 -0.107048,0.03559 -0.06355,0.07909 0.0435,0.0435 -0.05603,0.185386 -0.221188,0.315296 -0.300625,0.236473 -0.381737,0.666114 -0.134959,0.714867 0.07217,0.01426 0.520554,0.06582 0.996407,0.114583 0.475853,0.04876 0.886285,0.152767 0.912069,0.231119 0.0531,0.16136 -0.648008,0.628166 -1.027257,0.683958 -0.306065,0.04502 -1.598981,-0.681983 -1.468586,-0.825788 0.05147,-0.05676 0.02444,-0.06347 -0.06008,-0.01489 -0.08452,0.04858 -0.269454,0.02635 -0.410972,-0.04938 -0.326295,-0.174629 -0.605822,-0.08442 -1.198937,0.386932 -0.395174,0.314045 -0.566392,0.3698 -1.040447,0.338808 -0.489833,-0.03202 -0.601865,-0.09358 -0.819206,-0.450098 -0.138474,-0.227151 -0.459261,-0.685196 -0.71286,-1.01788 -0.313757,-0.411602 -0.510388,-0.843567 -0.615379,-1.351884 l -0.154292,-0.747006 0.391206,-0.418588 c 0.215163,-0.230225 0.340915,-0.449672 0.27945,-0.487659 -0.371412,-0.229545 -0.533673,-2.091173 -0.205973,-2.363139 0.09428,-0.07825 0.445845,-0.225547 0.78125,-0.327331 0.990058,-0.300451 1.045965,-0.371986 0.60633,-0.77583 -0.466645,-0.428655 -1.352562,-1.663408 -2.093754,-2.918184 -0.631887,-1.069732 -0.927485,-2.151202 -1.415715,-5.179497 -0.373051,-2.313892 -0.520235,-6.024022 -0.314888,-7.9375 0.263116,-2.45177 0.990529,-4.643055 1.985075,-5.979908 0.504934,-0.678724 1.368571,-1.525537 2.245366,-2.201626 0.427674,-0.329775 1.317515,-1.2068725 1.977425,-1.949105 2.175888,-2.4473235 3.515573,-3.4596902 5.768693,-4.3592567 0.219288,-0.087552 0.467042,-0.1169506 0.550563,-0.065331 0.08838,0.054623 0.119579,0.041624 0.07463,-0.0311 -0.129473,-0.2094923 1.47985,-0.5203271 3.729603,-0.7203587 6.34348,-0.5640162 7.079686,-0.5965183 8.64928,-0.381849 2.236966,0.3059442 4.051242,0.8811428 6.115867,1.9389753 1.497915,0.7674729 3.183458,1.8975862 3.112638,2.0869433 -0.03201,0.085599 0.01607,0.1222064 0.11211,0.085352 0.17484,-0.067092 1.91218,1.3486328 2.029185,1.653543 0.03666,0.095546 0.136302,0.1737208 0.221416,0.1737208 0.08511,0 0.256564,0.1125 0.381,0.25 0.124436,0.1375 0.193244,0.25 0.152908,0.25 -0.04034,0 0.344547,0.427487 0.855296,0.949971 0.51075,0.522484 0.899476,0.997152 0.863836,1.054817 -0.03564,0.05767 0.01235,0.150491 0.106638,0.206279 0.261971,0.155 1.091041,1.365048 0.998602,1.457486 -0.0448,0.0448 -0.02068,0.08145 0.05358,0.08145 0.118079,0 1.156639,1.655088 1.156639,1.843262 0,0.03922 0.222978,0.555356 0.495505,1.14698 0.934083,2.027773 1.183474,4.259535 0.819613,7.334576 -0.199397,1.685119 -0.48366,3.085428 -1.393134,6.862682 -0.410491,1.704867 -0.880911,3.945938 -0.89211,4.25 -0.0051,0.1375 -0.03295,0.334375 -0.06197,0.4375 -0.194907,0.692668 -0.23264,1.144131 -0.108158,1.294121 0.07595,0.09151 0.0981,0.206366 0.04923,0.255236 -0.04887,0.04887 0.0082,0.05162 0.126766,0.0061 0.16355,-0.06276 0.259155,0.02145 0.395888,0.348697 0.09915,0.237293 0.159059,0.53874 0.133139,0.669885 -0.02592,0.131146 -0.115723,0.604071 -0.199558,1.050946 -0.176487,0.940749 -0.325739,1.289149 -0.504841,1.178458 -0.0719,-0.04444 -0.109889,0.01714 -0.08748,0.141815 0.02605,0.144937 -0.195702,0.40186 -0.64789,0.750636 -0.378125,0.291651 -0.702232,0.516214 -0.720237,0.499027 -0.01801,-0.01718 -0.299257,0.234418 -0.625,0.559119 -0.447777,0.44634 -0.721233,0.611915 -1.120922,0.678704 -0.731462,0.122229 -1.385283,-0.107875 -1.489803,-0.524319 -0.09214,-0.367122 0.100938,-0.741231 0.35058,-0.679274 0.09233,0.02292 0.130482,0.0043 0.08477,-0.04144 -0.04571,-0.04571 -0.0059,-0.267777 0.08835,-0.493478 0.131597,-0.314958 0.140634,-0.523292 0.03887,-0.896055 -0.162752,-0.596143 -0.279551,-0.743714 -0.91727,-1.158939 -0.447676,-0.291485 -0.616502,-0.325191 -1.564335,-0.312314 -0.78307,0.01064 -1.243307,0.08754 -1.75,0.2924 -0.378125,0.152881 -0.866272,0.337396 -1.084771,0.410033 -0.455423,0.151397 -0.626096,0.576622 -0.400575,0.998012 0.09956,0.186028 0.121682,0.692093 0.06986,1.597914 -0.08672,1.515731 -0.593988,3.294566 -1.192314,4.181117 -0.353885,0.524357 -0.355845,0.538298 -0.4417,3.141392 -0.197322,5.982685 -0.497267,10.390262 -0.803049,11.800476 l -0.09449,0.435777 -1.120227,0.208317 c -0.711428,0.132296 -1.165844,0.164912 -1.245228,0.08938 -0.189956,-0.180745 -0.234054,-6.32891 -0.07159,-9.98175 0.130983,-2.945086 0.343159,-6.362576 0.42985,-6.923541 0.04926,-0.31876 0.427348,-0.576459 0.845758,-0.576459 0.741585,0 0.530987,-0.372145 -0.511694,-0.90421 -0.518979,-0.264826 -0.758955,-0.274639 -1.290085,-0.05275 l -0.402235,0.168042 0.08189,1.050708 c 0.154837,1.986641 -0.0743,12.069772 -0.329247,14.488207 -0.131544,1.247846 -0.353449,2.375 -0.467571,2.375 -0.06178,0 -0.07604,0.05871 -0.03169,0.130475 0.164542,0.266235 -0.218066,0.494525 -0.828808,0.494525 -0.538363,0 -0.615941,-0.03438 -0.683311,-0.302799 -0.101297,-0.403601 -0.124956,-4.057567 -0.07533,-11.634701 l 0.04093,-6.25 -0.478432,-0.03698 -0.478431,-0.03698 0.04221,5.411977 c 0.04246,5.444085 -0.087,8.995956 -0.41537,11.395455 -0.09284,0.678413 -0.229673,1.294351 -0.304071,1.36875 -0.0744,0.0744 -0.135155,0.08184 -0.13501,0.01652 z m 3.233211,-21.68563 c 0.387165,-0.52367 1.123786,-2.086442 1.216565,-2.580993 0.06466,-0.344664 -0.0086,-0.530056 -0.471453,-1.192615 -0.301407,-0.431481 -0.611032,-0.925136 -0.688055,-1.097011 -0.453475,-1.01192 -0.543982,-1.257858 -0.567506,-1.542093 -0.01433,-0.173186 -0.07092,-0.287159 -0.12575,-0.253272 -0.130997,0.08096 -0.784775,-0.435959 -0.784775,-0.620495 0,-0.07877 -0.09116,-0.160773 -0.202589,-0.182232 -0.292873,-0.0564 -0.356263,0.318734 -0.358205,2.11981 l -0.0017,1.584218 0.646205,1.081241 c 0.603119,1.009151 0.650029,1.147303 0.70356,2.072032 0.0637,1.100328 0.185414,1.21776 0.633709,0.61141 z m -3.795974,-0.912716 c 0.07322,-0.500615 0.172081,-0.811271 0.238666,-0.75 0.06599,0.06073 0.08449,0.0226 0.04409,-0.09091 -0.03942,-0.11078 0.168026,-0.571243 0.47868,-1.0625 l 0.548255,-0.86699 0.0014,-2.09375 c 0.0012,-1.778402 -0.02683,-2.09375 -0.186093,-2.09375 -0.103125,0 -0.1875,0.08243 -0.1875,0.18319 0,0.208413 -0.753052,1.020667 -0.902139,0.97306 -0.05382,-0.01719 -0.09786,0.02832 -0.09786,0.101127 0,0.07281 -0.05561,0.09801 -0.123569,0.05601 -0.07208,-0.04455 -0.09105,0.0084 -0.04553,0.127003 0.04292,0.111855 -0.03913,0.466339 -0.182331,0.787743 -0.63271,1.420027 -0.792693,1.73427 -1.086485,2.134104 -0.171649,0.233605 -0.312089,0.590567 -0.312089,0.79325 0,0.415602 0.753043,2.087687 1.051926,2.335738 0.107427,0.08916 0.169287,0.204229 0.137465,0.255716 -0.03182,0.05149 0.06724,0.0873 0.220127,0.07959 0.245725,-0.0124 0.292487,-0.113197 0.402982,-0.868623 z m -4.5625,-6.09006 c 1.25433,-0.201106 3.956908,-1.097723 4.37881,-1.452731 0.502215,-0.422586 0.467653,-0.615925 -0.16006,-0.895346 -4.034007,-1.79571 -5.118109,-2.329548 -6.491216,-3.19643 -0.871731,-0.550349 -1.552103,-1.053809 -1.511936,-1.118799 0.04017,-0.06499 0.01818,-0.08426 -0.04887,-0.04283 -0.06704,0.04143 -0.314796,-0.04389 -0.550563,-0.189613 -0.592926,-0.36647 -4.607864,-2.63141 -4.991169,-2.815659 -0.440733,-0.211853 -2.196113,-0.781436 -2.408282,-0.781436 -0.707832,0 -0.707876,3.874921 -6e-5,5.2938 0.09776,0.195966 0.199751,0.577522 0.226649,0.847905 0.09745,0.979573 0.723111,1.877598 1.846404,2.650193 1.02224,0.703092 2.375071,1.024303 6.897789,1.637785 1.592175,0.21597 1.826569,0.221234 2.8125,0.06316 z m 15.074918,-0.05743 c 3.53001,-0.457617 6.01084,-0.972772 6.634926,-1.37777 0.873554,-0.566888 2.165156,-2.26669 2.165156,-2.849435 0,-0.09631 0.173999,-0.702863 0.386663,-1.347906 0.307317,-0.932135 0.398655,-1.454962 0.445105,-2.547802 0.065,-1.529414 -0.05945,-1.969187 -0.578188,-2.04316 -0.579737,-0.08267 -3.376237,0.78429 -4.711029,1.460496 -0.664758,0.336767 -2.80517,1.731402 -4.542551,2.959805 -0.378125,0.26735 -0.96875,0.67457 -1.3125,0.904934 -0.734995,0.492555 -3.131531,1.679521 -3.9375,1.950181 -1.180827,0.396546 -2.063939,0.813557 -2.100192,0.991725 -0.04964,0.243969 0.513221,0.677426 1.113023,0.857131 0.26344,0.07893 0.449778,0.19076 0.414084,0.248515 -0.03569,0.05776 0.01384,0.07479 0.110086,0.03786 0.09624,-0.03693 0.563227,0.07988 1.037743,0.259588 1.841642,0.697454 2.670025,0.781705 4.875174,0.495838 z M 18.772842,7.9736833 c 0,-0.06875 -0.05625,-0.090236 -0.125,-0.047746 -0.06875,0.04249 -0.125,0.1335042 -0.125,0.2022542 0,0.06875 0.05625,0.090236 0.125,0.047746 0.06875,-0.04249 0.125,-0.1335043 0.125,-0.2022542 z"
       id="path5638"
       inkscape:connector-curvature="0"
       transform="matrix(0.26458333,0,0,0.26458333,0,280.06665)" />
  </g>
</svg>
